<svg width="14" height="14" viewBox="0 0 14 14" fill="none" xmlns="http://www.w3.org/2000/svg">
<path d="M7.0026 0.333008C3.32927 0.333008 0.335938 3.32634 0.335938 6.99967C0.335938 10.673 3.32927 13.6663 7.0026 13.6663C10.6759 13.6663 13.6693 10.673 13.6693 6.99967C13.6693 3.32634 10.6759 0.333008 7.0026 0.333008ZM9.66927 7.49967H7.5026V9.66634C7.5026 9.93967 7.27594 10.1663 7.0026 10.1663C6.72927 10.1663 6.5026 9.93967 6.5026 9.66634V7.49967H4.33594C4.0626 7.49967 3.83594 7.27301 3.83594 6.99967C3.83594 6.72634 4.0626 6.49967 4.33594 6.49967H6.5026V4.33301C6.5026 4.05967 6.72927 3.83301 7.0026 3.83301C7.27594 3.83301 7.5026 4.05967 7.5026 4.33301V6.49967H9.66927C9.9426 6.49967 10.1693 6.72634 10.1693 6.99967C10.1693 7.27301 9.9426 7.49967 9.66927 7.49967Z" fill="white"/>
</svg>
