<svg width="18" height="18" viewBox="0 0 18 18" fill="none" xmlns="http://www.w3.org/2000/svg">
<path d="M9.00077 17.3999C8.75077 17.3999 8.50079 17.3416 8.29246 17.2249C6.73413 16.3749 4.00078 15.4749 2.28411 15.2499L2.04246 15.2166C0.950794 15.0833 0.0507812 14.0583 0.0507812 12.9499V2.88324C0.0507812 2.22491 0.309119 1.62493 0.784119 1.1916C1.25912 0.758268 1.87576 0.549925 2.52576 0.608258C4.35076 0.758258 7.11744 1.67493 8.6841 2.64993L8.88409 2.76661C8.94243 2.79161 9.06745 2.79995 9.11745 2.76661L9.25076 2.68325C9.8091 2.33325 10.5091 1.99157 11.2758 1.68324C11.4674 1.60824 11.6841 1.63325 11.8591 1.74992C12.0341 1.86659 12.1341 2.05825 12.1341 2.26658V4.49991L12.8258 4.04159C13.0341 3.89992 13.3091 3.89992 13.5174 4.04159L14.2091 4.49991V1.31662C14.2091 1.01662 14.4258 0.758246 14.7174 0.699912C14.9591 0.658246 15.2008 0.624925 15.4175 0.608258C15.4341 0.608258 15.5008 0.608258 15.5174 0.608258C16.1258 0.558258 16.7508 0.76661 17.2174 1.19994C17.6924 1.63328 17.9508 2.23325 17.9508 2.89158V12.9499C17.9508 14.0666 17.0508 15.0833 15.9508 15.2166L15.6758 15.2499C13.9591 15.4749 11.2091 16.3833 9.68411 17.2249C9.50078 17.3416 9.25077 17.3999 9.00077 17.3999ZM2.31742 1.84157C2.05076 1.84157 1.80912 1.93325 1.61745 2.10825C1.40912 2.29991 1.29244 2.57491 1.29244 2.88324V12.9499C1.29244 13.4416 1.71745 13.9166 2.19245 13.9832L2.44244 14.0166C4.31744 14.2666 7.19245 15.2083 8.85912 16.1249C8.93412 16.1583 9.04242 16.1666 9.08409 16.1499C10.7591 15.2249 13.6425 14.275 15.5258 14.025L15.8091 13.9916C16.2841 13.9333 16.7091 13.4499 16.7091 12.9583V2.89992C16.7091 2.59159 16.5924 2.32493 16.3841 2.12493C16.1758 1.93326 15.8841 1.84159 15.5841 1.85826C15.5591 1.85826 15.4841 1.85826 15.4674 1.85826V5.6666C15.4674 5.89993 15.3424 6.10824 15.1341 6.21657C14.9258 6.32491 14.6841 6.31659 14.4925 6.18326L13.1758 5.30827L11.8591 6.18326C11.6674 6.30826 11.4258 6.32491 11.2174 6.21657C11.0174 6.10824 10.8841 5.89993 10.8841 5.6666V3.22494C10.5258 3.39994 10.2008 3.57493 9.91742 3.7416L9.78411 3.82491C9.32578 4.10825 8.67579 4.10825 8.23412 3.83325L8.03413 3.70828C6.6258 2.82495 4.05909 1.97491 2.42576 1.84157C2.38409 1.84157 2.35076 1.84157 2.31742 1.84157Z" fill="#292D32"/>
</svg>
