<svg width="16" height="17" viewBox="0 0 16 17" fill="none" xmlns="http://www.w3.org/2000/svg">
<path d="M4.46537 12.4997H2.76538C1.81205 12.4997 1.33203 12.0197 1.33203 11.0663V3.26636C1.33203 2.31302 1.81205 1.83301 2.76538 1.83301H5.63204C6.58537 1.83301 7.06535 2.31302 7.06535 3.26636V4.49967" stroke="#292D32" stroke-width="1.5" stroke-miterlimit="10" stroke-linecap="round" stroke-linejoin="round"/>
<path d="M11.5782 6.11332V13.5533C11.5782 14.6267 11.0449 15.1667 9.97152 15.1667H6.07817C5.00483 15.1667 4.46484 14.6267 4.46484 13.5533V6.11332C4.46484 5.03999 5.00483 4.5 6.07817 4.5H9.97152C11.0449 4.5 11.5782 5.03999 11.5782 6.11332Z" stroke="#292D32" stroke-width="1.5" stroke-miterlimit="10" stroke-linecap="round" stroke-linejoin="round"/>
<path d="M8.93359 4.49967V3.26636C8.93359 2.31302 9.41357 1.83301 10.3669 1.83301H13.2336C14.1869 1.83301 14.6669 2.31302 14.6669 3.26636V11.0663C14.6669 12.0197 14.1869 12.4997 13.2336 12.4997H11.5802" stroke="#292D32" stroke-width="1.5" stroke-miterlimit="10" stroke-linecap="round" stroke-linejoin="round"/>
<path d="M6.66797 7.83301H9.33464" stroke="#292D32" stroke-width="1.5" stroke-miterlimit="10" stroke-linecap="round" stroke-linejoin="round"/>
<path d="M6.66797 9.83301H9.33464" stroke="#292D32" stroke-width="1.5" stroke-miterlimit="10" stroke-linecap="round" stroke-linejoin="round"/>
<path d="M8 15.167V13.167" stroke="#292D32" stroke-width="1.5" stroke-miterlimit="10" stroke-linecap="round" stroke-linejoin="round"/>
</svg>
