<svg width="16" height="17" viewBox="0 0 16 17" fill="none" xmlns="http://www.w3.org/2000/svg">
<path d="M5.33203 1.83301V3.83301" stroke="#292D32" stroke-width="1.5" stroke-miterlimit="10" stroke-linecap="round" stroke-linejoin="round"/>
<path d="M10.668 1.83301V3.83301" stroke="#292D32" stroke-width="1.5" stroke-miterlimit="10" stroke-linecap="round" stroke-linejoin="round"/>
<path d="M2.33203 6.55957H13.6654" stroke="#292D32" stroke-width="1.5" stroke-miterlimit="10" stroke-linecap="round" stroke-linejoin="round"/>
<path d="M12.806 11.0129L10.446 13.3729C10.3527 13.4662 10.266 13.6395 10.246 13.7662L10.1194 14.6662C10.0727 14.9929 10.2994 15.2195 10.626 15.1729L11.526 15.0462C11.6527 15.0262 11.8327 14.9395 11.9194 14.8462L14.2794 12.4862C14.686 12.0795 14.8794 11.6062 14.2794 11.0062C13.686 10.4129 13.2127 10.6062 12.806 11.0129Z" stroke="#292D32" stroke-width="1.5" stroke-miterlimit="10" stroke-linecap="round" stroke-linejoin="round"/>
<path d="M12.4648 11.3525C12.6648 12.0725 13.2248 12.6325 13.9448 12.8325" stroke="#292D32" stroke-width="1.5" stroke-miterlimit="10" stroke-linecap="round" stroke-linejoin="round"/>
<path d="M8 15.1663H5.33333C3 15.1663 2 13.833 2 11.833V6.16634C2 4.16634 3 2.83301 5.33333 2.83301H10.6667C13 2.83301 14 4.16634 14 6.16634V8.49967" stroke="#292D32" stroke-width="1.5" stroke-miterlimit="10" stroke-linecap="round" stroke-linejoin="round"/>
<path d="M7.99764 9.63314H8.00363" stroke="#292D32" stroke-width="2" stroke-linecap="round" stroke-linejoin="round"/>
<path d="M5.52889 9.63314H5.53488" stroke="#292D32" stroke-width="2" stroke-linecap="round" stroke-linejoin="round"/>
<path d="M5.52889 11.6331H5.53488" stroke="#292D32" stroke-width="2" stroke-linecap="round" stroke-linejoin="round"/>
</svg>
