<svg width="20" height="20" viewBox="0 0 20 20" fill="none" xmlns="http://www.w3.org/2000/svg">
<path d="M18.3057 15.2763C18.3057 15.5763 18.2391 15.8846 18.0974 16.1846C17.9557 16.4846 17.7724 16.768 17.5307 17.0346C17.1224 17.4846 16.6724 17.8096 16.1641 18.018C15.6641 18.2263 15.1224 18.3346 14.5391 18.3346C13.6891 18.3346 12.7807 18.1346 11.8224 17.7263C10.8641 17.318 9.90573 16.768 8.95573 16.0763C7.9974 15.3763 7.08906 14.6013 6.2224 13.743C5.36406 12.8763 4.58906 11.968 3.8974 11.018C3.21406 10.068 2.66406 9.11797 2.26406 8.1763C1.86406 7.2263 1.66406 6.31797 1.66406 5.4513C1.66406 4.88464 1.76406 4.34297 1.96406 3.84297C2.16406 3.33464 2.48073 2.86797 2.9224 2.4513C3.45573 1.9263 4.03906 1.66797 4.65573 1.66797C4.88906 1.66797 5.1224 1.71797 5.33073 1.81797C5.5474 1.91797 5.73906 2.06797 5.88906 2.28464L7.8224 5.00964C7.9724 5.21797 8.08073 5.40964 8.15573 5.59297C8.23073 5.76797 8.2724 5.94297 8.2724 6.1013C8.2724 6.3013 8.21406 6.5013 8.0974 6.69297C7.98906 6.88464 7.83073 7.08464 7.63073 7.28464L6.9974 7.94297C6.90573 8.03464 6.86406 8.14297 6.86406 8.2763C6.86406 8.34297 6.8724 8.4013 6.88906 8.46797C6.91406 8.53464 6.93906 8.58464 6.95573 8.63464C7.10573 8.90964 7.36406 9.26797 7.73073 9.7013C8.10573 10.1346 8.50573 10.5763 8.93906 11.018C9.38906 11.4596 9.8224 11.868 10.2641 12.243C10.6974 12.6096 11.0557 12.8596 11.3391 13.0096C11.3807 13.0263 11.4307 13.0513 11.4891 13.0763C11.5557 13.1013 11.6224 13.1096 11.6974 13.1096C11.8391 13.1096 11.9474 13.0596 12.0391 12.968L12.6724 12.343C12.8807 12.1346 13.0807 11.9763 13.2724 11.8763C13.4641 11.7596 13.6557 11.7013 13.8641 11.7013C14.0224 11.7013 14.1891 11.7346 14.3724 11.8096C14.5557 11.8846 14.7474 11.993 14.9557 12.1346L17.7141 14.093C17.9307 14.243 18.0807 14.418 18.1724 14.6263C18.2557 14.8346 18.3057 15.043 18.3057 15.2763Z" stroke="#252525" stroke-width="1.5" stroke-miterlimit="10"/>
</svg>
