<svg width="21" height="20" viewBox="0 0 21 20" fill="none" xmlns="http://www.w3.org/2000/svg">
<path d="M2.16797 6.41799C2.16797 5.17453 3.17599 4.1665 4.41945 4.1665C5.06552 4.1665 5.63911 3.75309 5.84341 3.14017L5.91797 2.9165C5.95313 2.81103 5.97071 2.75829 5.98951 2.71151C6.22968 2.11411 6.79246 1.70848 7.43515 1.66955C7.48548 1.6665 7.54107 1.6665 7.65225 1.6665H13.3504C13.4615 1.6665 13.5171 1.6665 13.5675 1.66955C14.2101 1.70848 14.7729 2.11411 15.0131 2.71151C15.0319 2.75829 15.0495 2.81103 15.0846 2.9165L15.1592 3.14017C15.3635 3.75309 15.9371 4.1665 16.5832 4.1665C17.8266 4.1665 18.8346 5.17453 18.8346 6.41799V13.4998C18.8346 14.9 18.8346 15.6 18.5622 16.1348C18.3225 16.6052 17.94 16.9877 17.4696 17.2274C16.9348 17.4998 16.2348 17.4998 14.8346 17.4998H6.16797C4.76784 17.4998 4.06777 17.4998 3.53299 17.2274C3.06259 16.9877 2.68014 16.6052 2.44045 16.1348C2.16797 15.6 2.16797 14.9 2.16797 13.4998V6.41799Z" stroke="white" stroke-width="2" stroke-linecap="round" stroke-linejoin="round"/>
<path d="M10.5013 13.7498C12.5724 13.7498 14.2513 12.0709 14.2513 9.99984C14.2513 7.92877 12.5724 6.24984 10.5013 6.24984C8.43023 6.24984 6.7513 7.92877 6.7513 9.99984C6.7513 12.0709 8.43023 13.7498 10.5013 13.7498Z" stroke="white" stroke-width="2" stroke-linecap="round" stroke-linejoin="round"/>
</svg>
