<svg width="20" height="20" viewBox="0 0 20 20" fill="none" xmlns="http://www.w3.org/2000/svg">
<path d="M11.6929 15.3034L10.5359 17.2317C10.4804 17.3243 10.4019 17.4009 10.3079 17.4541C10.214 17.5072 10.1079 17.5352 10 17.5352C9.89207 17.5352 9.78598 17.5072 9.69206 17.4541C9.59814 17.4009 9.5196 17.3243 9.46407 17.2317L8.30706 15.3034C8.25154 15.2109 8.17299 15.1343 8.07907 15.0811C7.98515 15.0279 7.87906 15 7.77113 15H3.125C2.95924 15 2.80027 14.9341 2.68306 14.8169C2.56585 14.6997 2.5 14.5407 2.5 14.375V4.375C2.5 4.20924 2.56585 4.05027 2.68306 3.93306C2.80027 3.81585 2.95924 3.75 3.125 3.75H16.875C17.0408 3.75 17.1997 3.81585 17.3169 3.93306C17.4342 4.05027 17.5 4.20924 17.5 4.375V14.375C17.5 14.4571 17.4838 14.5383 17.4524 14.6142C17.421 14.69 17.375 14.7589 17.3169 14.8169C17.2589 14.875 17.19 14.921 17.1142 14.9524C17.0383 14.9838 16.9571 15 16.875 15L12.2289 15C12.1209 15 12.0149 15.0279 11.9209 15.0811C11.827 15.1343 11.7485 15.2109 11.6929 15.3034Z" stroke="#727272" stroke-width="1.5" stroke-linecap="round" stroke-linejoin="round"/>
<path d="M10 10.1562C10.4315 10.1562 10.7812 9.80647 10.7812 9.375C10.7812 8.94353 10.4315 8.59375 10 8.59375C9.56853 8.59375 9.21875 8.94353 9.21875 9.375C9.21875 9.80647 9.56853 10.1562 10 10.1562Z" fill="#727272"/>
<path d="M13.75 10.1562C14.1815 10.1562 14.5312 9.80647 14.5312 9.375C14.5312 8.94353 14.1815 8.59375 13.75 8.59375C13.3185 8.59375 12.9688 8.94353 12.9688 9.375C12.9688 9.80647 13.3185 10.1562 13.75 10.1562Z" fill="#727272"/>
<path d="M6.25 10.1562C6.68147 10.1562 7.03125 9.80647 7.03125 9.375C7.03125 8.94353 6.68147 8.59375 6.25 8.59375C5.81853 8.59375 5.46875 8.94353 5.46875 9.375C5.46875 9.80647 5.81853 10.1562 6.25 10.1562Z" fill="#727272"/>
</svg>
