<svg width="16" height="17" viewBox="0 0 16 17" fill="none" xmlns="http://www.w3.org/2000/svg">
<path d="M5.33203 8.63379H9.9987" stroke="#292D32" stroke-width="1.5" stroke-miterlimit="10" stroke-linecap="round" stroke-linejoin="round"/>
<path d="M5.33203 11.2998H8.25203" stroke="#292D32" stroke-width="1.5" stroke-miterlimit="10" stroke-linecap="round" stroke-linejoin="round"/>
<path d="M6.66536 4.49967H9.33203C10.6654 4.49967 10.6654 3.83301 10.6654 3.16634C10.6654 1.83301 9.9987 1.83301 9.33203 1.83301H6.66536C5.9987 1.83301 5.33203 1.83301 5.33203 3.16634C5.33203 4.49967 5.9987 4.49967 6.66536 4.49967Z" stroke="#292D32" stroke-width="1.5" stroke-miterlimit="10" stroke-linecap="round" stroke-linejoin="round"/>
<path d="M10.6667 3.17969C12.8867 3.29969 14 4.11969 14 7.16635V11.1664C14 13.833 13.3333 15.1664 10 15.1664H6C2.66667 15.1664 2 13.833 2 11.1664V7.16635C2 4.12635 3.11333 3.29969 5.33333 3.17969" stroke="#292D32" stroke-width="1.5" stroke-miterlimit="10" stroke-linecap="round" stroke-linejoin="round"/>
</svg>
