<svg width="20" height="20" viewBox="0 0 20 20" fill="none" xmlns="http://www.w3.org/2000/svg">
<path d="M10.0013 18.9587C5.05964 18.9587 1.04297 14.942 1.04297 10.0003C1.04297 5.05866 5.05964 1.04199 10.0013 1.04199C14.943 1.04199 18.9596 5.05866 18.9596 10.0003C18.9596 14.942 14.943 18.9587 10.0013 18.9587ZM10.0013 2.29199C5.7513 2.29199 2.29297 5.75033 2.29297 10.0003C2.29297 14.2503 5.7513 17.7087 10.0013 17.7087C14.2513 17.7087 17.7096 14.2503 17.7096 10.0003C17.7096 5.75033 14.2513 2.29199 10.0013 2.29199Z" fill="#292D32"/>
<path d="M13.0909 13.2755C12.9826 13.2755 12.8742 13.2505 12.7742 13.1838L10.1909 11.6421C9.54922 11.2588 9.07422 10.4171 9.07422 9.67546V6.25879C9.07422 5.91712 9.35755 5.63379 9.69922 5.63379C10.0409 5.63379 10.3242 5.91712 10.3242 6.25879V9.67546C10.3242 9.97546 10.5742 10.4171 10.8326 10.5671L13.4159 12.1088C13.7159 12.2838 13.8076 12.6671 13.6326 12.9671C13.5076 13.1671 13.2992 13.2755 13.0909 13.2755Z" fill="#292D32"/>
</svg>
