<svg width="24" height="25" viewBox="0 0 24 25" fill="none" xmlns="http://www.w3.org/2000/svg">
<g opacity="0.5">
<path d="M12 2.33337C6.49 2.33337 2 6.82337 2 12.3334C2 17.8434 6.49 22.3334 12 22.3334C17.51 22.3334 22 17.8434 22 12.3334C22 6.82337 17.51 2.33337 12 2.33337ZM15.36 14.6334C15.65 14.9234 15.65 15.4034 15.36 15.6934C15.21 15.8434 15.02 15.9134 14.83 15.9134C14.64 15.9134 14.45 15.8434 14.3 15.6934L12 13.3934L9.7 15.6934C9.55 15.8434 9.36 15.9134 9.17 15.9134C8.98 15.9134 8.79 15.8434 8.64 15.6934C8.35 15.4034 8.35 14.9234 8.64 14.6334L10.94 12.3334L8.64 10.0334C8.35 9.74337 8.35 9.26337 8.64 8.97337C8.93 8.68337 9.41 8.68337 9.7 8.97337L12 11.2734L14.3 8.97337C14.59 8.68337 15.07 8.68337 15.36 8.97337C15.65 9.26337 15.65 9.74337 15.36 10.0334L13.06 12.3334L15.36 14.6334Z" fill="#292D32"/>
</g>
</svg>
