<svg width="16" height="16" viewBox="0 0 16 16" fill="none" xmlns="http://www.w3.org/2000/svg">
<path d="M13.3333 12.6666V10.6666H4.66667C3.5621 10.6666 2.66667 11.5621 2.66667 12.6666M5.86667 14.6666H11.2C11.9467 14.6666 12.3201 14.6666 12.6053 14.5213C12.8562 14.3935 13.0602 14.1895 13.188 13.9386C13.3333 13.6534 13.3333 13.28 13.3333 12.5333V3.46665C13.3333 2.71991 13.3333 2.34654 13.188 2.06133C13.0602 1.81044 12.8562 1.60647 12.6053 1.47864C12.3201 1.33331 11.9467 1.33331 11.2 1.33331H5.86667C4.74656 1.33331 4.18651 1.33331 3.75868 1.5513C3.38236 1.74305 3.0764 2.04901 2.88465 2.42533C2.66667 2.85316 2.66667 3.41321 2.66667 4.53331V11.4666C2.66667 12.5868 2.66667 13.1468 2.88465 13.5746C3.0764 13.951 3.38236 14.2569 3.75868 14.4487C4.18651 14.6666 4.74656 14.6666 5.86667 14.6666Z" stroke="white" stroke-width="1.5" stroke-linecap="round" stroke-linejoin="round"/>
</svg>
