<svg width="20" height="20" viewBox="0 0 20 20" fill="none" xmlns="http://www.w3.org/2000/svg">
<path d="M3.524 15.314C3.54348 15.3961 3.57938 15.4735 3.62955 15.5414C3.67971 15.6093 3.74309 15.6664 3.81589 15.7092C3.88868 15.752 3.96937 15.7796 4.05312 15.7904C4.13686 15.8012 4.22192 15.7949 4.30318 15.772C8.0289 14.7433 11.9637 14.7429 15.6896 15.7709C15.7708 15.7938 15.8558 15.8 15.9396 15.7893C16.0233 15.7785 16.1039 15.7509 16.1767 15.7081C16.2495 15.6653 16.3128 15.6083 16.363 15.5404C16.4132 15.4725 16.4491 15.3952 16.4686 15.3131L18.4599 6.85085C18.4866 6.73756 18.4811 6.61908 18.444 6.50876C18.407 6.39843 18.3399 6.30063 18.2502 6.22639C18.1606 6.15214 18.0521 6.1044 17.9368 6.08852C17.8215 6.07265 17.704 6.08929 17.5977 6.13655L13.6458 7.89293C13.5031 7.95635 13.3419 7.96406 13.1938 7.91453C13.0457 7.86501 12.9215 7.76183 12.8456 7.62533L10.5447 3.48358C10.4905 3.38615 10.4113 3.30496 10.3153 3.24844C10.2192 3.19192 10.1098 3.16211 9.99832 3.16211C9.88686 3.16211 9.77743 3.19192 9.68137 3.24844C9.58531 3.30496 9.5061 3.38615 9.45197 3.48358L7.15101 7.62533C7.07517 7.76183 6.95098 7.865 6.80289 7.91453C6.65479 7.96406 6.49352 7.95635 6.35083 7.89293L2.39837 6.13629C2.29204 6.08903 2.17463 6.07239 2.05936 6.08825C1.94408 6.10411 1.83553 6.15183 1.74591 6.22604C1.65629 6.30025 1.58917 6.39801 1.5521 6.5083C1.51503 6.6186 1.50948 6.73705 1.53609 6.85033L3.524 15.314Z" stroke="white" stroke-width="1.5" stroke-linecap="round" stroke-linejoin="round"/>
<path d="M7.5 12.6311C9.16208 12.4563 10.8379 12.4563 12.5 12.6311" stroke="white" stroke-width="1.5" stroke-linecap="round" stroke-linejoin="round"/>
</svg>
