<svg width="32" height="32" viewBox="0 0 32 32" fill="none" xmlns="http://www.w3.org/2000/svg">
<path d="M5.64074 24.5021C5.67191 24.6335 5.72936 24.7573 5.80962 24.866C5.88988 24.9746 5.99129 25.0659 6.10776 25.1344C6.22423 25.2029 6.35334 25.247 6.48733 25.2643C6.62132 25.2816 6.75742 25.2715 6.88743 25.2348C12.8486 23.5889 19.1442 23.5883 25.1057 25.2331C25.2357 25.2698 25.3717 25.2798 25.5056 25.2625C25.6396 25.2453 25.7686 25.2011 25.8851 25.1327C26.0015 25.0643 26.1029 24.973 26.1832 24.8644C26.2634 24.7558 26.3209 24.6321 26.3521 24.5007L29.5382 10.9611C29.5808 10.7798 29.572 10.5902 29.5128 10.4137C29.4535 10.2372 29.3461 10.0807 29.2027 9.96193C29.0593 9.84314 28.8856 9.76674 28.7012 9.74135C28.5167 9.71595 28.3288 9.74256 28.1586 9.81819L21.8357 12.6284C21.6073 12.7299 21.3493 12.7422 21.1124 12.663C20.8754 12.5837 20.6767 12.4186 20.5554 12.2002L16.8738 5.57344C16.7872 5.41755 16.6605 5.28765 16.5068 5.19721C16.3531 5.10677 16.178 5.05908 15.9997 5.05908C15.8213 5.05908 15.6462 5.10677 15.4925 5.19721C15.3388 5.28765 15.2121 5.41755 15.1255 5.57344L11.444 12.2002C11.3226 12.4186 11.1239 12.5837 10.887 12.663C10.65 12.7422 10.392 12.7299 10.1637 12.6284L3.83973 9.81776C3.66961 9.74215 3.48175 9.71553 3.29731 9.74091C3.11288 9.76628 2.93919 9.84263 2.7958 9.96137C2.65241 10.0801 2.54501 10.2365 2.4857 10.413C2.42639 10.5895 2.41752 10.779 2.46009 10.9602L5.64074 24.5021Z" stroke="black" stroke-width="2.5" stroke-linecap="round" stroke-linejoin="round"/>
<path d="M12 20.2098C14.6593 19.9301 17.3407 19.9301 20 20.2098" stroke="black" stroke-width="2.5" stroke-linecap="round" stroke-linejoin="round"/>
</svg>
