<svg width="16" height="19" viewBox="0 0 16 19" fill="none" xmlns="http://www.w3.org/2000/svg">
<path d="M9.9974 1.39111V4.83323C9.9974 5.29994 9.9974 5.5333 10.0882 5.71156C10.1681 5.86836 10.2956 5.99584 10.4524 6.07574C10.6307 6.16656 10.864 6.16656 11.3307 6.16656H14.7728M9.9974 13.6665H4.9974M11.6641 10.3332H4.9974M14.9974 7.82336V13.8332C14.9974 15.2333 14.9974 15.9334 14.7249 16.4681C14.4852 16.9386 14.1028 17.321 13.6324 17.5607C13.0976 17.8332 12.3975 17.8332 10.9974 17.8332H5.66406C4.26393 17.8332 3.56387 17.8332 3.02909 17.5607C2.55868 17.321 2.17623 16.9386 1.93655 16.4681C1.66406 15.9334 1.66406 15.2333 1.66406 13.8332V5.1665C1.66406 3.76637 1.66406 3.06631 1.93655 2.53153C2.17623 2.06112 2.55868 1.67867 3.02909 1.43899C3.56387 1.1665 4.26393 1.1665 5.66406 1.1665H8.34054C8.95202 1.1665 9.25776 1.1665 9.54547 1.23558C9.80057 1.29682 10.0444 1.39783 10.2681 1.5349C10.5204 1.68951 10.7366 1.9057 11.169 2.33808L13.8258 4.99493C14.2582 5.42731 14.4744 5.6435 14.629 5.89579C14.7661 6.11947 14.8671 6.36333 14.9283 6.61842C14.9974 6.90614 14.9974 7.21188 14.9974 7.82336Z" stroke="black" stroke-width="1.5" stroke-linecap="round" stroke-linejoin="round"/>
</svg>
