<svg width="20" height="20" viewBox="0 0 20 20" fill="none" xmlns="http://www.w3.org/2000/svg">
<path d="M11.6654 1.89105V5.33317C11.6654 5.79988 11.6654 6.03324 11.7562 6.2115C11.8361 6.3683 11.9636 6.49578 12.1204 6.57568C12.2986 6.6665 12.532 6.6665 12.9987 6.6665H16.4408M16.6654 8.32336V14.3332C16.6654 15.7333 16.6654 16.4334 16.3929 16.9681C16.1532 17.4386 15.7707 17.821 15.3003 18.0607C14.7656 18.3332 14.0655 18.3332 12.6654 18.3332H7.33203C5.9319 18.3332 5.23183 18.3332 4.69705 18.0607C4.22665 17.821 3.8442 17.4386 3.60451 16.9681C3.33203 16.4334 3.33203 15.7333 3.33203 14.3332V5.6665C3.33203 4.26637 3.33203 3.56631 3.60451 3.03153C3.8442 2.56112 4.22665 2.17867 4.69705 1.93899C5.23183 1.6665 5.9319 1.6665 7.33203 1.6665H10.0085C10.62 1.6665 10.9257 1.6665 11.2134 1.73558C11.4685 1.79682 11.7124 1.89783 11.9361 2.0349C12.1884 2.18951 12.4046 2.4057 12.8369 2.83808L15.4938 5.49493C15.9262 5.92731 16.1424 6.1435 16.297 6.39579C16.434 6.61947 16.535 6.86333 16.5963 7.11842C16.6654 7.40614 16.6654 7.71188 16.6654 8.32336Z" stroke="#727272" stroke-width="2" stroke-linecap="round" stroke-linejoin="round"/>
</svg>
