<svg width="21" height="20" viewBox="0 0 21 20" fill="none" xmlns="http://www.w3.org/2000/svg">
<path d="M11.7669 1.89105V5.33317C11.7669 5.79988 11.7669 6.03324 11.8578 6.2115C11.9376 6.3683 12.0651 6.49578 12.2219 6.57568C12.4002 6.6665 12.6336 6.6665 13.1003 6.6665H16.5424M16.7669 8.32336V14.3332C16.7669 15.7333 16.7669 16.4334 16.4944 16.9681C16.2548 17.4386 15.8723 17.821 15.4019 18.0607C14.8671 18.3332 14.1671 18.3332 12.7669 18.3332H7.43359C6.03346 18.3332 5.3334 18.3332 4.79862 18.0607C4.32821 17.821 3.94576 17.4386 3.70608 16.9681C3.43359 16.4334 3.43359 15.7333 3.43359 14.3332V5.6665C3.43359 4.26637 3.43359 3.56631 3.70608 3.03153C3.94576 2.56112 4.32821 2.17867 4.79862 1.93899C5.3334 1.6665 6.03346 1.6665 7.43359 1.6665H10.1101C10.7215 1.6665 11.0273 1.6665 11.315 1.73558C11.5701 1.79682 11.814 1.89783 12.0376 2.0349C12.2899 2.18951 12.5061 2.4057 12.9385 2.83808L15.5954 5.49493C16.0277 5.92731 16.2439 6.1435 16.3985 6.39579C16.5356 6.61947 16.6366 6.86333 16.6979 7.11842C16.7669 7.40614 16.7669 7.71188 16.7669 8.32336Z" stroke="white" stroke-width="2" stroke-linecap="round" stroke-linejoin="round"/>
</svg>
