<svg width="20" height="21" viewBox="0 0 20 21" fill="none" xmlns="http://www.w3.org/2000/svg">
<g opacity="0.8">
<path d="M10.0007 5.49967C10.4609 5.49967 10.834 5.12658 10.834 4.66634C10.834 4.2061 10.4609 3.83301 10.0007 3.83301C9.54041 3.83301 9.16732 4.2061 9.16732 4.66634C9.16732 5.12658 9.54041 5.49967 10.0007 5.49967Z" stroke="black" stroke-width="2" stroke-linecap="round" stroke-linejoin="round"/>
<path d="M10.0007 11.333C10.4609 11.333 10.834 10.9599 10.834 10.4997C10.834 10.0394 10.4609 9.66634 10.0007 9.66634C9.54041 9.66634 9.16732 10.0394 9.16732 10.4997C9.16732 10.9599 9.54041 11.333 10.0007 11.333Z" stroke="black" stroke-width="2" stroke-linecap="round" stroke-linejoin="round"/>
<path d="M10.0007 17.1663C10.4609 17.1663 10.834 16.7932 10.834 16.333C10.834 15.8728 10.4609 15.4997 10.0007 15.4997C9.54041 15.4997 9.16732 15.8728 9.16732 16.333C9.16732 16.7932 9.54041 17.1663 10.0007 17.1663Z" stroke="black" stroke-width="2" stroke-linecap="round" stroke-linejoin="round"/>
<path d="M15.834 5.49967C16.2942 5.49967 16.6673 5.12658 16.6673 4.66634C16.6673 4.2061 16.2942 3.83301 15.834 3.83301C15.3737 3.83301 15.0007 4.2061 15.0007 4.66634C15.0007 5.12658 15.3737 5.49967 15.834 5.49967Z" stroke="black" stroke-width="2" stroke-linecap="round" stroke-linejoin="round"/>
<path d="M15.834 11.333C16.2942 11.333 16.6673 10.9599 16.6673 10.4997C16.6673 10.0394 16.2942 9.66634 15.834 9.66634C15.3737 9.66634 15.0007 10.0394 15.0007 10.4997C15.0007 10.9599 15.3737 11.333 15.834 11.333Z" stroke="black" stroke-width="2" stroke-linecap="round" stroke-linejoin="round"/>
<path d="M15.834 17.1663C16.2942 17.1663 16.6673 16.7932 16.6673 16.333C16.6673 15.8728 16.2942 15.4997 15.834 15.4997C15.3737 15.4997 15.0007 15.8728 15.0007 16.333C15.0007 16.7932 15.3737 17.1663 15.834 17.1663Z" stroke="black" stroke-width="2" stroke-linecap="round" stroke-linejoin="round"/>
<path d="M4.16732 5.49967C4.62755 5.49967 5.00065 5.12658 5.00065 4.66634C5.00065 4.2061 4.62755 3.83301 4.16732 3.83301C3.70708 3.83301 3.33398 4.2061 3.33398 4.66634C3.33398 5.12658 3.70708 5.49967 4.16732 5.49967Z" stroke="black" stroke-width="2" stroke-linecap="round" stroke-linejoin="round"/>
<path d="M4.16732 11.333C4.62755 11.333 5.00065 10.9599 5.00065 10.4997C5.00065 10.0394 4.62755 9.66634 4.16732 9.66634C3.70708 9.66634 3.33398 10.0394 3.33398 10.4997C3.33398 10.9599 3.70708 11.333 4.16732 11.333Z" stroke="black" stroke-width="2" stroke-linecap="round" stroke-linejoin="round"/>
<path d="M4.16732 17.1663C4.62755 17.1663 5.00065 16.7932 5.00065 16.333C5.00065 15.8728 4.62755 15.4997 4.16732 15.4997C3.70708 15.4997 3.33398 15.8728 3.33398 16.333C3.33398 16.7932 3.70708 17.1663 4.16732 17.1663Z" stroke="black" stroke-width="2" stroke-linecap="round" stroke-linejoin="round"/>
</g>
</svg>
