<svg width="188" height="33" viewBox="0 0 188 33" fill="none" xmlns="http://www.w3.org/2000/svg">
<g clip-path="url(#clip0_1468_37415)">
<path d="M59.1267 16.3528C59.235 16.3518 59.3377 16.306 59.4091 16.2268C59.4805 16.1477 59.5139 16.0427 59.5008 15.9383C59.4061 14.898 58.967 13.9155 58.2493 13.1382C57.4559 12.2877 56.3233 11.8625 54.8516 11.8625C54.198 11.8562 53.5501 11.9806 52.9481 12.2282C52.3792 12.4677 51.8601 12.8064 51.4166 13.2275C50.9794 13.6418 50.6215 14.1285 50.3599 14.6647C50.1658 15.0632 50.0303 15.4861 49.9573 15.9212C49.9409 16.0271 49.9724 16.1346 50.0437 16.2161C50.115 16.2977 50.2192 16.3452 50.3293 16.3465L59.1267 16.3528ZM61.6164 16.9907V17.4308C61.6163 17.597 61.6068 17.7631 61.588 17.9283H50.2702C50.1627 17.9282 50.0603 17.9727 49.9888 18.0508C49.9173 18.1288 49.8836 18.2327 49.8961 18.3365C49.9483 18.8625 50.0819 19.3778 50.2921 19.8652C50.5457 20.4581 50.9175 20.9964 51.386 21.4491C51.8551 21.9007 52.4082 22.2614 53.016 22.5121C54.5725 23.1413 56.3419 23.0289 57.8008 22.2081C58.3994 21.851 58.9264 21.3914 59.3564 20.8517C59.4169 20.775 59.5066 20.7252 59.6052 20.7132C59.7039 20.7012 59.8034 20.7281 59.8815 20.7879L60.8047 21.4916C60.8852 21.5526 60.9366 21.6428 60.9474 21.7414C60.9581 21.84 60.9271 21.9386 60.8616 22.0146C60.1701 22.8354 59.3004 23.4975 58.315 23.9536C57.2843 24.4073 56.1646 24.638 55.0332 24.6297C54.0321 24.6398 53.0391 24.4555 52.1124 24.0876C51.2439 23.7427 50.4575 23.2282 49.802 22.5759C49.1448 21.9154 48.6248 21.138 48.2705 20.2861C47.8941 19.3704 47.7081 18.3912 47.7235 17.4053C47.7132 16.4213 47.8981 15.4446 48.2683 14.5287C48.6111 13.6761 49.1242 12.8978 49.7779 12.2388C51.1076 10.9068 52.942 10.1642 54.8516 10.185C55.8563 10.1657 56.8541 10.3503 57.7811 10.7272C58.5868 11.0625 59.3085 11.5629 59.8968 12.1942C60.4672 12.8238 60.903 13.5574 61.1789 14.3522C61.4761 15.203 61.624 16.0964 61.6164 16.9949V16.9907ZM75.4524 17.4053C74.6079 17.4053 73.7576 17.4393 72.9014 17.5073C72.1134 17.5647 71.3338 17.703 70.5757 17.9198C69.9454 18.091 69.3624 18.3968 68.8692 18.8149C68.4263 19.2142 68.1863 19.7825 68.2128 20.369C68.1977 20.7974 68.2972 21.2223 68.5016 21.6022C68.6856 21.9286 68.9493 22.206 69.2696 22.4101C69.5985 22.6166 69.962 22.7656 70.3438 22.8502C70.7349 22.9376 71.1349 22.9818 71.5362 22.982C72.2003 22.9934 72.8595 22.868 73.4702 22.6142C74.0113 22.385 74.4949 22.0449 74.888 21.6171C75.2726 21.1919 75.5697 20.6989 75.7631 20.1649C75.9659 19.6086 76.0681 19.0224 76.065 18.4322V17.7709C76.065 17.569 75.8966 17.4053 75.6887 17.4053H75.4524ZM76.0585 15.3833C76.0585 14.1998 75.7361 13.3161 75.0914 12.7321C74.4468 12.1481 73.5103 11.8569 72.2822 11.8583C71.4742 11.8525 70.6731 12.0036 69.9259 12.3026C69.3543 12.5284 68.8239 12.8421 68.355 13.2317C68.1965 13.359 67.962 13.3381 67.8299 13.185L67.1736 12.4217C67.0414 12.2735 67.055 12.0499 67.2042 11.9178C67.8154 11.4188 68.5084 11.0228 69.2542 10.7463C70.2899 10.3607 71.3921 10.1716 72.501 10.1893C73.2278 10.1835 73.9512 10.2875 74.6451 10.4976C75.2855 10.6909 75.8803 11.0052 76.3954 11.4224C76.9068 11.8454 77.3097 12.3782 77.5725 12.9787C77.8687 13.6759 78.0125 14.4252 77.9947 15.1792V21.1961C77.9947 21.7234 78.0152 22.2712 78.056 22.8396C78.0822 23.218 78.1194 23.5582 78.1632 23.8601C78.182 23.9663 78.1514 24.0751 78.0795 24.1572C78.0077 24.2393 77.9021 24.2862 77.7913 24.2853H76.7148C76.5297 24.2874 76.3712 24.1569 76.3429 23.9791C76.3057 23.7346 76.2707 23.4753 76.2423 23.201C76.2029 22.8098 76.1832 22.4271 76.1832 22.055H76.1219C75.5783 22.8859 74.8252 23.568 73.9341 24.0366C73.0135 24.4596 72.0027 24.6644 70.9848 24.634C70.4184 24.6334 69.8544 24.562 69.3067 24.4214C68.7415 24.2782 68.2088 24.0337 67.7359 23.7006C67.2526 23.3551 66.8512 22.9128 66.5588 22.4037C66.2296 21.8072 66.0681 21.1369 66.0906 20.4605C66.0906 19.4002 66.3677 18.5611 66.922 17.9432C67.5194 17.2948 68.2859 16.8151 69.1405 16.5548C70.1736 16.2301 71.2445 16.0322 72.3282 15.9659C73.5257 15.8766 74.7691 15.8319 76.0585 15.8319V15.3833ZM84.9062 17.2288C84.9017 17.9287 85.0239 18.6238 85.2672 19.2826C85.4989 19.9096 85.8533 20.4872 86.3108 20.9835C86.7776 21.4824 87.3491 21.8783 87.9867 22.1443C88.7029 22.4373 89.4741 22.5821 90.2511 22.5695C90.9944 22.577 91.7324 22.4471 92.4258 22.1868C93.071 21.9445 93.6573 21.5745 94.1477 21.1004C94.6395 20.6191 95.0251 20.0455 95.281 19.4144C95.5601 18.7174 95.6983 17.9746 95.6879 17.2267C95.7043 15.1011 94.4237 13.168 92.4258 12.3026C91.742 12.0053 91.0002 11.8552 90.2511 11.8625C89.4747 11.8504 88.7047 12.0005 87.9932 12.3026C87.3566 12.5762 86.7858 12.976 86.3173 13.4762C85.8599 13.9725 85.5055 14.5501 85.2737 15.1771C85.0307 15.8359 84.9085 16.5311 84.9127 17.2309L84.9062 17.2288ZM84.2301 27.332C84.3008 27.259 84.3994 27.2177 84.5025 27.2177C84.6056 27.2177 84.7042 27.259 84.7749 27.332C85.3612 27.946 86.0582 28.4504 86.8315 28.8203C88.5943 29.6776 90.6433 29.7892 92.4937 29.1285C93.1485 28.8784 93.7332 28.4813 94.2002 27.9698C94.6394 27.4694 94.9638 26.8838 95.1519 26.2519C95.3571 25.5705 95.4588 24.8635 95.4538 24.1535V21.5767H95.3926C94.8374 22.4471 94.0319 23.1404 93.0756 23.5709C92.1328 24.0279 91.0947 24.2687 90.0411 24.2747C89.0134 24.2887 87.9927 24.1097 87.035 23.7474C86.1767 23.4192 85.396 22.9252 84.7399 22.2953C84.0942 21.664 83.5899 20.9097 83.2587 20.0799C82.5557 18.294 82.5557 16.3188 83.2587 14.5329C83.5973 13.6935 84.1003 12.926 84.7399 12.2729C85.3891 11.6165 86.1703 11.0969 87.035 10.7463C87.9876 10.3639 89.0105 10.1743 90.0411 10.1893C91.0898 10.1952 92.1229 10.436 93.0603 10.893C94.0191 11.3382 94.8263 12.0414 95.386 12.9192H95.4473V10.9058C95.4473 10.7038 95.6157 10.5401 95.8236 10.5401H97.1363C97.3441 10.5401 97.5126 10.7038 97.5126 10.9058V24.1599C97.5008 24.9657 97.3899 25.7672 97.1822 26.5475C96.9667 27.3945 96.5643 28.186 96.003 28.867C95.3685 29.6171 94.5684 30.2188 93.662 30.6274C92.676 31.098 91.3975 31.3333 89.8267 31.3333C88.5397 31.3332 87.2662 31.0794 86.0832 30.5871C85.0485 30.1686 84.102 29.5682 83.2915 28.816C83.1478 28.6738 83.1478 28.4459 83.2915 28.3036L84.2301 27.332ZM104.525 24.2747H103.225C103.017 24.2747 102.849 24.111 102.849 23.909V2.45456C102.849 2.25259 103.017 2.08887 103.225 2.08887H104.525C104.733 2.08887 104.901 2.25259 104.901 2.45456V23.9111C104.901 24.0092 104.86 24.1032 104.788 24.172C104.716 24.2407 104.619 24.2785 104.518 24.2768L104.525 24.2747ZM121.249 16.3528C121.357 16.3519 121.459 16.306 121.53 16.2267C121.602 16.1475 121.634 16.0425 121.621 15.9383C121.526 14.8985 121.087 13.9163 120.371 13.1382C119.575 12.2877 118.442 11.8625 116.974 11.8625C116.32 11.8562 115.672 11.9806 115.07 12.2282C113.928 12.7055 113.004 13.572 112.473 14.6647C112.278 15.0628 112.143 15.4859 112.071 15.9212C112.054 16.0271 112.086 16.1346 112.157 16.2161C112.228 16.2977 112.332 16.3452 112.443 16.3465L121.249 16.3528ZM123.738 16.9907V17.4308C123.738 17.597 123.727 17.7631 123.708 17.9283H112.39C112.283 17.9295 112.181 17.9747 112.109 18.0529C112.038 18.131 112.004 18.2348 112.016 18.3386C112.068 18.8646 112.202 19.3799 112.412 19.8673C112.666 20.4598 113.038 20.9979 113.506 21.4512C113.975 21.9023 114.528 22.263 115.136 22.5143C116.697 23.1384 118.468 23.0188 119.925 22.1911C120.523 21.834 121.049 21.3744 121.478 20.8347C121.539 20.7579 121.629 20.708 121.728 20.696C121.827 20.684 121.927 20.711 122.006 20.7709L122.927 21.4746C123.007 21.5357 123.058 21.6256 123.07 21.724C123.081 21.8225 123.05 21.9211 122.986 21.9976C122.293 22.8179 121.423 23.4799 120.437 23.9366C119.406 24.3905 118.287 24.6212 117.155 24.6127C116.156 24.6217 115.166 24.4374 114.241 24.0706C113.373 23.7246 112.587 23.2103 111.931 22.5589C111.273 21.8984 110.753 21.121 110.399 20.2691C110.02 19.3553 109.829 18.3778 109.839 17.3925C109.829 16.4085 110.014 15.4318 110.384 14.5159C110.728 13.6641 111.241 12.8862 111.893 12.2261C113.224 10.8946 115.059 10.1521 116.969 10.1723C117.974 10.1529 118.972 10.3376 119.899 10.7144C120.703 11.0503 121.424 11.5506 122.012 12.1814C122.583 12.811 123.02 13.5445 123.296 14.3394C123.593 15.1906 123.74 16.0837 123.734 16.9822L123.738 16.9907ZM134.17 24.2598H132.42C132.267 24.2602 132.129 24.1701 132.072 24.0323L126.602 11.027C126.555 10.9143 126.568 10.7861 126.638 10.685C126.708 10.584 126.825 10.5233 126.95 10.5231H128.427C128.583 10.5232 128.722 10.6172 128.777 10.7591L133.282 22.1635H133.343L137.872 10.774C137.927 10.633 138.067 10.5399 138.222 10.5401H139.611C139.737 10.5403 139.854 10.601 139.923 10.7021C139.993 10.8031 140.007 10.9313 139.959 11.044L134.525 24.0493C134.467 24.1871 134.33 24.2772 134.177 24.2768L134.17 24.2598ZM145.28 24.2598H143.978C143.77 24.2598 143.602 24.0961 143.602 23.8941V10.9058C143.602 10.7038 143.77 10.5401 143.978 10.5401H145.28C145.488 10.5401 145.656 10.7038 145.656 10.9058V23.9111C145.656 24.1106 145.492 24.2733 145.287 24.2768L145.28 24.2598ZM161.433 16.3358C161.542 16.3355 161.645 16.2898 161.716 16.2105C161.788 16.1312 161.821 16.0259 161.807 15.9212C161.712 14.881 161.273 13.8985 160.556 13.1212C159.761 12.2707 158.628 11.8455 157.158 11.8455C156.505 11.8389 155.858 11.9634 155.257 12.2112C154.687 12.4502 154.168 12.7889 153.725 13.2105C153.287 13.6241 152.928 14.1109 152.666 14.6477C152.472 15.0462 152.337 15.4691 152.264 15.9042C152.247 16.01 152.279 16.1176 152.35 16.1991C152.421 16.2807 152.526 16.3282 152.636 16.3295L161.433 16.3358ZM163.925 16.9737V17.4138C163.924 17.58 163.914 17.7461 163.894 17.9113H152.577C152.469 17.9124 152.367 17.9577 152.296 18.0359C152.225 18.114 152.191 18.2178 152.202 18.3216C152.255 18.8476 152.388 19.3629 152.598 19.8503C152.852 20.4432 153.224 20.9815 153.692 21.4342C154.161 21.8858 154.715 22.2465 155.322 22.4973C156.882 23.1213 158.653 23.0018 160.109 22.1741C160.708 21.8176 161.236 21.3579 161.665 20.8176C161.726 20.741 161.815 20.6911 161.914 20.6792C162.012 20.6672 162.112 20.6941 162.19 20.7539L163.113 21.4576C163.194 21.5186 163.245 21.6088 163.256 21.7074C163.267 21.806 163.236 21.9046 163.17 21.9806C162.484 22.8129 161.617 23.4868 160.63 23.9536C159.6 24.4075 158.48 24.6382 157.348 24.6297C156.349 24.6387 155.359 24.4544 154.434 24.0876C153.566 23.7427 152.779 23.2282 152.124 22.5759C151.466 21.9154 150.946 21.138 150.592 20.2861C150.212 19.3726 150.021 18.3949 150.032 17.4095C150.022 16.4255 150.207 15.4488 150.577 14.5329C150.92 13.6803 151.433 12.9021 152.087 12.2431C153.416 10.9111 155.251 10.1685 157.16 10.1893C158.165 10.1699 159.163 10.3546 160.09 10.7314C160.895 11.0667 161.617 11.5671 162.205 12.1985C162.776 12.8281 163.212 13.5616 163.487 14.3564C163.785 15.2073 163.933 16.1007 163.925 16.9992V16.9737ZM187.978 11.027L183.747 24.0323C183.698 24.1847 183.552 24.2882 183.388 24.2874H181.701C181.539 24.2878 181.395 24.1865 181.345 24.0366L177.643 13.1531H177.582L173.952 24.0238C173.902 24.1749 173.757 24.2771 173.593 24.2768H171.908C171.744 24.2775 171.599 24.174 171.55 24.0217L167.316 11.027C167.28 10.9158 167.3 10.7945 167.371 10.7004C167.442 10.6063 167.555 10.5507 167.675 10.5507H169.086C169.253 10.5513 169.399 10.6574 169.447 10.8122L172.779 21.7042H172.841L176.56 10.8016C176.611 10.6521 176.754 10.551 176.916 10.5507H178.367C178.529 10.5517 178.672 10.6525 178.724 10.8016L182.509 21.6936H182.57L185.874 10.8037C185.921 10.6481 186.068 10.541 186.235 10.5401H187.615C187.739 10.5375 187.855 10.5939 187.928 10.6911C188 10.7882 188.019 10.9138 187.978 11.027Z" fill="#00729E"/>
<path d="M89.8942 31.3333C88.5893 31.3362 87.2973 31.0849 86.0956 30.5944C85.0436 30.1731 84.0814 29.568 83.2575 28.8094C83.0542 28.6103 83.0542 28.2907 83.2575 28.0916L84.1941 27.1318C84.2967 27.0259 84.4411 26.967 84.5914 26.9697C84.7347 26.97 84.8712 27.0289 84.9669 27.1318C85.539 27.7273 86.2189 28.2173 86.9732 28.5779C87.9047 29.046 88.9398 29.29 89.9903 29.2894C90.8453 29.3067 91.6958 29.1637 92.4943 28.8684C93.1245 28.6282 93.6875 28.249 94.1382 27.7611C94.5601 27.2813 94.8725 26.7211 95.0551 26.1172C95.2552 25.456 95.3545 24.7703 95.3498 24.0816V21.9346C94.795 22.6656 94.0586 23.2504 93.2082 23.6354C92.2444 24.0994 91.1832 24.3443 90.106 24.3511C89.061 24.3636 88.0234 24.182 87.0496 23.8164C86.1739 23.4822 85.3772 22.9811 84.7071 22.3429C84.0503 21.702 83.5363 20.9384 83.1964 20.099C82.8326 19.2018 82.6496 18.2459 82.6572 17.2826C82.6512 16.3289 82.8342 15.383 83.1964 14.4956C83.5419 13.647 84.0541 12.8708 84.7049 12.2096C85.3677 11.5472 86.1642 11.0228 87.0452 10.6687C88.0141 10.2836 89.0538 10.0917 90.1016 10.1046C91.1723 10.1116 92.2269 10.3557 93.1842 10.8182C94.0401 11.2148 94.7805 11.81 95.3389 12.5506V10.9655C95.3389 10.8295 95.3951 10.6991 95.495 10.6031C95.595 10.5071 95.7305 10.4535 95.8716 10.454H97.1814C97.4744 10.454 97.7119 10.683 97.7119 10.9655V24.088C97.7042 24.8938 97.5964 25.6959 97.391 26.4771C97.171 27.3365 96.7599 28.1395 96.1859 28.8305C95.5392 29.5911 94.7228 30.2012 93.7976 30.6155C92.7868 31.087 91.477 31.3333 89.8942 31.3333ZM84.5696 27.2707C84.5079 27.2714 84.4491 27.2956 84.4059 27.338L83.478 28.2979C83.3948 28.3798 83.3948 28.5108 83.478 28.5926C84.2733 29.3247 85.2012 29.9097 86.2157 30.3187C87.3789 30.7925 88.6293 31.0352 89.892 31.0323C91.4202 31.0323 92.6908 30.8028 93.6513 30.3503C94.5336 29.9532 95.313 29.3714 95.9327 28.6473C96.4788 27.9906 96.8699 27.227 97.0788 26.4097C97.2779 25.6526 97.3827 24.8753 97.391 24.0943V10.9698C97.391 10.8535 97.2933 10.7593 97.1727 10.7593H95.8628C95.7423 10.7593 95.6445 10.8535 95.6445 10.9698V12.9632C95.6445 13.0457 95.5751 13.1126 95.4895 13.1126H95.4284C95.3745 13.1134 95.3241 13.0871 95.2952 13.0432C94.7546 12.1998 93.9762 11.5223 93.051 11.0897C92.1365 10.6478 91.1289 10.4144 90.106 10.4077C89.0986 10.3949 88.0991 10.579 87.1675 10.9487C86.3246 11.2866 85.5629 11.7881 84.9298 12.4222C84.3055 13.0547 83.8146 13.7982 83.4846 14.6114C83.1372 15.4633 82.9616 16.3714 82.9672 17.2868C82.9571 18.2136 83.1305 19.1338 83.478 19.998C83.8019 20.7994 84.2923 21.5286 84.9189 22.1409C85.5601 22.7492 86.3219 23.2268 87.1588 23.5449C88.0954 23.8975 89.094 24.072 90.0994 24.0585C91.1271 24.0508 92.1395 23.8176 93.0597 23.3765C93.9834 22.9593 94.7616 22.2923 95.2996 21.4567C95.3274 21.4112 95.378 21.3832 95.4328 21.3831H95.4939C95.5799 21.3842 95.6489 21.4517 95.6489 21.5346V24.0922C95.6538 24.8094 95.5501 25.5235 95.3411 26.2119C95.1476 26.8576 94.8134 27.4562 94.3609 27.9674C93.8794 28.4926 93.2756 28.9002 92.5991 29.1567C90.7107 29.8291 88.6178 29.717 86.8182 28.8473C86.0301 28.4697 85.3199 27.9568 84.7224 27.3338C84.6847 27.2931 84.6306 27.2701 84.574 27.2707H84.5696ZM71.0823 24.7089C70.5034 24.7056 69.9273 24.6299 69.3686 24.4837C68.7858 24.3372 68.2365 24.0874 67.7487 23.747C67.2496 23.3915 66.8345 22.9381 66.5305 22.4166C66.1899 21.8025 66.022 21.113 66.0437 20.4169C66.0437 19.3349 66.334 18.4614 66.9169 17.8257C67.5333 17.1658 68.3218 16.6774 69.2004 16.4111C70.2429 16.0866 71.323 15.8879 72.4162 15.8196C73.5667 15.7375 74.7696 15.6933 75.9943 15.6891V15.407C75.9943 14.283 75.6865 13.4368 75.0796 12.8811C74.4727 12.3254 73.5623 12.0559 72.3834 12.0559C71.5987 12.0483 70.8202 12.1914 70.0933 12.4769C69.5381 12.6954 69.0223 12.9974 68.5652 13.3715C68.4616 13.458 68.3262 13.5005 68.1897 13.4894C68.0467 13.4783 67.9141 13.4133 67.8207 13.3084L67.1658 12.5527C66.9798 12.3428 67.0011 12.0281 67.2138 11.8433C67.8367 11.3386 68.5429 10.938 69.3031 10.6582C70.3553 10.2691 71.4749 10.0777 72.6017 10.0941C73.3419 10.0896 74.0783 10.1954 74.7849 10.4077C75.4436 10.605 76.0556 10.9255 76.5859 11.3508C77.1149 11.7843 77.532 12.3305 77.8041 12.9463C78.1075 13.6561 78.2561 14.4185 78.2407 15.186V21.1431C78.2407 21.6651 78.2604 22.2103 78.2997 22.7597C78.3259 23.1281 78.363 23.4649 78.4067 23.7596C78.4296 23.9067 78.384 24.0561 78.2822 24.168C78.1812 24.2801 78.0346 24.3446 77.8805 24.3448H76.8064C76.5485 24.3458 76.3268 24.1684 76.2803 23.9238C76.2432 23.6775 76.2083 23.4165 76.1799 23.1449C76.1515 22.8734 76.1362 22.6292 76.1275 22.3766C75.5981 23.0911 74.9048 23.6782 74.1015 24.0922C73.1622 24.5228 72.1308 24.7341 71.091 24.7089H71.0823ZM72.3769 11.7654C73.6365 11.7654 74.6168 12.0707 75.287 12.6706C75.9572 13.2705 76.2999 14.1967 76.2999 15.407V15.828C76.3005 15.868 76.2845 15.9066 76.2553 15.9351C76.2262 15.9636 76.1864 15.9796 76.1449 15.9796C74.8744 15.9796 73.6256 16.0238 72.4336 16.1101C71.3657 16.1759 70.3104 16.3697 69.2921 16.6869C68.4664 16.9353 67.7252 17.3934 67.1461 18.013C66.62 18.594 66.3559 19.3981 66.3559 20.4064C66.3311 21.0493 66.4817 21.6873 66.7925 22.2566C67.0746 22.7409 67.4601 23.1621 67.9233 23.4923C68.3804 23.811 68.8949 24.0451 69.4406 24.1827C69.9733 24.3199 70.5221 24.3906 71.0736 24.3932C72.0629 24.4197 73.0448 24.2214 73.94 23.8143C74.8056 23.3616 75.5374 22.7039 76.0664 21.903C76.0956 21.8622 76.1437 21.8379 76.1952 21.8377H76.2737C76.3597 21.8377 76.4297 21.9043 76.4309 21.9872C76.4309 22.3535 76.4506 22.7281 76.4899 23.1049C76.5161 23.3723 76.551 23.6291 76.5881 23.869C76.6054 23.972 76.6983 24.0472 76.8064 24.0459H77.8805C77.9443 24.0459 78.005 24.0189 78.0464 23.9722C78.0878 23.9258 78.1061 23.8643 78.0966 23.8038C78.0508 23.5028 78.0159 23.1597 77.9875 22.7829C77.9482 22.2272 77.9285 21.6757 77.9285 21.1452V15.1881C77.945 14.4618 77.8052 13.7401 77.5181 13.0684C77.2648 12.4952 76.877 11.9864 76.3851 11.5823C75.8863 11.1824 75.3106 10.8812 74.691 10.6961C74.0139 10.4933 73.3085 10.3925 72.5996 10.3972C71.5124 10.3812 70.432 10.5655 69.4166 10.9403C68.6893 11.2079 68.0135 11.5907 67.4168 12.0728C67.334 12.1504 67.3283 12.2768 67.4037 12.3611L68.0587 13.1168C68.0967 13.1612 68.152 13.1886 68.2115 13.1926C68.2654 13.1969 68.3188 13.1802 68.36 13.1463C68.8411 12.7501 69.385 12.431 69.9711 12.2012C70.738 11.9031 71.5588 11.755 72.3856 11.7654H72.3769ZM157.267 24.7068C156.251 24.7155 155.242 24.5295 154.3 24.1595C153.414 23.8094 152.611 23.2887 151.941 22.6292C151.275 21.9595 150.748 21.1736 150.388 20.3137C150.002 19.391 149.808 18.4039 149.819 17.4089C149.809 16.4155 149.997 15.4296 150.371 14.504C150.723 13.6428 151.247 12.8562 151.912 12.1885C153.268 10.8406 155.139 10.0887 157.086 10.1088C158.111 10.0902 159.128 10.2781 160.073 10.6603C160.897 11.0002 161.635 11.5087 162.236 12.1506C162.819 12.7889 163.264 13.5323 163.546 14.3377C163.844 15.1964 163.992 16.0971 163.983 17.0026V17.4383C163.983 17.6086 163.972 17.7787 163.952 17.9477C163.944 18.0245 163.877 18.0828 163.797 18.0825H152.504C152.442 18.0826 152.383 18.1078 152.342 18.1519C152.3 18.1989 152.279 18.2605 152.285 18.3224C152.336 18.8295 152.465 19.3262 152.67 19.7959C152.913 20.3638 153.27 20.8802 153.72 21.3157C154.174 21.7523 154.711 22.1016 155.3 22.345C156.809 22.9453 158.522 22.8316 159.931 22.0377C160.511 21.6926 161.023 21.2499 161.441 20.7305C161.524 20.6224 161.648 20.5516 161.786 20.5348C161.929 20.518 162.074 20.5558 162.188 20.64L163.107 21.3368C163.222 21.4241 163.295 21.5524 163.31 21.6925C163.324 21.8295 163.28 21.966 163.188 22.0714C162.482 22.8996 161.596 23.568 160.592 24.029C159.547 24.4823 158.413 24.7135 157.267 24.7068ZM157.086 10.4098C155.223 10.392 153.434 11.1109 152.135 12.399C151.499 13.0392 150.998 13.7928 150.661 14.6177C150.301 15.5055 150.121 16.4515 150.129 17.4047C150.119 18.3599 150.305 19.3075 150.674 20.1938C151.019 21.0188 151.525 21.7726 152.163 22.4145C152.803 23.0447 153.57 23.5419 154.416 23.8754C155.317 24.2295 156.281 24.4083 157.254 24.4016C158.359 24.409 159.452 24.1857 160.459 23.747C161.421 23.3036 162.271 22.6619 162.948 21.8672C162.984 21.8241 163.001 21.7689 162.996 21.7136C162.989 21.6552 162.96 21.6016 162.913 21.5641L161.992 20.8695C161.945 20.8334 161.885 20.8175 161.826 20.8253C161.771 20.8315 161.721 20.8589 161.688 20.901C161.248 21.4502 160.709 21.918 160.097 22.2819C158.6 23.1298 156.778 23.2529 155.174 22.6145C154.549 22.355 153.98 21.9844 153.497 21.522C153.018 21.058 152.639 20.508 152.379 19.9033C152.164 19.4074 152.027 18.883 151.973 18.3477C151.958 18.2013 152.007 18.0554 152.109 17.9456C152.209 17.8385 152.352 17.7774 152.502 17.7772H163.653C163.653 17.6552 163.668 17.5415 163.668 17.4341V16.9984C163.671 16.1256 163.524 15.2585 163.232 14.4324C162.961 13.6644 162.536 12.9554 161.981 12.3464C161.41 11.7368 160.709 11.2542 159.926 10.9319C159.026 10.5705 158.059 10.3928 157.084 10.4098H157.086ZM117.163 24.7068C116.147 24.7155 115.138 24.5295 114.197 24.1595C113.311 23.8099 112.508 23.2891 111.839 22.6292C111.173 21.9596 110.645 21.1737 110.285 20.3137C109.899 19.3907 109.706 18.4038 109.715 17.4089C109.705 16.4153 109.893 15.4291 110.269 14.504C110.617 13.6434 111.136 12.8567 111.797 12.1885C113.154 10.84 115.025 10.0881 116.974 10.1088C117.998 10.0904 119.015 10.2783 119.96 10.6603C120.784 11.0008 121.522 11.5092 122.124 12.1506C122.705 12.7893 123.151 13.5326 123.433 14.3377C123.732 15.1964 123.879 16.0971 123.87 17.0026V17.4383C123.87 17.6086 123.86 17.7787 123.839 17.9477C123.832 18.0245 123.764 18.0828 123.684 18.0825H112.391C112.33 18.0832 112.273 18.1084 112.232 18.1519C112.187 18.1974 112.165 18.26 112.173 18.3224C112.224 18.8293 112.354 19.326 112.557 19.7959C112.801 20.3643 113.158 20.8808 113.609 21.3157C114.063 21.7523 114.599 22.1016 115.188 22.345C116.696 22.9453 118.409 22.8316 119.818 22.0377C120.399 21.6931 120.911 21.2502 121.329 20.7305C121.412 20.6224 121.537 20.5518 121.676 20.5348C121.818 20.5183 121.962 20.5561 122.076 20.64L122.995 21.3368C123.109 21.4241 123.183 21.5524 123.198 21.6925C123.212 21.8296 123.168 21.9666 123.075 22.0714C122.37 22.9001 121.484 23.5685 120.48 24.029C119.437 24.4814 118.305 24.7125 117.161 24.7068H117.163ZM116.984 10.4098C115.121 10.391 113.331 11.1101 112.033 12.399C111.396 13.0381 110.895 13.792 110.56 14.6177C110.198 15.5051 110.016 16.4512 110.025 17.4047C110.015 18.3599 110.201 19.3075 110.57 20.1938C110.916 21.0184 111.421 21.7721 112.059 22.4145C112.7 23.0447 113.467 23.5419 114.315 23.8754C115.215 24.23 116.18 24.4088 117.153 24.4016C118.257 24.4094 119.351 24.186 120.357 23.747C121.32 23.3042 122.17 22.6624 122.846 21.8672C122.883 21.8241 122.9 21.7689 122.894 21.7136C122.889 21.6547 122.859 21.6005 122.811 21.5641L121.89 20.8695C121.843 20.8334 121.783 20.8175 121.724 20.8253C121.67 20.8316 121.621 20.859 121.589 20.901C121.148 21.4502 120.608 21.918 119.995 22.2819C118.499 23.1298 116.677 23.2529 115.072 22.6145C114.447 22.3555 113.879 21.9848 113.398 21.522C112.918 21.0581 112.538 20.5082 112.278 19.9033C112.062 19.4074 111.925 18.883 111.872 18.3477C111.856 18.2013 111.905 18.0554 112.007 17.9456C112.107 17.8385 112.25 17.7774 112.4 17.7772H123.551C123.562 17.6552 123.567 17.5415 123.567 17.4341V16.9984C123.57 16.1256 123.422 15.2585 123.13 14.4324C122.866 13.6682 122.448 12.9616 121.901 12.3527C121.329 11.7435 120.628 11.2609 119.844 10.9382C118.939 10.572 117.964 10.3921 116.982 10.4098H116.984ZM55.1739 24.7068C54.1565 24.7155 53.1473 24.5295 52.2049 24.1595C51.3192 23.8093 50.5169 23.2886 49.8471 22.6292C49.1819 21.959 48.6545 21.1733 48.2927 20.3137C47.9075 19.3907 47.7139 18.4038 47.723 17.4089C47.7143 16.4154 47.9025 15.4294 48.2775 14.504C48.6299 13.6428 49.1535 12.8562 49.8188 12.1885C50.4769 11.5397 51.2619 11.0231 52.1285 10.6687C53.0343 10.299 54.0091 10.112 54.9927 10.1193C56.017 10.1001 57.0342 10.2872 57.9792 10.6687C58.8038 11.0086 59.542 11.5171 60.1427 12.1591C60.7252 12.7973 61.1704 13.5407 61.4526 14.3461C61.75 15.205 61.8975 16.1056 61.8892 17.011V17.4468C61.8881 17.617 61.8779 17.787 61.8586 17.9562C61.8507 18.0329 61.7836 18.0913 61.7036 18.0909H50.4213C50.3597 18.091 50.301 18.1163 50.2597 18.1604C50.2154 18.2062 50.1946 18.2687 50.203 18.3309C50.2533 18.8379 50.3828 19.3347 50.5872 19.8043C50.8308 20.3723 51.1876 20.8886 51.6373 21.3241C52.0917 21.7607 52.6281 22.1101 53.2179 22.3535C54.7281 22.9505 56.4409 22.8329 57.8483 22.0356C58.4289 21.6905 58.9406 21.2478 59.359 20.7284C59.4412 20.6203 59.5659 20.5495 59.7039 20.5327C59.8463 20.5146 59.9903 20.5525 60.1034 20.6379L61.0247 21.3347C61.1393 21.4217 61.2119 21.5503 61.2255 21.6904C61.2414 21.8276 61.1971 21.965 61.1033 22.0693C60.3979 22.898 59.5116 23.5664 58.5076 24.0269C57.4602 24.4826 56.323 24.7145 55.1739 24.7068ZM54.9927 10.4098C53.1294 10.391 51.3396 11.1101 50.0414 12.399C49.4046 13.0387 48.904 13.7924 48.5678 14.6177C48.2087 15.5057 48.0286 16.4516 48.0373 17.4047C48.0279 18.3599 48.2134 19.3075 48.5831 20.1938C48.9287 21.0206 49.4356 21.7759 50.0764 22.4187C50.716 23.0489 51.4828 23.5461 52.3293 23.8796C53.2335 24.2351 54.2019 24.4139 55.1783 24.4058C56.2794 24.4117 57.3688 24.1884 58.3722 23.7512C59.3345 23.3078 60.1841 22.6661 60.8609 21.8714C60.8974 21.8283 60.9146 21.7731 60.909 21.7178C60.9037 21.6586 60.8728 21.6043 60.8238 21.5683L59.9047 20.8737C59.8581 20.8376 59.7981 20.8217 59.7388 20.8295C59.6842 20.8357 59.6346 20.8631 59.6013 20.9052C59.1616 21.4544 58.6224 21.9222 58.0098 22.2861C56.5126 23.1341 54.6899 23.2572 53.0847 22.6187C52.4606 22.3587 51.8927 21.9881 51.4102 21.5262C50.9316 21.0622 50.5519 20.5122 50.2925 19.9075C50.0771 19.4114 49.9395 18.8871 49.8842 18.3519C49.8686 18.2051 49.9186 18.0589 50.0218 17.9499C50.1222 17.8428 50.265 17.7816 50.4147 17.7815H61.5661C61.577 17.6594 61.5814 17.5457 61.5814 17.4383V17.0026C61.5844 16.1299 61.4368 15.2627 61.1448 14.4367C60.8762 13.6698 60.4533 12.9617 59.9004 12.3527C59.3293 11.7431 58.6276 11.2604 57.8439 10.9382C56.9419 10.573 55.9709 10.3931 54.9927 10.4098ZM183.246 24.3511H181.563C181.334 24.3513 181.131 24.2095 181.059 23.9996L177.494 13.582L174.001 23.9953C173.93 24.2073 173.725 24.3509 173.494 24.3511H171.813C171.582 24.3513 171.377 24.2064 171.307 23.9932L167.083 11.1171C167.032 10.9615 167.061 10.7918 167.161 10.6603C167.262 10.5248 167.425 10.446 167.598 10.4498H169.006C169.241 10.4503 169.449 10.599 169.517 10.8161L172.728 21.2336L176.317 10.8014C176.389 10.5914 176.592 10.4497 176.822 10.4498H178.269C178.497 10.45 178.7 10.5906 178.773 10.7993L182.419 21.2357L185.602 10.8182C185.67 10.6132 185.862 10.47 186.084 10.4582H187.46C187.633 10.4544 187.796 10.5332 187.896 10.6687C187.997 10.8002 188.026 10.9699 187.975 11.1255L183.751 24.0017C183.678 24.2107 183.475 24.3516 183.246 24.3511ZM177.463 13.0347H177.524C177.592 13.0352 177.652 13.0777 177.673 13.14L181.356 23.9048C181.386 23.9952 181.476 24.0547 181.574 24.0501H183.246C183.345 24.0544 183.435 23.9939 183.465 23.9027L187.687 11.0266C187.708 10.962 187.696 10.8915 187.654 10.8371C187.613 10.7827 187.547 10.7507 187.477 10.7508H186.084C185.984 10.747 185.894 10.8095 185.866 10.9024L182.591 21.6946C182.571 21.7585 182.51 21.8021 182.441 21.802H182.373C182.306 21.8015 182.248 21.76 182.227 21.6988L178.444 10.9024C178.412 10.8129 178.323 10.7543 178.225 10.7593H176.778C176.679 10.7546 176.59 10.8141 176.56 10.9045L172.848 21.6988C172.827 21.7603 172.767 21.8018 172.7 21.802H172.639C172.57 21.8012 172.51 21.7577 172.49 21.6946L169.163 10.9108C169.135 10.8179 169.045 10.7554 168.945 10.7593H167.537C167.465 10.7558 167.396 10.7867 167.352 10.8418C167.309 10.8969 167.296 10.9691 167.318 11.035L171.541 23.9111C171.57 24.0024 171.66 24.0629 171.759 24.0585H173.44C173.539 24.0629 173.629 24.0024 173.658 23.9111L177.28 13.1484C177.303 13.0754 177.379 13.0303 177.457 13.0432L177.463 13.0347ZM134.146 24.3511H132.399C132.183 24.3514 131.989 24.2246 131.908 24.0311L126.45 11.155C126.385 10.9969 126.404 10.8175 126.503 10.6762C126.602 10.5349 126.767 10.4501 126.944 10.4498H128.417C128.637 10.4509 128.833 10.5811 128.913 10.7782L133.279 21.7641L137.683 10.7782C137.762 10.5807 137.959 10.4503 138.178 10.4498H139.564C139.742 10.4487 139.908 10.5333 140.006 10.6752C140.105 10.8171 140.124 10.9972 140.056 11.155L134.635 24.0311C134.554 24.2232 134.361 24.3494 134.146 24.3511ZM126.942 10.7508C126.868 10.75 126.799 10.7848 126.758 10.8435C126.718 10.9021 126.71 10.9764 126.739 11.0413L132.196 23.9175C132.23 23.9976 132.31 24.0502 132.399 24.0501H134.146C134.235 24.0502 134.316 23.9976 134.349 23.9175L139.772 11.0413C139.799 10.976 139.791 10.9017 139.75 10.8435C139.709 10.7854 139.641 10.7507 139.569 10.7508H138.183C138.092 10.7502 138.01 10.8039 137.977 10.8856L133.471 22.1703C133.448 22.229 133.39 22.2676 133.325 22.2672H133.253C133.188 22.267 133.13 22.2286 133.107 22.1703L128.62 10.894C128.588 10.8123 128.506 10.7586 128.415 10.7593L126.942 10.7508ZM145.232 24.3511H143.933C143.792 24.3511 143.657 24.2969 143.557 24.2005C143.457 24.1041 143.402 23.9735 143.402 23.8375V10.9698C143.402 10.8341 143.458 10.704 143.558 10.6081C143.657 10.5121 143.792 10.4582 143.933 10.4582H145.232C145.525 10.4582 145.763 10.6869 145.764 10.9698V23.8459C145.76 24.1263 145.523 24.3511 145.232 24.3511ZM143.933 10.7508C143.812 10.7508 143.715 10.8451 143.715 10.9613V23.8459C143.715 23.9621 143.812 24.0564 143.933 24.0564H145.232C145.352 24.0564 145.45 23.9621 145.45 23.8459V10.9698C145.45 10.8535 145.352 10.7593 145.232 10.7593L143.933 10.7508ZM104.552 24.3511H103.255C102.961 24.3511 102.722 24.1211 102.722 23.8375V2.60248C102.722 2.31882 102.961 2.08887 103.255 2.08887H104.552C104.846 2.08887 105.084 2.31882 105.084 2.60248V23.8459C105.08 24.1263 104.842 24.3511 104.552 24.3511ZM103.255 2.38146C103.134 2.38146 103.037 2.4757 103.037 2.59196V23.8459C103.037 23.9621 103.134 24.0564 103.255 24.0564H104.552C104.672 24.0564 104.77 23.9621 104.77 23.8459V2.60248C104.77 2.48623 104.672 2.39198 104.552 2.39198L103.255 2.38146ZM71.6324 23.0881C71.2202 23.0887 70.8092 23.0435 70.4077 22.9534C70.009 22.8663 69.6292 22.7124 69.2856 22.4987C68.9462 22.2859 68.6653 21.997 68.4669 21.6567C68.2518 21.2575 68.1465 20.8118 68.1613 20.3622C68.137 19.7378 68.3979 19.1345 68.8752 18.7119C69.3839 18.2823 69.9859 17.968 70.6369 17.792C71.4039 17.5725 72.1927 17.4314 72.9903 17.371C73.8483 17.3036 74.7085 17.2678 75.549 17.2678H75.7782C76.0715 17.269 76.3087 17.4986 76.3087 17.7815V18.4361C76.3111 19.0376 76.2062 19.635 75.9987 20.2022C75.7986 20.7487 75.4918 21.2531 75.0949 21.6883C74.687 22.1281 74.1859 22.4784 73.6256 22.7155C72.9956 22.9728 72.3166 23.0997 71.6324 23.0881ZM75.549 17.5689C74.7172 17.5689 73.8658 17.6025 73.0165 17.6699C72.2415 17.7255 71.4746 17.8595 70.7286 18.0698C70.1215 18.2331 69.5598 18.5251 69.0847 18.9245C68.6715 19.2892 68.4476 19.812 68.4735 20.3516C68.4591 20.7497 68.5508 21.1447 68.7398 21.4988C68.9122 21.8009 69.1588 22.0575 69.4581 22.2461C69.7691 22.444 70.1144 22.5866 70.4776 22.6671C70.8563 22.7512 71.2438 22.7936 71.6324 22.7934C72.2724 22.8044 72.9077 22.6853 73.4968 22.444C74.0169 22.2254 74.4822 21.9016 74.8613 21.4946C75.2313 21.0875 75.5173 20.6159 75.7039 20.1053C75.9001 19.5707 75.999 19.0074 75.9965 18.4403V17.7857C75.9965 17.6694 75.8988 17.5752 75.7782 17.5752L75.549 17.5689ZM90.3155 22.6671C89.5194 22.6834 88.7284 22.5401 87.9927 22.2461C87.3367 21.9742 86.7487 21.5701 86.268 21.061C85.7971 20.5556 85.433 19.9664 85.1961 19.3265C84.7012 17.9768 84.7012 16.5042 85.1961 15.1544C85.434 14.515 85.798 13.926 86.268 13.4199C86.7498 12.9098 87.3364 12.5019 87.9905 12.2222C88.7231 11.913 89.516 11.7594 90.3155 11.7718C91.0856 11.7651 91.8482 11.9188 92.5511 12.2222C94.5973 13.1101 95.909 15.0769 95.8978 17.2405C95.9084 17.9973 95.7683 18.749 95.4852 19.4549C95.2224 20.099 94.8265 20.6848 94.3216 21.1768C93.8168 21.66 93.214 22.0376 92.5511 22.2861C91.8372 22.5471 91.0789 22.6763 90.3155 22.6671ZM90.3155 12.0601C89.5614 12.0477 88.8132 12.1912 88.1215 12.4811C87.5056 12.7438 86.9532 13.1274 86.4995 13.6073C86.0566 14.0843 85.714 14.6398 85.4909 15.2429C85.0193 16.5257 85.0193 17.9258 85.4909 19.2086C85.7139 19.8117 86.0564 20.3672 86.4995 20.8442C86.9507 21.3221 87.5031 21.7012 88.1193 21.9556C88.8141 22.2372 89.562 22.3763 90.3155 22.364C91.0375 22.3702 91.7543 22.246 92.4288 21.9977C93.0533 21.7613 93.6204 21.403 94.0945 20.9452C94.5682 20.4816 94.9395 19.9302 95.1861 19.3244C95.4558 18.6535 95.5899 17.939 95.5812 17.2194C95.5845 15.8782 95.0512 14.5874 94.0923 13.6157C93.6141 13.1418 93.0475 12.759 92.4222 12.4874C91.7594 12.2032 91.041 12.0596 90.3155 12.0664V12.0601ZM161.35 16.5079H152.563C152.406 16.507 152.257 16.4396 152.156 16.3238C152.056 16.2079 152.013 16.0551 152.039 15.9059C152.113 15.461 152.252 15.0285 152.454 14.6219C153 13.5092 153.95 12.6274 155.124 12.1422C155.745 11.8878 156.413 11.7596 157.088 11.7654C158.595 11.7654 159.774 12.2075 160.594 13.0789C161.332 13.8724 161.784 14.8743 161.882 15.9354C161.901 16.084 161.852 16.233 161.747 16.3438C161.646 16.4532 161.502 16.5153 161.35 16.5143V16.5079ZM157.084 12.0601C156.453 12.0548 155.829 12.1744 155.248 12.4117C154.694 12.6388 154.189 12.9636 153.759 13.3694C153.335 13.7668 152.988 14.2345 152.735 14.7503C152.547 15.1318 152.416 15.5372 152.347 15.9543C152.336 16.0175 152.355 16.0819 152.397 16.1312C152.438 16.1779 152.499 16.2048 152.563 16.2048H161.35C161.411 16.2047 161.47 16.1795 161.511 16.1354C161.555 16.0882 161.575 16.0254 161.568 15.9628C161.475 14.9647 161.051 14.0221 160.359 13.2747C159.599 12.4748 158.499 12.0664 157.084 12.0664V12.0601ZM121.246 16.5143H112.459C112.303 16.514 112.156 16.4478 112.055 16.3332C111.952 16.2172 111.907 16.0631 111.933 15.9122C112.007 15.4673 112.146 15.0349 112.348 14.6282C112.616 14.0777 112.986 13.5785 113.439 13.1547C113.897 12.7231 114.435 12.3776 115.024 12.1359C115.645 11.8813 116.314 11.753 116.989 11.7591C118.493 11.7591 119.672 12.2012 120.495 13.0726C121.231 13.8668 121.682 14.8684 121.781 15.9291C121.799 16.0773 121.751 16.2259 121.648 16.3374C121.547 16.4496 121.4 16.5141 121.246 16.5143ZM116.98 12.0664C116.349 12.0609 115.723 12.1805 115.142 12.418C114.588 12.6456 114.084 12.9704 113.653 13.3757C113.23 13.7738 112.883 14.2414 112.629 14.7566C112.441 15.1381 112.31 15.5435 112.241 15.9607C112.229 16.0242 112.248 16.0894 112.293 16.1375C112.334 16.1842 112.395 16.2111 112.459 16.2111H121.246C121.307 16.2104 121.365 16.1852 121.405 16.1417C121.45 16.0953 121.471 16.0319 121.462 15.9691C121.37 14.9712 120.946 14.0286 120.255 13.281C119.499 12.4748 118.395 12.0664 116.982 12.0664H116.98ZM59.2585 16.5143H50.4715C50.316 16.5131 50.1687 16.4471 50.0676 16.3332C49.9652 16.2168 49.9206 16.063 49.9454 15.9122C50.0212 15.4678 50.1608 15.0356 50.3602 14.6282C50.6297 14.078 50.9994 13.579 51.4517 13.1547C51.9105 12.724 52.4478 12.3786 53.0367 12.1359C53.6577 11.8813 54.3266 11.753 55.0015 11.7591C56.5078 11.7591 57.6867 12.2012 58.5076 13.0726C59.244 13.8666 59.6957 14.8682 59.7956 15.9291C59.8129 16.0776 59.7637 16.2262 59.6602 16.3374C59.5594 16.4499 59.4127 16.5144 59.2585 16.5143ZM54.9927 12.0664C54.3622 12.0611 53.7373 12.1808 53.1567 12.418C52.6029 12.6451 52.098 12.9699 51.6678 13.3757C51.2429 13.7727 50.8961 14.2405 50.644 14.7566C50.4556 15.1381 50.3248 15.5435 50.2554 15.9607C50.2432 16.0239 50.2617 16.089 50.3056 16.1375C50.3471 16.1842 50.4077 16.2111 50.4715 16.2111H59.2585C59.3198 16.2115 59.3784 16.1871 59.4201 16.1438C59.4633 16.0957 59.4839 16.0324 59.4769 15.9691C59.3838 14.971 58.9597 14.0284 58.2674 13.281C57.499 12.4748 56.4074 12.0664 54.9927 12.0664Z" fill="#00729E"/>
<path fill-rule="evenodd" clip-rule="evenodd" d="M13.7383 1.08229e-10H19.9436C20.0242 -2.16197e-06 20.1014 0.0323895 20.1582 0.0899859C20.215 0.147582 20.2466 0.225619 20.246 0.306775V5.96211C20.246 6.13031 20.1106 6.26667 19.9436 6.26667H13.7383" fill="#8CCC4C"/>
<path fill-rule="evenodd" clip-rule="evenodd" d="M0.292834 2.82401e-08L15.1846 0V6.26667H0.292834C0.131106 6.26667 0 6.13031 0 5.96211V0.29566C0.00462617 0.130943 0.134387 -7.02244e-05 0.292834 2.82401e-08Z" fill="#0098C5"/>
<path fill-rule="evenodd" clip-rule="evenodd" d="M13.7383 25.7632H19.9436C20.0242 25.7632 20.1014 25.7956 20.1582 25.8532C20.215 25.9108 20.2466 25.9888 20.246 26.07V31.7253C20.246 31.8935 20.1106 32.0299 19.9436 32.0299H13.7383" fill="#8CCC4C"/>
<path fill-rule="evenodd" clip-rule="evenodd" d="M0.292834 25.7632H15.1846V32.0299H0.292834C0.131106 32.0299 0 31.8937 0 31.7257V26.0673C0.00116425 25.8998 0.131591 25.7644 0.292834 25.7632Z" fill="#0098C5"/>
<path fill-rule="evenodd" clip-rule="evenodd" d="M4.33789 12.5332L19.9435 12.5598C20.1102 12.5622 20.2444 12.697 20.2456 12.8631V18.4987C20.245 18.5795 20.2121 18.6568 20.1541 18.7133C20.0961 18.7699 20.0179 18.801 19.9368 18.7998L4.33789 18.7755" fill="#8CCC4C"/>
<path fill-rule="evenodd" clip-rule="evenodd" d="M0.285398 12.5332H7.23077V18.7999H0.285398C0.128249 18.7987 0.00113469 18.663 0 18.4953V12.8378C0 12.6696 0.127777 12.5332 0.285398 12.5332Z" fill="#0098C5"/>
<path fill-rule="evenodd" clip-rule="evenodd" d="M40.1952 0H33.4721C33.3661 0.00146839 33.2689 0.0584881 33.2175 0.149471L21.0076 31.6644C20.8944 31.8609 21.0424 32.0338 21.271 32.0296H27.8003C27.9098 32.0203 28.0067 31.9566 28.0571 31.8609L40.4585 0.439873C40.506 0.347807 40.5025 0.238369 40.4493 0.1494C40.396 0.0604307 40.3003 0.00414306 40.1952 0Z" fill="#8CCC4C"/>
<path fill-rule="evenodd" clip-rule="evenodd" d="M40.1952 0H33.4721C33.3661 0.00146839 33.2689 0.0584882 33.2175 0.149472L21.0076 31.6645C20.8944 31.8609 21.0424 32.0317 21.271 32.0296H27.8003C27.9095 32.0196 28.0061 31.9561 28.0571 31.8609L40.4585 0.439873C40.506 0.347808 40.5025 0.238369 40.4493 0.1494C40.396 0.0604308 40.3003 0.00414307 40.1952 0Z" fill="url(#paint0_linear_1468_37415)"/>
</g>
<defs>
<linearGradient id="paint0_linear_1468_37415" x1="997.727" y1="-0.854123" x2="997.727" y2="3202.11" gradientUnits="userSpaceOnUse">
<stop stop-color="#0098C5"/>
<stop offset="0.17" stop-color="#0098C5"/>
<stop offset="0.54" stop-color="#0098C5" stop-opacity="0.43"/>
<stop offset="0.84" stop-color="#0098C5" stop-opacity="0"/>
<stop offset="1" stop-color="#0098C5" stop-opacity="0"/>
</linearGradient>
<clipPath id="clip0_1468_37415">
<rect width="188" height="32.0296" fill="white"/>
</clipPath>
</defs>
</svg>
