<svg width="22" height="23" viewBox="0 0 22 23" fill="none" xmlns="http://www.w3.org/2000/svg">
<path d="M16.5013 9.66629L12.8347 5.99963M2.29297 20.208L5.39531 19.8633C5.77434 19.8211 5.96386 19.8001 6.14099 19.7427C6.29815 19.6919 6.44771 19.62 6.58562 19.529C6.74105 19.4265 6.87589 19.2917 7.14555 19.022L19.2513 6.91629C20.2638 5.90377 20.2638 4.26215 19.2513 3.24963C18.2388 2.2371 16.5972 2.2371 15.5847 3.24962L3.47889 15.3554C3.20922 15.625 3.07439 15.7599 2.97189 15.9153C2.88095 16.0532 2.80907 16.2028 2.75819 16.3599C2.70084 16.5371 2.67979 16.7266 2.63767 17.1056L2.29297 20.208Z" stroke="#222222" stroke-width="2" stroke-linecap="round" stroke-linejoin="round"/>
</svg>
