<svg width="16" height="16" viewBox="0 0 16 16" fill="none" xmlns="http://www.w3.org/2000/svg">
<path d="M5.33594 1.33398V3.33398" stroke="#292D32" stroke-width="1.5" stroke-miterlimit="10" stroke-linecap="round" stroke-linejoin="round"/>
<path d="M10.6641 1.33398V3.33398" stroke="#292D32" stroke-width="1.5" stroke-miterlimit="10" stroke-linecap="round" stroke-linejoin="round"/>
<path d="M10.6667 2.33398C12.8867 2.45398 14 3.30065 14 6.43398V10.554C14 13.3007 13.3333 14.674 10 14.674H6C2.66667 14.674 2 13.3007 2 10.554V6.43398C2 3.30065 3.11333 2.46065 5.33333 2.33398H10.6667Z" stroke="#292D32" stroke-width="1.5" stroke-miterlimit="10" stroke-linecap="round" stroke-linejoin="round"/>
<path d="M13.8307 11.7324H2.16406" stroke="#292D32" stroke-width="1.5" stroke-miterlimit="10" stroke-linecap="round" stroke-linejoin="round"/>
<path d="M8.0026 5.5C7.1826 5.5 6.48927 5.94667 6.48927 6.81333C6.48927 7.22667 6.6826 7.54 6.97594 7.74C6.56927 7.98 6.33594 8.36667 6.33594 8.82C6.33594 9.64667 6.96927 10.16 8.0026 10.16C9.02927 10.16 9.66927 9.64667 9.66927 8.82C9.66927 8.36667 9.43594 7.97333 9.0226 7.74C9.3226 7.53333 9.50927 7.22667 9.50927 6.81333C9.50927 5.94667 8.8226 5.5 8.0026 5.5ZM8.0026 7.39333C7.65594 7.39333 7.4026 7.18667 7.4026 6.86C7.4026 6.52667 7.65594 6.33333 8.0026 6.33333C8.34927 6.33333 8.6026 6.52667 8.6026 6.86C8.6026 7.18667 8.34927 7.39333 8.0026 7.39333ZM8.0026 9.33333C7.5626 9.33333 7.2426 9.11333 7.2426 8.71333C7.2426 8.31333 7.5626 8.1 8.0026 8.1C8.4426 8.1 8.7626 8.32 8.7626 8.71333C8.7626 9.11333 8.4426 9.33333 8.0026 9.33333Z" fill="#292D32"/>
</svg>
