<svg width="14" height="14" viewBox="0 0 14 14" fill="none" xmlns="http://www.w3.org/2000/svg">
<path d="M1.75781 1.46729H12.4973C12.5941 1.46729 12.6889 1.49542 12.7701 1.54828C12.8513 1.60113 12.9153 1.67642 12.9545 1.76501C12.9937 1.85359 13.0063 1.95165 12.9908 2.04727C12.9753 2.14289 12.9324 2.23195 12.8672 2.30362L8.75757 6.82425C8.6739 6.91629 8.62754 7.03621 8.62754 7.16059V10.6997C8.62754 10.782 8.60722 10.863 8.56838 10.9356C8.52953 11.0082 8.47338 11.0701 8.40489 11.1157L6.40489 12.4491C6.32959 12.4993 6.24207 12.5281 6.15168 12.5324C6.06129 12.5368 5.9714 12.5166 5.89161 12.4739C5.81182 12.4312 5.74511 12.3676 5.69861 12.29C5.6521 12.2123 5.62754 12.1235 5.62754 12.033V7.16059C5.62754 7.03621 5.58118 6.91629 5.49751 6.82425L1.38784 2.30362C1.32268 2.23195 1.27975 2.14289 1.26425 2.04727C1.24876 1.95165 1.26137 1.85359 1.30056 1.76501C1.33974 1.67642 1.40382 1.60113 1.48499 1.54828C1.56617 1.49542 1.66095 1.46729 1.75781 1.46729Z" stroke="black" stroke-width="1.5" stroke-linecap="round" stroke-linejoin="round"/>
</svg>
