<svg width="16" height="17" viewBox="0 0 16 17" fill="none" xmlns="http://www.w3.org/2000/svg">
<path d="M2.63086 3.5H13.3703C13.4672 3.5 13.562 3.52814 13.6431 3.58099C13.7243 3.63384 13.7884 3.70914 13.8276 3.79772C13.8668 3.88631 13.8794 3.98437 13.8639 4.07999C13.8484 4.1756 13.8054 4.26466 13.7403 4.33634L9.63061 8.85697C9.54694 8.949 9.50058 9.06892 9.50058 9.1933V12.7324C9.50058 12.8147 9.48026 12.8958 9.44142 12.9683C9.40258 13.0409 9.34642 13.1028 9.27793 13.1484L7.27793 14.4818C7.20263 14.532 7.11512 14.5608 7.02473 14.5652C6.93433 14.5695 6.84445 14.5493 6.76466 14.5066C6.68486 14.4639 6.61816 14.4003 6.57165 14.3227C6.52515 14.245 6.50058 14.1562 6.50058 14.0657V9.1933C6.50058 9.06892 6.45422 8.949 6.37055 8.85697L2.26089 4.33634C2.19573 4.26466 2.15279 4.1756 2.1373 4.07999C2.1218 3.98437 2.13442 3.88631 2.1736 3.79772C2.21279 3.70914 2.27686 3.63384 2.35804 3.58099C2.43921 3.52814 2.53399 3.5 2.63086 3.5V3.5Z" stroke="black" stroke-width="1.5" stroke-linecap="round" stroke-linejoin="round"/>
</svg>
