<svg width="24" height="24" viewBox="0 0 24 24" fill="none" xmlns="http://www.w3.org/2000/svg">
<path d="M4.5737 11.9998C4.5737 10.4323 5.84786 9.15817 7.41536 9.15817H11.082V7.4165H7.41536C4.88536 7.4165 2.83203 9.46984 2.83203 11.9998C2.83203 14.5298 4.88536 16.5832 7.41536 16.5832H11.082V14.8415H7.41536C5.84786 14.8415 4.5737 13.5673 4.5737 11.9998ZM8.33203 12.9165H15.6654V11.0832H8.33203V12.9165ZM16.582 7.4165H12.9154V9.15817H16.582C18.1495 9.15817 19.4237 10.4323 19.4237 11.9998C19.4237 13.5673 18.1495 14.8415 16.582 14.8415H12.9154V16.5832H16.582C19.112 16.5832 21.1654 14.5298 21.1654 11.9998C21.1654 9.46984 19.112 7.4165 16.582 7.4165Z" fill="black" fill-opacity="0.54"/>
</svg>
