<svg width="24" height="24" viewBox="0 0 24 24" fill="none" xmlns="http://www.w3.org/2000/svg">
<path d="M16.1263 6.49984V17.0415C16.1263 19.0673 14.4855 20.7082 12.4596 20.7082C10.4338 20.7082 8.79297 19.0673 8.79297 17.0415V5.58317C8.79297 4.31817 9.81964 3.2915 11.0846 3.2915C12.3496 3.2915 13.3763 4.31817 13.3763 5.58317V15.2082C13.3763 15.7123 12.9638 16.1248 12.4596 16.1248C11.9555 16.1248 11.543 15.7123 11.543 15.2082V6.49984H10.168V15.2082C10.168 16.4732 11.1946 17.4998 12.4596 17.4998C13.7246 17.4998 14.7513 16.4732 14.7513 15.2082V5.58317C14.7513 3.55734 13.1105 1.9165 11.0846 1.9165C9.0588 1.9165 7.41797 3.55734 7.41797 5.58317V17.0415C7.41797 19.8282 9.67297 22.0832 12.4596 22.0832C15.2463 22.0832 17.5013 19.8282 17.5013 17.0415V6.49984H16.1263Z" fill="black" fill-opacity="0.54"/>
</svg>
