<svg width="24" height="24" viewBox="0 0 24 24" fill="none" xmlns="http://www.w3.org/2000/svg">
<path d="M14.1444 3.2915C14.7952 3.29158 15.4004 3.63966 15.7304 4.19873L21.5419 14.1997C21.8719 14.768 21.8805 15.4644 21.5507 16.0327L19.3876 19.7915C19.0668 20.3598 18.4617 20.7085 17.8017 20.7085H11.9989L11.9901 20.6753V20.7085H6.18741C5.52741 20.7085 4.92231 20.3598 4.60147 19.7915L2.43839 16.0327C2.10854 15.4644 2.11722 14.768 2.44718 14.1997L8.2587 4.19873C8.58867 3.63966 9.19391 3.29158 9.84464 3.2915H14.1444ZM11.9901 5.12451H9.84464L4.03311 15.1255L6.18741 18.8745H17.8017L19.956 15.1255L14.1444 5.12451H11.9989L11.9901 5.09229V5.12451ZM12.8153 8.104L17.0136 15.4194L16.3446 16.5835H7.64444L6.9755 15.4194L11.1737 8.104H12.8153ZM11.9901 10.3403L9.47843 14.7495H14.5107L11.9989 10.3403L11.9901 10.3003V10.3403Z" fill="black" fill-opacity="0.54"/>
</svg>
