<svg width="24" height="24" viewBox="0 0 24 24" fill="none" xmlns="http://www.w3.org/2000/svg">
<path d="M14.5 13.4999L7.4375 20.5019H4V17.0644L11.0625 10.0624L14.5 13.4999ZM12.4697 3.96967C12.7626 3.67678 13.2374 3.67678 13.5303 3.96967L15.3213 5.76069L16.7969 4.2685C17.1544 3.911 17.7314 3.911 18.0889 4.2685L20.2344 6.41303C20.5918 6.77054 20.5918 7.34853 20.2344 7.706L15.4805 12.5195L12.043 9.08197L14.2676 6.82807L13 5.56049L8.53027 10.0302C8.23738 10.3231 7.76262 10.3231 7.46973 10.0302C7.17683 9.73732 7.17683 9.26256 7.46973 8.96967L12.4697 3.96967Z" fill="black" fill-opacity="0.54"/>
</svg>
