<svg width="24" height="24" viewBox="0 0 24 24" fill="none" xmlns="http://www.w3.org/2000/svg">
<path d="M11.9895 2.8335C6.92953 2.8335 2.83203 6.94016 2.83203 12.0002C2.83203 17.0602 6.92953 21.1668 11.9895 21.1668C17.0587 21.1668 21.1654 17.0602 21.1654 12.0002C21.1654 6.94016 17.0587 2.8335 11.9895 2.8335ZM11.9987 19.3335C7.94703 19.3335 4.66536 16.0518 4.66536 12.0002C4.66536 7.9485 7.94703 4.66683 11.9987 4.66683C16.0504 4.66683 19.332 7.9485 19.332 12.0002C19.332 16.0518 16.0504 19.3335 11.9987 19.3335ZM15.207 11.0835C15.9679 11.0835 16.582 10.4693 16.582 9.7085C16.582 8.94766 15.9679 8.3335 15.207 8.3335C14.4462 8.3335 13.832 8.94766 13.832 9.7085C13.832 10.4693 14.4462 11.0835 15.207 11.0835ZM8.79036 11.0835C9.5512 11.0835 10.1654 10.4693 10.1654 9.7085C10.1654 8.94766 9.5512 8.3335 8.79036 8.3335C8.02953 8.3335 7.41536 8.94766 7.41536 9.7085C7.41536 10.4693 8.02953 11.0835 8.79036 11.0835ZM11.9987 17.0418C14.1345 17.0418 15.9495 15.7035 16.6829 13.8335H7.31453C8.04786 15.7035 9.86286 17.0418 11.9987 17.0418Z" fill="black" fill-opacity="0.54"/>
</svg>
