<svg width="28" height="28" viewBox="0 0 28 28" fill="none" xmlns="http://www.w3.org/2000/svg">
<path d="M22.2842 8.22503C21.9358 7.87543 21.5219 7.59804 21.066 7.40877C20.6102 7.2195 20.1215 7.12207 19.628 7.12207C19.1344 7.12207 18.6457 7.2195 18.1899 7.40877C17.7341 7.59804 17.3201 7.87543 16.9717 8.22503L17.8592 9.11253C18.0919 8.87984 18.3681 8.69526 18.6722 8.56934C18.9762 8.44341 19.302 8.37859 19.6311 8.37859C19.9602 8.37859 20.286 8.44341 20.59 8.56934C20.894 8.69526 21.1703 8.87984 21.403 9.11253C21.6357 9.34521 21.8202 9.62145 21.9462 9.92547C22.0721 10.2295 22.1369 10.5553 22.1369 10.8844C22.1369 11.2135 22.0721 11.5393 21.9462 11.8433C21.8202 12.1474 21.6357 12.4236 21.403 12.6563L16.403 17.6563C15.9339 18.1262 15.2973 18.3905 14.6333 18.3911C13.9693 18.3917 13.3323 18.1285 12.8623 17.6594C12.3924 17.1903 12.1281 16.5537 12.1275 15.8897C12.1269 15.2257 12.3901 14.5887 12.8592 14.1188L13.7405 13.2313L12.8592 12.3438L11.9717 13.2313C11.6221 13.5797 11.3447 13.9936 11.1555 14.4495C10.9662 14.9053 10.8688 15.394 10.8688 15.8875C10.8688 16.3811 10.9662 16.8698 11.1555 17.3256C11.3447 17.7814 11.6221 18.1954 11.9717 18.5438C12.6789 19.2419 13.6343 19.6308 14.628 19.625C15.1234 19.6271 15.6144 19.5309 16.0724 19.3421C16.5305 19.1533 16.9466 18.8756 17.2967 18.525L22.2967 13.525C22.9973 12.8202 23.3895 11.8662 23.3872 10.8724C23.3848 9.87869 22.9881 8.9265 22.2842 8.22503Z" fill="#212529"/>
<path d="M6.62172 19.5125C6.38834 19.2802 6.20315 19.0041 6.07679 18.7C5.95042 18.396 5.88537 18.0699 5.88537 17.7407C5.88537 17.4114 5.95042 17.0853 6.07679 16.7813C6.20315 16.4772 6.38834 16.2011 6.62172 15.9688L11.6217 10.9688C11.854 10.7354 12.1301 10.5502 12.4342 10.4238C12.7383 10.2975 13.0643 10.2324 13.3936 10.2324C13.7229 10.2324 14.0489 10.2975 14.353 10.4238C14.6571 10.5502 14.9332 10.7354 15.1655 10.9688C15.3974 11.2029 15.5799 11.4812 15.7023 11.7872C15.8247 12.0931 15.8844 12.4206 15.878 12.75C15.8799 13.0805 15.8162 13.4081 15.6907 13.7139C15.5652 14.0196 15.3803 14.2974 15.1467 14.5313L13.8217 15.875L14.7092 16.7625L16.0342 15.4375C16.7395 14.7322 17.1358 13.7756 17.1358 12.7782C17.1358 11.7807 16.7395 10.8241 16.0342 10.1188C15.3289 9.41347 14.3723 9.01723 13.3748 9.01723C12.3774 9.01723 11.4208 9.41347 10.7155 10.1188L5.71547 15.1188C5.36493 15.4673 5.08675 15.8816 4.89692 16.338C4.7071 16.7944 4.60938 17.2839 4.60938 17.7782C4.60938 18.2725 4.7071 18.7619 4.89692 19.2183C5.08675 19.6747 5.36493 20.089 5.71547 20.4375C6.42724 21.1303 7.38478 21.5124 8.37797 21.5C9.37991 21.501 10.3415 21.1055 11.053 20.4L10.1655 19.5125C9.93318 19.7459 9.65706 19.9311 9.35299 20.0575C9.04892 20.1838 8.72288 20.2489 8.3936 20.2489C8.06431 20.2489 7.73827 20.1838 7.4342 20.0575C7.13013 19.9311 6.85402 19.7459 6.62172 19.5125Z" fill="#212529"/>
</svg>
