<svg width="24" height="24" viewBox="0 0 24 24" fill="none" xmlns="http://www.w3.org/2000/svg">
<path d="M14.2904 14.0168L16.9487 15.5752L16.2154 16.7668L12.9154 14.7502V10.1668H14.2904V14.0168ZM21.1654 13.8335C21.1654 17.876 17.8745 21.1668 13.832 21.1668C11.9804 21.1668 10.2937 20.4702 9.0012 19.3335H4.66536C3.6112 19.3335 2.83203 18.5543 2.83203 17.5002V9.25016C2.83203 8.2235 3.64786 7.4535 4.66536 7.41683V6.9585C4.66536 4.676 6.50786 2.8335 8.79036 2.8335C10.9354 2.8335 12.677 4.47433 12.8787 6.5735C13.1904 6.52766 13.5112 6.50016 13.832 6.50016C17.8745 6.50016 21.1654 9.791 21.1654 13.8335ZM6.4987 7.41683H11.082V6.7385C10.972 5.57433 9.98203 4.66683 8.79036 4.66683C7.52536 4.66683 6.4987 5.6935 6.4987 6.9585V7.41683ZM19.332 13.8335C19.332 10.7993 16.8662 8.3335 13.832 8.3335C10.7979 8.3335 8.33203 10.7993 8.33203 13.8335C8.33203 16.8677 10.7979 19.3335 13.832 19.3335C16.8662 19.3335 19.332 16.8677 19.332 13.8335Z" fill="black" fill-opacity="0.54"/>
</svg>
