<svg width="14" height="14" viewBox="0 0 14 14" fill="none" xmlns="http://www.w3.org/2000/svg">
<path d="M7.00521 1.16602C3.79104 1.16602 1.17188 3.78518 1.17188 6.99935C1.17188 10.2135 3.79104 12.8327 7.00521 12.8327C10.2194 12.8327 12.8385 10.2135 12.8385 6.99935C12.8385 3.78518 10.2194 1.16602 7.00521 1.16602ZM6.56771 4.66602C6.56771 4.42685 6.76604 4.22852 7.00521 4.22852C7.24437 4.22852 7.44271 4.42685 7.44271 4.66602V7.58268C7.44271 7.82185 7.24437 8.02018 7.00521 8.02018C6.76604 8.02018 6.56771 7.82185 6.56771 7.58268V4.66602ZM7.54187 9.55435C7.51271 9.63018 7.47187 9.68851 7.41937 9.74685C7.36104 9.79935 7.29687 9.84018 7.22687 9.86935C7.15687 9.89852 7.08104 9.91602 7.00521 9.91602C6.92937 9.91602 6.85354 9.89852 6.78354 9.86935C6.71354 9.84018 6.64937 9.79935 6.59104 9.74685C6.53854 9.68851 6.49771 9.63018 6.46854 9.55435C6.43937 9.48435 6.42187 9.40852 6.42187 9.33268C6.42187 9.25685 6.43937 9.18102 6.46854 9.11102C6.49771 9.04102 6.53854 8.97685 6.59104 8.91852C6.64937 8.86602 6.71354 8.82518 6.78354 8.79602C6.92354 8.73768 7.08687 8.73768 7.22687 8.79602C7.29687 8.82518 7.36104 8.86602 7.41937 8.91852C7.47187 8.97685 7.51271 9.04102 7.54187 9.11102C7.57104 9.18102 7.58854 9.25685 7.58854 9.33268C7.58854 9.40852 7.57104 9.48435 7.54187 9.55435Z" fill="#EB0303"/>
</svg>
