<svg width="16" height="16" viewBox="0 0 16 16" fill="none" xmlns="http://www.w3.org/2000/svg">
<path d="M10.4209 5.08756C10.1569 4.82355 10.0249 4.69154 9.97544 4.53932C9.93193 4.40543 9.93193 4.2612 9.97544 4.1273C10.0249 3.97508 10.1569 3.84308 10.4209 3.57907L12.3132 1.68682C11.811 1.45973 11.2536 1.33331 10.6667 1.33331C8.45753 1.33331 6.66667 3.12417 6.66667 5.33331C6.66667 5.66067 6.70599 5.97885 6.78018 6.28337C6.85962 6.60947 6.89934 6.77252 6.89228 6.87553C6.8849 6.98337 6.86882 7.04075 6.81909 7.13672C6.77159 7.22839 6.68057 7.31941 6.49855 7.50143L2.33333 11.6666C1.78105 12.2189 1.78105 13.1144 2.33333 13.6666C2.88562 14.2189 3.78105 14.2189 4.33333 13.6666L8.49855 9.50143C8.68057 9.31941 8.77159 9.22839 8.86326 9.18089C8.95923 9.13116 9.01661 9.11508 9.12445 9.1077C9.22746 9.10065 9.39051 9.14037 9.71661 9.2198C10.0211 9.29399 10.3393 9.33331 10.6667 9.33331C12.8758 9.33331 14.6667 7.54245 14.6667 5.33331C14.6667 4.74637 14.5403 4.18896 14.3132 3.68682L12.4209 5.57907C12.1569 5.84308 12.0249 5.97508 11.8727 6.02454C11.7388 6.06805 11.5946 6.06805 11.4607 6.02454C11.3084 5.97508 11.1764 5.84308 10.9124 5.57907L10.4209 5.08756Z" stroke="white" stroke-width="1.5" stroke-linecap="round" stroke-linejoin="round"/>
</svg>
