<svg width="25" height="25" viewBox="0 0 25 25" fill="none" xmlns="http://www.w3.org/2000/svg">
<path d="M15.9139 12.4999C15.9139 14.4799 14.3139 16.0799 12.3339 16.0799C10.3539 16.0799 8.75391 14.4799 8.75391 12.4999C8.75391 10.5199 10.3539 8.91992 12.3339 8.91992C14.3139 8.91992 15.9139 10.5199 15.9139 12.4999Z" stroke="#222222" stroke-width="1.5" stroke-linecap="round" stroke-linejoin="round"/>
<path d="M12.3338 20.7697C15.8638 20.7697 19.1538 18.6897 21.4438 15.0897C22.3438 13.6797 22.3438 11.3097 21.4438 9.89973C19.1538 6.29973 15.8638 4.21973 12.3338 4.21973C8.80383 4.21973 5.51383 6.29973 3.22383 9.89973C2.32383 11.3097 2.32383 13.6797 3.22383 15.0897C5.51383 18.6897 8.80383 20.7697 12.3338 20.7697Z" stroke="#222222" stroke-width="1.5" stroke-linecap="round" stroke-linejoin="round"/>
</svg>
