<svg width="25" height="25" viewBox="0 0 25 25" fill="none" xmlns="http://www.w3.org/2000/svg">
<path d="M2.60156 15.4757L12.2438 20.2968C12.375 20.3624 12.4406 20.3952 12.5094 20.4081C12.5703 20.4195 12.6328 20.4195 12.6938 20.4081C12.7626 20.3952 12.8282 20.3624 12.9593 20.2968L22.6016 15.4757M2.60156 10.4757L12.2438 5.65454C12.375 5.58895 12.4406 5.55615 12.5094 5.54324C12.5703 5.53181 12.6328 5.53181 12.6938 5.54324C12.7626 5.55615 12.8282 5.58895 12.9593 5.65454L22.6016 10.4757L12.9593 15.2968C12.8282 15.3624 12.7626 15.3952 12.6938 15.4081C12.6328 15.4195 12.5703 15.4195 12.5094 15.4081C12.4406 15.3952 12.375 15.3624 12.2438 15.2968L2.60156 10.4757Z" stroke="black" stroke-width="2" stroke-linecap="round" stroke-linejoin="round"/>
</svg>
