<svg width="16" height="17" viewBox="0 0 16 17" fill="none" xmlns="http://www.w3.org/2000/svg">
<path d="M6.43359 9.6996L7.50693 10.5329C7.64693 10.6729 7.96026 10.7396 8.16693 10.7396H9.48693C9.90026 10.7396 10.3536 10.4262 10.4603 10.0129L11.2936 7.48622C11.4669 6.99955 11.1536 6.58623 10.6336 6.58623H9.24693C9.04026 6.58623 8.86694 6.4129 8.90027 6.1729L9.0736 5.06621C9.14027 4.75288 8.93359 4.4062 8.62026 4.3062C8.34026 4.19954 7.99359 4.33953 7.86026 4.54619L6.44027 6.65956" stroke="#292D32" stroke-width="1.5" stroke-miterlimit="10"/>
<path d="M4.66797 9.69987V6.30648C4.66797 5.81981 4.87463 5.64648 5.3613 5.64648H5.70797C6.19463 5.64648 6.40131 5.81981 6.40131 6.30648V9.69987C6.40131 10.1865 6.19463 10.3599 5.70797 10.3599H5.3613C4.87463 10.3599 4.66797 10.1865 4.66797 9.69987Z" stroke="#292D32" stroke-width="1.5" stroke-linecap="round" stroke-linejoin="round"/>
<path d="M12 13.0732H11.4933C10.96 13.0732 10.4533 13.2798 10.08 13.6532L8.94 14.7799C8.42 15.2932 7.57333 15.2932 7.05333 14.7799L5.91333 13.6532C5.54 13.2798 5.02667 13.0732 4.5 13.0732H4C2.89333 13.0732 2 12.1865 2 11.0932V3.81982C2 2.72649 2.89333 1.83984 4 1.83984H12C13.1067 1.83984 14 2.72649 14 3.81982V11.0932C14 12.1798 13.1067 13.0732 12 13.0732Z" stroke="#292D32" stroke-width="1.5" stroke-miterlimit="10" stroke-linecap="round" stroke-linejoin="round"/>
</svg>
