<svg width="20" height="21" viewBox="0 0 20 21" fill="none" xmlns="http://www.w3.org/2000/svg">
<g opacity="0.8">
<path d="M14.1673 9.66667V7.16667C14.1673 4.86548 12.3018 3 10.0007 3C7.69946 3 5.83398 4.86548 5.83398 7.16667V9.66667M7.33398 18H12.6673C14.0674 18 14.7675 18 15.3023 17.7275C15.7727 17.4878 16.1552 17.1054 16.3948 16.635C16.6673 16.1002 16.6673 15.4001 16.6673 14V13.6667C16.6673 12.2665 16.6673 11.5665 16.3948 11.0317C16.1552 10.5613 15.7727 10.1788 15.3023 9.93915C14.7675 9.66667 14.0674 9.66667 12.6673 9.66667H7.33398C5.93385 9.66667 5.23379 9.66667 4.69901 9.93915C4.2286 10.1788 3.84615 10.5613 3.60647 11.0317C3.33398 11.5665 3.33398 12.2665 3.33398 13.6667V14C3.33398 15.4001 3.33398 16.1002 3.60647 16.635C3.84615 17.1054 4.2286 17.4878 4.69901 17.7275C5.23379 18 5.93385 18 7.33398 18Z" stroke="#252525" stroke-width="2" stroke-linecap="round" stroke-linejoin="round"/>
</g>
</svg>
