<svg width="127" height="28" viewBox="0 0 127 28" fill="none" xmlns="http://www.w3.org/2000/svg">
<path d="M26.8847 24.1684C26.8847 26.7055 24.8733 27.7349 21.7852 27.7349H15.5273V12.833H21.2375C24.4105 12.833 26.444 13.8403 26.444 16.2893V17.2305C26.444 18.7415 25.7011 19.6166 24.3665 20.0321C25.9404 20.4256 26.8816 21.3888 26.8816 23.2272V24.1684H26.8847ZM22.6194 16.9913C22.6194 16.0721 21.7884 15.8959 20.5859 15.8959H19.3614V18.8045H20.5639C21.7884 18.8045 22.6194 18.6943 22.6194 17.7751V16.9882V16.9913ZM23.057 22.6826C23.057 21.6312 22.1378 21.4581 21.0424 21.4581H19.3583V24.6311H21.0644C22.2008 24.6311 23.057 24.3919 23.057 23.4286V22.6857V22.6826Z" fill="white"/>
<path d="M37.5413 8.35077C38.4604 8.26263 40.6261 8.26263 41.3281 8.35077V19.4658C41.3281 22.4846 38.8759 23.5139 35.2024 23.5139C31.5037 23.5139 29.0547 22.4846 29.0547 19.4658V8.35077C30.04 8.26263 31.9633 8.26263 32.8825 8.35077V18.7449C32.8825 20.1016 33.9559 20.2779 35.2024 20.2779C36.449 20.2779 37.5444 20.1016 37.5444 18.7449V8.35077H37.5413Z" fill="url(#paint0_linear_405_17289)"/>
<path d="M44.0156 12.8332C45.1331 12.7451 46.7731 12.7451 47.8434 12.8332V27.7351C46.77 27.8232 45.13 27.8232 44.0156 27.7351V12.8332Z" fill="white"/>
<path d="M50.4367 27.7351V12.8332C51.5951 12.7451 53.1942 12.7451 54.2645 12.8332V24.6722H59.9967C60.1069 25.5473 60.1069 26.86 59.9967 27.7351H50.4336H50.4367Z" fill="white"/>
<path d="M62.0625 27.7349V12.833H67.7066C71.6445 12.833 74.0967 13.8403 74.0967 16.8371V23.7088C74.0967 26.7055 71.6445 27.7349 67.6845 27.7349H62.0625ZM70.2658 17.6051C70.2658 16.2484 69.1074 16.0312 67.7066 16.0312H65.8903V24.4989H67.7066C69.1074 24.4989 70.2658 24.2817 70.2658 22.9879V17.6051Z" fill="white"/>
<path d="M85.9368 18.0867L83.4217 27.738C82.2853 27.8261 80.8405 27.8261 79.701 27.8041L75.4766 12.8361C76.594 12.748 78.3442 12.748 79.3925 12.8361L81.6684 22.267L83.8561 12.8361C84.9516 12.748 87.0732 12.748 88.1214 12.8361L90.2871 22.267L92.585 12.8361C93.6805 12.748 95.3426 12.748 96.4128 12.8361L92.1664 27.738C91.03 27.8261 89.6292 27.8261 88.4677 27.738L85.9305 18.0867H85.9368Z" fill="white"/>
<path d="M98.3555 12.8332C99.473 12.7451 101.113 12.7451 102.183 12.8332V27.7351C101.11 27.8232 99.4698 27.8232 98.3555 27.7351V12.8332Z" fill="white"/>
<path d="M114.885 24.4772C114.885 27.0143 112.763 27.9996 109.263 27.9996C107.884 27.9996 106.134 27.9115 104.494 27.6722C104.361 26.7971 104.361 25.3743 104.494 24.4992C106.376 24.7196 107.906 24.8266 109.197 24.8266C110.226 24.8266 111.057 24.7164 111.057 23.8854V23.2275C111.057 22.4185 110.881 22.3744 109.439 21.9148L106.398 20.9296C105.218 20.5581 104.45 19.8561 104.45 17.6023V16.0693C104.45 13.4881 106.77 12.5469 110.116 12.5469C111.605 12.5469 112.895 12.635 114.712 13.0285C114.844 13.8816 114.844 15.2162 114.712 16.0913C112.851 15.764 111.627 15.6758 110.226 15.6758C109.086 15.6758 108.277 15.764 108.277 16.6391V17.1648C108.277 17.8415 108.495 17.9517 109.895 18.4333L112.958 19.4627C114.161 19.8782 114.885 20.514 114.885 22.7459V24.474V24.4772Z" fill="white"/>
<path d="M117.133 27.7349V12.833H126.803C126.913 13.7301 126.913 15.0208 126.803 15.8959H120.961V18.7415H126.583C126.693 19.6166 126.693 20.8852 126.583 21.7603H120.961V24.672H126.803C126.913 25.5471 126.913 26.8598 126.803 27.7349H117.133Z" fill="white"/>
<path d="M35.3748 4.40354L29.0508 8.86717C29.0508 8.86717 29.0508 9.19769 29.0508 9.37397L35.1072 5.02996L34.3266 20.5016C34.4808 20.4984 34.6287 20.4795 34.7641 20.4449L35.5353 5.12754L41.3242 10.3183C41.3368 9.9815 41.3242 9.73597 41.3242 9.73597L35.3716 4.40039L35.3748 4.40354Z" fill="#2E282E"/>
<path d="M34.1758 23.4859C34.3237 23.4985 34.4685 23.4985 34.6102 23.5048L34.7644 20.4482C34.6291 20.4829 34.4811 20.4986 34.3269 20.5049L34.1758 23.4859Z" fill="#2E282E"/>
<path d="M10.1148 5.64358C10.1148 5.13048 9.74016 4.71182 9.25225 4.62998H40.1734L37.7339 2.565H10.1148V0.326887C10.1148 0.14746 9.96996 -0.000488281 9.78738 -0.000488281H7.5052C7.32577 -0.000488281 7.17782 0.144312 7.17782 0.326887V1.54825C7.17782 2.06134 7.55242 2.48001 8.04033 2.56185H4.43291C4.42662 2.28484 4.20312 2.06449 3.92296 2.06449H0.513856C0.233698 2.06449 0.00390625 2.29114 0.00390625 2.57444V5.78523C0.00390625 6.06539 0.23055 6.29518 0.513856 6.29518H3.92611C4.20627 6.29518 4.43606 6.06854 4.43606 5.78523V4.62683H7.18097V25.2577L4.77288 26.4287V27.7351H12.5229V26.4287L10.1148 25.2577V5.64358Z" fill="url(#paint1_linear_405_17289)"/>
<defs>
<linearGradient id="paint0_linear_405_17289" x1="34.1143" y1="8.22627" x2="36.8751" y2="23.419" gradientUnits="userSpaceOnUse">
<stop offset="0.07" stop-color="#FDB233"/>
<stop offset="1" stop-color="#FF9A38"/>
</linearGradient>
<linearGradient id="paint1_linear_405_17289" x1="24.3461" y1="-1.96789" x2="2.04371" y2="26.7498" gradientUnits="userSpaceOnUse">
<stop offset="0.07" stop-color="#FDB233"/>
<stop offset="1" stop-color="#FF9A38"/>
</linearGradient>
</defs>
</svg>
