<svg width="16" height="15" viewBox="0 0 16 15" fill="none" xmlns="http://www.w3.org/2000/svg">
<g filter="url(#filter0_d_28_8195)">
<path d="M10 13V9.4C10 9.02663 10 8.83995 9.92734 8.69734C9.86342 8.5719 9.76144 8.46991 9.63599 8.406C9.49339 8.33333 9.3067 8.33333 8.93333 8.33333H7.06667C6.6933 8.33333 6.50661 8.33333 6.36401 8.406C6.23857 8.46991 6.13658 8.5719 6.07266 8.69734C6 8.83995 6 9.02663 6 9.4V13M2 3.66667C2 4.77124 2.89543 5.66667 4 5.66667C5.10457 5.66667 6 4.77124 6 3.66667C6 4.77124 6.89543 5.66667 8 5.66667C9.10457 5.66667 10 4.77124 10 3.66667C10 4.77124 10.8954 5.66667 12 5.66667C13.1046 5.66667 14 4.77124 14 3.66667M4.13333 13H11.8667C12.6134 13 12.9868 13 13.272 12.8547C13.5229 12.7268 13.7268 12.5229 13.8547 12.272C14 11.9868 14 11.6134 14 10.8667V3.13333C14 2.3866 14 2.01323 13.8547 1.72801C13.7268 1.47713 13.5229 1.27316 13.272 1.14532C12.9868 1 12.6134 1 11.8667 1H4.13333C3.3866 1 3.01323 1 2.72801 1.14532C2.47713 1.27316 2.27316 1.47713 2.14532 1.72801C2 2.01323 2 2.3866 2 3.13333V10.8667C2 11.6134 2 11.9868 2.14532 12.272C2.27316 12.5229 2.47713 12.7268 2.72801 12.8547C3.01323 13 3.3866 13 4.13333 13Z" stroke="white" stroke-width="1.5" stroke-linecap="round" stroke-linejoin="round" shape-rendering="crispEdges"/>
</g>
<defs>
<filter id="filter0_d_28_8195" x="-2.75" y="0.25" width="21.5" height="21.5" filterUnits="userSpaceOnUse" color-interpolation-filters="sRGB">
<feFlood flood-opacity="0" result="BackgroundImageFix"/>
<feColorMatrix in="SourceAlpha" type="matrix" values="0 0 0 0 0 0 0 0 0 0 0 0 0 0 0 0 0 0 127 0" result="hardAlpha"/>
<feOffset dy="4"/>
<feGaussianBlur stdDeviation="2"/>
<feComposite in2="hardAlpha" operator="out"/>
<feColorMatrix type="matrix" values="0 0 0 0 0 0 0 0 0 0 0 0 0 0 0 0 0 0 0.25 0"/>
<feBlend mode="normal" in2="BackgroundImageFix" result="effect1_dropShadow_28_8195"/>
<feBlend mode="normal" in="SourceGraphic" in2="effect1_dropShadow_28_8195" result="shape"/>
</filter>
</defs>
</svg>
