<svg width="20" height="21" viewBox="0 0 20 21" fill="none" xmlns="http://www.w3.org/2000/svg">
<path d="M4.16667 8.83337C3.25 8.83337 2.5 9.58337 2.5 10.5C2.5 11.4167 3.25 12.1667 4.16667 12.1667C5.08333 12.1667 5.83333 11.4167 5.83333 10.5C5.83333 9.58337 5.08333 8.83337 4.16667 8.83337Z" fill="#222222" stroke="#292D32" stroke-width="1.5"/>
<path d="M15.8346 8.83337C14.918 8.83337 14.168 9.58337 14.168 10.5C14.168 11.4167 14.918 12.1667 15.8346 12.1667C16.7513 12.1667 17.5013 11.4167 17.5013 10.5C17.5013 9.58337 16.7513 8.83337 15.8346 8.83337Z" fill="#222222" stroke="black" stroke-width="1.5"/>
<path d="M9.9987 8.83337C9.08203 8.83337 8.33203 9.58337 8.33203 10.5C8.33203 11.4167 9.08203 12.1667 9.9987 12.1667C10.9154 12.1667 11.6654 11.4167 11.6654 10.5C11.6654 9.58337 10.9154 8.83337 9.9987 8.83337Z" fill="#222222" stroke="#292D32" stroke-width="1.5"/>
</svg>
