<svg width="20" height="21" viewBox="0 0 20 21" fill="none" xmlns="http://www.w3.org/2000/svg">
<path d="M4.16667 8.83301C3.25 8.83301 2.5 9.58301 2.5 10.4997C2.5 11.4163 3.25 12.1663 4.16667 12.1663C5.08333 12.1663 5.83333 11.4163 5.83333 10.4997C5.83333 9.58301 5.08333 8.83301 4.16667 8.83301Z" stroke="#292D32" stroke-width="1.5"/>
<path d="M15.8346 8.83301C14.918 8.83301 14.168 9.58301 14.168 10.4997C14.168 11.4163 14.918 12.1663 15.8346 12.1663C16.7513 12.1663 17.5013 11.4163 17.5013 10.4997C17.5013 9.58301 16.7513 8.83301 15.8346 8.83301Z" stroke="#292D32" stroke-width="1.5"/>
<path d="M9.9987 8.83301C9.08203 8.83301 8.33203 9.58301 8.33203 10.4997C8.33203 11.4163 9.08203 12.1663 9.9987 12.1663C10.9154 12.1663 11.6654 11.4163 11.6654 10.4997C11.6654 9.58301 10.9154 8.83301 9.9987 8.83301Z" stroke="#292D32" stroke-width="1.5"/>
</svg>
