<svg width="21" height="20" viewBox="0 0 21 20" fill="none" xmlns="http://www.w3.org/2000/svg">
<path d="M18.8327 8.33366V12.5003C18.8327 16.667 17.166 18.3337 12.9993 18.3337H7.99935C3.83268 18.3337 2.16602 16.667 2.16602 12.5003V7.50033C2.16602 3.33366 3.83268 1.66699 7.99935 1.66699H12.166" stroke="url(#paint0_linear_5066_40952)" stroke-width="1.5" stroke-linecap="round" stroke-linejoin="round"/>
<path d="M18.8327 8.33366H15.4993C12.9993 8.33366 12.166 7.50033 12.166 5.00033V1.66699L18.8327 8.33366Z" stroke="url(#paint1_linear_5066_40952)" stroke-width="1.5" stroke-linecap="round" stroke-linejoin="round"/>
<path d="M6.33398 10.833H11.334" stroke="url(#paint2_linear_5066_40952)" stroke-width="1.5" stroke-linecap="round" stroke-linejoin="round"/>
<path d="M6.33398 14.167H9.66732" stroke="url(#paint3_linear_5066_40952)" stroke-width="1.5" stroke-linecap="round" stroke-linejoin="round"/>
<defs>
<linearGradient id="paint0_linear_5066_40952" x1="9.03671" y1="1.60308" x2="11.4993" y2="18.4182" gradientUnits="userSpaceOnUse">
<stop stop-color="#FDB233"/>
<stop offset="1" stop-color="#FF9A38"/>
</linearGradient>
<linearGradient id="paint1_linear_5066_40952" x1="14.9143" y1="1.64143" x2="15.8993" y2="8.36748" gradientUnits="userSpaceOnUse">
<stop stop-color="#FDB233"/>
<stop offset="1" stop-color="#FF9A38"/>
</linearGradient>
<linearGradient id="paint2_linear_5066_40952" x1="8.39519" y1="10.8292" x2="8.42535" y2="11.8588" gradientUnits="userSpaceOnUse">
<stop stop-color="#FDB233"/>
<stop offset="1" stop-color="#FF9A38"/>
</linearGradient>
<linearGradient id="paint3_linear_5066_40952" x1="7.70812" y1="14.1632" x2="7.75331" y2="15.1917" gradientUnits="userSpaceOnUse">
<stop stop-color="#FDB233"/>
<stop offset="1" stop-color="#FF9A38"/>
</linearGradient>
</defs>
</svg>
