<svg width="17" height="21" viewBox="0 0 17 21" fill="none" xmlns="http://www.w3.org/2000/svg">
<path d="M11.5437 0.5H1.17875C0.890178 0.5 0.65625 0.733929 0.65625 1.18786V20.1429C0.65625 20.2661 0.890178 20.5 1.17875 20.5H15.4909C15.7795 20.5 16.0134 20.2661 16.0134 20.1429V5.135C16.0134 4.88643 15.9802 4.80643 15.9216 4.7475L11.7659 0.591786C11.707 0.533214 11.627 0.5 11.5437 0.5Z" fill="#E9E9E0"/>
<path d="M11.7266 0.554688V4.78647H15.9583L11.7266 0.554688Z" fill="#D9D7CA"/>
<path d="M5.30318 12.4011C5.17889 12.4011 5.05961 12.3607 4.95782 12.2847C4.58603 12.0057 4.53603 11.6954 4.55961 11.4839C4.62461 10.9025 5.34353 10.2939 6.69711 9.67394C7.23425 8.4968 7.74532 7.04644 8.04996 5.83465C7.69353 5.05894 7.34711 4.05251 7.59961 3.46215C7.68818 3.25537 7.79853 3.0968 8.00461 3.02823C8.08603 3.00108 8.29175 2.9668 8.36746 2.9668C8.54746 2.9668 8.70568 3.19858 8.81782 3.34144C8.92318 3.47573 9.16211 3.76037 8.68461 5.77073C9.16603 6.76501 9.84818 7.77787 10.5017 8.47144C10.97 8.3868 11.3728 8.34358 11.701 8.34358C12.2603 8.34358 12.5992 8.47394 12.7375 8.74251C12.8517 8.96465 12.805 9.2243 12.5982 9.51394C12.3992 9.79215 12.125 9.9393 11.8053 9.9393C11.371 9.9393 10.8653 9.66501 10.3014 9.12323C9.28818 9.33501 8.10496 9.71287 7.14853 10.1311C6.84996 10.7647 6.56389 11.275 6.29746 11.6493C5.93139 12.1618 5.61568 12.4011 5.30318 12.4011ZM6.25389 10.5704C5.49068 10.9993 5.17961 11.3518 5.15711 11.5504C5.15353 11.5832 5.14389 11.6697 5.31103 11.7975C5.36425 11.7807 5.67496 11.6389 6.25389 10.5704ZM11.1242 8.98394C11.4153 9.20787 11.4864 9.32108 11.6767 9.32108C11.7603 9.32108 11.9985 9.31751 12.1089 9.16358C12.1621 9.08894 12.1828 9.04108 12.191 9.01537C12.1471 8.99215 12.0889 8.94501 11.7714 8.94501C11.591 8.94537 11.3642 8.95323 11.1242 8.98394ZM8.45639 6.63323C8.20103 7.5168 7.86389 8.47073 7.50139 9.33465C8.24782 9.04501 9.05925 8.79215 9.82139 8.61323C9.33925 8.05323 8.85746 7.35394 8.45639 6.63323ZM8.23961 3.61108C8.20461 3.62287 7.76461 4.23858 8.27389 4.75965C8.61282 4.0043 8.25496 3.60608 8.23961 3.61108Z" fill="#CC4B4C"/>
<path d="M15.4909 20.4992H1.17875C0.890178 20.4992 0.65625 20.2652 0.65625 19.9767V14.4277H16.0134V19.9767C16.0134 20.2652 15.7795 20.4992 15.4909 20.4992Z" fill="#CC4B4C"/>
<path d="M4.54701 19.4286H3.96094V15.8301H4.99594C5.14879 15.8301 5.30022 15.8544 5.44987 15.9033C5.59951 15.9522 5.73379 16.0254 5.85272 16.1229C5.97165 16.2204 6.06772 16.3386 6.14094 16.4769C6.21415 16.6151 6.25094 16.7704 6.25094 16.9433C6.25094 17.1258 6.21987 17.2908 6.15808 17.439C6.09629 17.5872 6.00987 17.7119 5.89915 17.8126C5.78844 17.9133 5.65487 17.9915 5.49879 18.0469C5.34272 18.1022 5.16987 18.1297 4.98129 18.1297H4.54665L4.54701 19.4286ZM4.54701 16.2744V17.7001H5.08415C5.15558 17.7001 5.22629 17.6879 5.29665 17.6633C5.36665 17.639 5.43094 17.599 5.48951 17.5436C5.54808 17.4883 5.59522 17.4112 5.63094 17.3119C5.66665 17.2126 5.68451 17.0897 5.68451 16.9433C5.68451 16.8847 5.67629 16.8169 5.66022 16.7408C5.64379 16.6644 5.61058 16.5912 5.56022 16.5212C5.50951 16.4512 5.43879 16.3926 5.34772 16.3454C5.25665 16.2983 5.13594 16.2747 4.98629 16.2747L4.54701 16.2744Z" fill="white"/>
<path d="M9.84286 17.5294C9.84286 17.8254 9.81107 18.0786 9.7475 18.2886C9.68393 18.4986 9.60357 18.6744 9.50571 18.8161C9.40786 18.9579 9.29821 19.0694 9.17607 19.1508C9.05393 19.2322 8.93607 19.2929 8.82214 19.334C8.70821 19.3747 8.60393 19.4008 8.50964 19.4122C8.41536 19.4229 8.34536 19.4286 8.29964 19.4286H6.9375V15.8301H8.02143C8.32429 15.8301 8.59036 15.8783 8.81964 15.974C9.04893 16.0697 9.23964 16.1979 9.39107 16.3572C9.5425 16.5165 9.65536 16.6983 9.73036 16.9015C9.80536 17.1051 9.84286 17.3144 9.84286 17.5294ZM8.10464 18.999C8.50179 18.999 8.78821 18.8722 8.96393 18.6183C9.13964 18.3644 9.2275 17.9965 9.2275 17.5147C9.2275 17.3651 9.20964 17.2169 9.17393 17.0704C9.13786 16.924 9.06893 16.7915 8.96643 16.6726C8.86393 16.5536 8.72464 16.4576 8.54893 16.3844C8.37321 16.3112 8.14536 16.2744 7.86536 16.2744H7.52357V18.999H8.10464Z" fill="white"/>
<path d="M11.291 16.2744V17.4072H12.795V17.8076H11.291V19.4286H10.6953V15.8301H12.946V16.2744H11.291Z" fill="white"/>
</svg>
