<svg width="20" height="20" viewBox="0 0 20 20" fill="none" xmlns="http://www.w3.org/2000/svg">
<path d="M13.2078 0H2.84281C2.55424 0 2.32031 0.233929 2.32031 0.687857V19.6429C2.32031 19.7661 2.55424 20 2.84281 20H17.155C17.4435 20 17.6775 19.7661 17.6775 19.6429V4.635C17.6775 4.38643 17.6442 4.30643 17.5857 4.2475L13.43 0.0917857C13.371 0.0332143 13.291 0 13.2078 0Z" fill="#E9E9E0"/>
<path d="M13.3906 0.0546875V4.28647H17.6224L13.3906 0.0546875Z" fill="#D9D7CA"/>
<path d="M6.96724 11.9011C6.84295 11.9011 6.72367 11.8607 6.62188 11.7847C6.2501 11.5057 6.2001 11.1954 6.22367 10.9839C6.28867 10.4025 7.0076 9.79394 8.36117 9.17394C8.89831 7.9968 9.40938 6.54644 9.71403 5.33465C9.3576 4.55894 9.01117 3.55251 9.26367 2.96215C9.35224 2.75537 9.4626 2.5968 9.66867 2.52823C9.7501 2.50108 9.95581 2.4668 10.0315 2.4668C10.2115 2.4668 10.3697 2.69858 10.4819 2.84144C10.5872 2.97573 10.8262 3.26037 10.3487 5.27073C10.8301 6.26501 11.5122 7.27787 12.1658 7.97144C12.634 7.8868 13.0369 7.84358 13.3651 7.84358C13.9244 7.84358 14.2633 7.97394 14.4015 8.24251C14.5158 8.46465 14.469 8.7243 14.2622 9.01394C14.0633 9.29215 13.789 9.4393 13.4694 9.4393C13.0351 9.4393 12.5294 9.16501 11.9655 8.62323C10.9522 8.83501 9.76903 9.21287 8.8126 9.63108C8.51403 10.2647 8.22795 10.775 7.96153 11.1493C7.59545 11.6618 7.27974 11.9011 6.96724 11.9011ZM7.91795 10.0704C7.15474 10.4993 6.84367 10.8518 6.82117 11.0504C6.8176 11.0832 6.80795 11.1697 6.9751 11.2975C7.02831 11.2807 7.33903 11.1389 7.91795 10.0704ZM12.7883 8.48394C13.0794 8.70787 13.1505 8.82108 13.3408 8.82108C13.4244 8.82108 13.6626 8.81751 13.773 8.66358C13.8262 8.58894 13.8469 8.54108 13.8551 8.51537C13.8112 8.49215 13.753 8.44501 13.4355 8.44501C13.2551 8.44537 13.0283 8.45323 12.7883 8.48394ZM10.1205 6.13323C9.8651 7.0168 9.52795 7.97073 9.16545 8.83465C9.91188 8.54501 10.7233 8.29215 11.4855 8.11323C11.0033 7.55323 10.5215 6.85394 10.1205 6.13323ZM9.90367 3.11108C9.86867 3.12287 9.42867 3.73858 9.93795 4.25965C10.2769 3.5043 9.91903 3.10608 9.90367 3.11108Z" fill="#CC4B4C"/>
<path d="M17.155 19.9992H2.84281C2.55424 19.9992 2.32031 19.7652 2.32031 19.4767V13.9277H17.6775V19.4767C17.6775 19.7652 17.4435 19.9992 17.155 19.9992Z" fill="#CC4B4C"/>
<path d="M6.21107 18.9286H5.625V15.3301H6.66C6.81286 15.3301 6.96429 15.3544 7.11393 15.4033C7.26357 15.4522 7.39786 15.5254 7.51679 15.6229C7.63571 15.7204 7.73179 15.8386 7.805 15.9769C7.87821 16.1151 7.915 16.2704 7.915 16.4433C7.915 16.6258 7.88393 16.7908 7.82214 16.939C7.76036 17.0872 7.67393 17.2119 7.56321 17.3126C7.4525 17.4133 7.31893 17.4915 7.16286 17.5469C7.00679 17.6022 6.83393 17.6297 6.64536 17.6297H6.21071L6.21107 18.9286ZM6.21107 15.7744V17.2001H6.74821C6.81964 17.2001 6.89036 17.1879 6.96071 17.1633C7.03071 17.139 7.095 17.099 7.15357 17.0436C7.21214 16.9883 7.25929 16.9112 7.295 16.8119C7.33071 16.7126 7.34857 16.5897 7.34857 16.4433C7.34857 16.3847 7.34036 16.3169 7.32429 16.2408C7.30786 16.1644 7.27464 16.0912 7.22429 16.0212C7.17357 15.9512 7.10286 15.8926 7.01179 15.8454C6.92071 15.7983 6.8 15.7747 6.65036 15.7747L6.21107 15.7744Z" fill="white"/>
<path d="M11.5069 17.0294C11.5069 17.3254 11.4751 17.5786 11.4116 17.7886C11.348 17.9986 11.2676 18.1744 11.1698 18.3161C11.0719 18.4579 10.9623 18.5694 10.8401 18.6508C10.718 18.7322 10.6001 18.7929 10.4862 18.834C10.3723 18.8747 10.268 18.9008 10.1737 18.9122C10.0794 18.9229 10.0094 18.9286 9.96371 18.9286H8.60156V15.3301H9.68549C9.98835 15.3301 10.2544 15.3783 10.4837 15.474C10.713 15.5697 10.9037 15.6979 11.0551 15.8572C11.2066 16.0165 11.3194 16.1983 11.3944 16.4015C11.4694 16.6051 11.5069 16.8144 11.5069 17.0294ZM9.76871 18.499C10.1658 18.499 10.4523 18.3722 10.628 18.1183C10.8037 17.8644 10.8916 17.4965 10.8916 17.0147C10.8916 16.8651 10.8737 16.7169 10.838 16.5704C10.8019 16.424 10.733 16.2915 10.6305 16.1726C10.528 16.0536 10.3887 15.9576 10.213 15.8844C10.0373 15.8112 9.80942 15.7744 9.52942 15.7744H9.18763V18.499H9.76871Z" fill="white"/>
<path d="M12.9551 15.7744V16.9072H14.459V17.3076H12.9551V18.9286H12.3594V15.3301H14.6101V15.7744H12.9551Z" fill="white"/>
</svg>
