<svg width="21" height="21" viewBox="0 0 21 21" fill="none" xmlns="http://www.w3.org/2000/svg">
<g clip-path="url(#clip0_1696_47142)">
<path d="M13.5398 0.5H3.17484C2.88627 0.5 2.65234 0.733929 2.65234 1.18786V20.1429C2.65234 20.2661 2.88627 20.5 3.17484 20.5H17.487C17.7756 20.5 18.0095 20.2661 18.0095 20.1429V5.135C18.0095 4.88643 17.9763 4.80643 17.9177 4.7475L13.762 0.591786C13.7031 0.533214 13.6231 0.5 13.5398 0.5Z" fill="#E9E9E0"/>
<path d="M13.7227 0.553711V4.7855H17.9544L13.7227 0.553711Z" fill="#D9D7CA"/>
<path d="M7.29927 12.4016C7.17499 12.4016 7.0557 12.3612 6.95391 12.2851C6.58213 12.0062 6.53213 11.6959 6.5557 11.4844C6.6207 10.903 7.33963 10.2944 8.6932 9.67443C9.23034 8.49728 9.74141 7.04693 10.0461 5.83514C9.68963 5.05943 9.3432 4.053 9.5957 3.46264C9.68427 3.25586 9.79463 3.09729 10.0007 3.02871C10.0821 3.00157 10.2878 2.96729 10.3636 2.96729C10.5436 2.96729 10.7018 3.19907 10.8139 3.34193C10.9193 3.47621 11.1582 3.76086 10.6807 5.77121C11.1621 6.7655 11.8443 7.77836 12.4978 8.47193C12.9661 8.38728 13.3689 8.34407 13.6971 8.34407C14.2564 8.34407 14.5953 8.47443 14.7336 8.743C14.8478 8.96514 14.8011 9.22479 14.5943 9.51443C14.3953 9.79264 14.1211 9.93979 13.8014 9.93979C13.3671 9.93979 12.8614 9.6655 12.2975 9.12371C11.2843 9.3355 10.1011 9.71336 9.14463 10.1316C8.84606 10.7651 8.55999 11.2755 8.29356 11.6498C7.92749 12.1623 7.61177 12.4016 7.29927 12.4016ZM8.24999 10.5709C7.48677 10.9998 7.1757 11.3523 7.1532 11.5509C7.14963 11.5837 7.13998 11.6701 7.30713 11.798C7.36034 11.7812 7.67106 11.6394 8.24999 10.5709ZM13.1203 8.98443C13.4114 9.20836 13.4825 9.32157 13.6728 9.32157C13.7564 9.32157 13.9946 9.318 14.105 9.16407C14.1582 9.08943 14.1789 9.04157 14.1871 9.01586C14.1432 8.99264 14.085 8.9455 13.7675 8.9455C13.5871 8.94586 13.3603 8.95371 13.1203 8.98443ZM10.4525 6.63371C10.1971 7.51729 9.85999 8.47121 9.49749 9.33514C10.2439 9.0455 11.0553 8.79264 11.8175 8.61371C11.3353 8.05371 10.8536 7.35443 10.4525 6.63371ZM10.2357 3.61157C10.2007 3.62336 9.7607 4.23907 10.27 4.76014C10.6089 4.00479 10.2511 3.60657 10.2357 3.61157Z" fill="#CC4B4C"/>
<path d="M17.487 20.5001H3.17484C2.88627 20.5001 2.65234 20.2662 2.65234 19.9776V14.4287H18.0095V19.9776C18.0095 20.2662 17.7756 20.5001 17.487 20.5001Z" fill="#CC4B4C"/>
<path d="M6.5392 19.4286H5.95312V15.8301H6.98812C7.14098 15.8301 7.29241 15.8544 7.44205 15.9033C7.5917 15.9522 7.72598 16.0254 7.84491 16.1229C7.96384 16.2204 8.05991 16.3386 8.13312 16.4769C8.20634 16.6151 8.24312 16.7704 8.24312 16.9433C8.24312 17.1258 8.21205 17.2908 8.15027 17.439C8.08848 17.5872 8.00205 17.7119 7.89134 17.8126C7.78062 17.9133 7.64705 17.9915 7.49098 18.0469C7.33491 18.1022 7.16205 18.1297 6.97348 18.1297H6.53884L6.5392 19.4286ZM6.5392 16.2744V17.7001H7.07634C7.14777 17.7001 7.21848 17.6879 7.28884 17.6633C7.35884 17.639 7.42312 17.599 7.4817 17.5436C7.54027 17.4883 7.58741 17.4112 7.62312 17.3119C7.65884 17.2126 7.6767 17.0897 7.6767 16.9433C7.6767 16.8847 7.66848 16.8169 7.65241 16.7408C7.63598 16.6644 7.60277 16.5912 7.55241 16.5212C7.5017 16.4512 7.43098 16.3926 7.33991 16.3454C7.24884 16.2983 7.12812 16.2747 6.97848 16.2747L6.5392 16.2744Z" fill="white"/>
<path d="M11.839 17.5294C11.839 17.8254 11.8072 18.0786 11.7436 18.2886C11.68 18.4986 11.5997 18.6744 11.5018 18.8161C11.404 18.9579 11.2943 19.0694 11.1722 19.1508C11.05 19.2322 10.9322 19.2929 10.8182 19.334C10.7043 19.3747 10.6 19.4008 10.5057 19.4122C10.4115 19.4229 10.3415 19.4286 10.2957 19.4286H8.93359V15.8301H10.0175C10.3204 15.8301 10.5865 15.8783 10.8157 15.974C11.045 16.0697 11.2357 16.1979 11.3872 16.3572C11.5386 16.5165 11.6515 16.6983 11.7265 16.9015C11.8015 17.1051 11.839 17.3144 11.839 17.5294ZM10.1007 18.999C10.4979 18.999 10.7843 18.8722 10.96 18.6183C11.1357 18.3644 11.2236 17.9965 11.2236 17.5147C11.2236 17.3651 11.2057 17.2169 11.17 17.0704C11.134 16.924 11.065 16.7915 10.9625 16.6726C10.86 16.5536 10.7207 16.4576 10.545 16.3844C10.3693 16.3112 10.1415 16.2744 9.86145 16.2744H9.51967V18.999H10.1007Z" fill="white"/>
<path d="M13.2832 16.2744V17.4072H14.7871V17.8076H13.2832V19.4286H12.6875V15.8301H14.9382V16.2744H13.2832Z" fill="white"/>
</g>
<defs>
<clipPath id="clip0_1696_47142">
<rect width="20" height="20" fill="white" transform="translate(0.332031 0.5)"/>
</clipPath>
</defs>
</svg>
