<svg width="20" height="21" viewBox="0 0 20 21" fill="none" xmlns="http://www.w3.org/2000/svg">
<path d="M15.5446 1.55969C15.3284 1.34155 15.0708 1.16872 14.787 1.05133C14.5032 0.933941 14.1988 0.874338 13.8916 0.876011H11.832V2.38681C11.832 2.38681 13.4301 2.39292 13.8061 2.38315C13.9618 2.37949 14.0088 2.4332 14.0088 2.58703C14.0088 3.1767 13.9905 3.76942 14.0363 4.35604C14.1175 5.38217 15.0246 6.2331 16.0537 6.274C16.6141 6.29597 17.1751 6.28315 17.7361 6.28621C18.0358 6.28682 18.0559 6.3033 18.0559 6.61278C18.0578 7.49851 18.0565 8.38363 18.0565 9.26935V17.1274C18.0565 18.1632 17.4247 18.7956 16.387 18.7956H11.832V20.3058H16.47C18.2207 20.3058 19.5332 19.0136 19.56 17.2598L19.5649 6.59142C19.5649 5.91568 19.3219 5.33883 18.8483 4.8627C18.3025 4.31331 16.1013 2.11029 15.5446 1.55969Z" fill="black"/>
<path d="M11.8326 8.05371V9.59931H15.6087C15.8135 9.59882 16.0097 9.51735 16.1546 9.37268C16.2996 9.22801 16.3813 9.03188 16.3821 8.82712C16.3817 8.62215 16.3 8.42571 16.1551 8.28077C16.0101 8.13583 15.8137 8.05419 15.6087 8.05371H11.8326ZM15.6087 14.6787H11.832V16.2249H15.6087C15.8135 16.2242 16.0097 16.1426 16.1545 15.9978C16.2993 15.853 16.3809 15.6568 16.3815 15.4521C16.3815 15.0248 16.0354 14.6799 15.6087 14.6787ZM11.8326 11.3659V12.9121H15.6087C15.8136 12.9116 16.0099 12.83 16.1549 12.6852C16.2998 12.5404 16.3815 12.3442 16.3821 12.1393C16.3815 11.9344 16.2998 11.7381 16.1549 11.5933C16.0099 11.4485 15.8136 11.367 15.6087 11.3665L11.8326 11.3659Z" fill="black"/>
<path d="M8.7052 18.7447C8.70337 18.9571 8.60937 19.0767 8.42624 19.1219C7.19318 19.4271 6.30074 18.8204 5.77089 17.6105C5.60425 17.2284 5.71473 17.0916 6.08038 17.0977C6.44541 17.1045 7.32748 17.0745 8.03984 16.6112C8.17597 16.5221 8.30355 16.3805 8.30355 16.3805C8.30355 16.3805 7.85855 16.541 7.07354 16.466C6.28792 16.389 4.99626 16.1949 4.19111 15.4221C3.7687 15.0162 3.47692 14.5462 3.4757 13.9425C3.52697 13.9223 3.5465 13.9095 3.56665 13.9077C3.64173 13.9028 3.71742 13.9028 3.79251 13.8991C4.641 13.8594 5.35641 13.702 5.94608 13.0708C6.20063 12.7979 6.42344 12.6038 6.83731 12.6587C7.1297 12.6972 7.64795 12.7936 7.91776 12.4219C7.49107 12.3883 6.78908 11.9775 6.48265 11.7632C6.17438 11.5496 5.98759 11.2016 5.72938 10.8842C5.43638 11.527 5.70253 11.9586 6.04497 12.3767C4.5067 13.4352 3.63929 12.8913 2.74868 12.279C1.74941 11.5917 1.52295 10.377 2.19625 9.41372C2.25118 9.33436 2.41722 9.23486 2.46178 9.26111C2.86893 9.5065 3.27365 9.7171 3.42808 10.2592C3.50988 10.5473 3.50988 11.2236 3.50988 11.2236C3.50988 11.2236 3.81448 10.767 3.85111 10.1767C3.88773 9.59684 3.67958 9.08164 3.3823 8.59697C3.05267 8.05979 2.861 7.48294 2.90861 6.8481C2.94951 6.29505 3.12043 5.78779 3.52209 5.32204C3.75527 5.57048 3.97136 5.78108 4.15998 6.01365C4.21248 6.07835 4.21309 6.21326 4.19111 6.30482C4.10199 6.68023 4.27474 7.91512 4.64161 8.23376C4.37119 5.90377 5.75868 5.69196 5.80264 5.61138C5.38877 5.40994 5.09759 5.52592 4.8986 5.59307C4.72463 5.65167 4.64161 5.64007 4.59216 5.4545C4.26314 4.20069 4.64588 2.7259 6.13837 2.16797C7.16083 1.78585 7.61804 1.99827 8.63256 2.19239C8.71131 2.20704 8.80837 2.39383 8.80959 2.50065C8.82057 3.37478 8.80959 4.24891 8.80715 5.12304C8.80593 5.63824 8.62646 5.92514 8.13324 6.08751C7.5631 6.27491 6.81899 6.15649 6.81899 6.15649C6.81899 6.15649 7.29329 6.86641 8.49034 6.86519C8.72779 6.86519 8.81569 6.90487 8.81325 7.15636C8.77174 11.0191 8.73573 14.8819 8.7052 18.7447ZM10.0506 0.888522C10.0054 0.885396 9.96044 0.87866 9.91629 0.868378C8.98173 0.64069 8.03984 0.463667 7.07293 0.506396C5.31063 0.584531 3.63807 1.69489 3.15644 3.41263C3.11066 3.575 2.98736 3.73432 2.86039 3.85213C1.92827 4.71955 1.35874 5.78169 1.44115 7.05442C1.48327 7.69659 1.32761 8.12877 0.958914 8.6342C-0.105667 10.0937 0.223963 12.0709 1.65724 13.2319C1.84281 13.3821 1.91484 13.5347 1.93193 13.7715C2.0296 15.1609 2.71144 16.2114 3.86148 16.9653C4.06903 17.1008 4.16731 17.2589 4.22591 17.4964C4.59766 19.0187 5.57128 20.0589 7.06072 20.402C8.2718 20.6803 10.0506 20.2774 10.0506 20.2774V0.888522Z" fill="#F59352"/>
</svg>
