<svg width="14" height="14" viewBox="0 0 14 14" fill="none" xmlns="http://www.w3.org/2000/svg">
<path d="M9.79594 0.333984H4.20927C1.7826 0.333984 0.335938 1.78065 0.335938 4.20732V9.78732C0.335938 12.2207 1.7826 13.6673 4.20927 13.6673H9.78927C12.2159 13.6673 13.6626 12.2207 13.6626 9.79399V4.20732C13.6693 1.78065 12.2226 0.333984 9.79594 0.333984ZM9.66927 7.50065H7.5026V9.66732C7.5026 9.94065 7.27594 10.1673 7.0026 10.1673C6.72927 10.1673 6.5026 9.94065 6.5026 9.66732V7.50065H4.33594C4.0626 7.50065 3.83594 7.27398 3.83594 7.00065C3.83594 6.72732 4.0626 6.50065 4.33594 6.50065H6.5026V4.33398C6.5026 4.06065 6.72927 3.83398 7.0026 3.83398C7.27594 3.83398 7.5026 4.06065 7.5026 4.33398V6.50065H9.66927C9.9426 6.50065 10.1693 6.72732 10.1693 7.00065C10.1693 7.27398 9.9426 7.50065 9.66927 7.50065Z" fill="white"/>
</svg>
