<svg width="25" height="25" viewBox="0 0 25 25" fill="none" xmlns="http://www.w3.org/2000/svg">
<path d="M12.7456 18.3812L17.4739 21.3769C18.0783 21.7598 18.8287 21.1903 18.6493 20.4847L17.2832 15.1108C17.2448 14.9611 17.2493 14.8036 17.2964 14.6564C17.3434 14.5092 17.4311 14.3783 17.5493 14.2787L21.7893 10.7496C22.3464 10.2859 22.0589 9.36126 21.3431 9.31481L15.8059 8.95544C15.6567 8.94479 15.5137 8.89198 15.3934 8.80317C15.2731 8.71437 15.1805 8.59321 15.1264 8.45382L13.0612 3.25323C13.0051 3.10528 12.9053 2.9779 12.775 2.88802C12.6448 2.79814 12.4903 2.75 12.332 2.75C12.1738 2.75 12.0193 2.79814 11.8891 2.88802C11.7588 2.9779 11.659 3.10528 11.6029 3.25323L9.53771 8.45382C9.4836 8.59321 9.391 8.71437 9.27071 8.80317C9.15041 8.89198 9.00736 8.94479 8.85821 8.95544L3.32097 9.31481C2.60518 9.36126 2.31763 10.2859 2.87475 10.7496L7.11481 14.2787C7.23298 14.3783 7.32063 14.5092 7.36769 14.6564C7.41475 14.8036 7.41931 14.9611 7.38084 15.1108L6.11392 20.0945C5.8987 20.9412 6.79918 21.6246 7.52446 21.1651L11.9185 18.3812C12.0421 18.3025 12.1855 18.2607 12.332 18.2607C12.4785 18.2607 12.622 18.3025 12.7456 18.3812V18.3812Z" stroke="#252525" stroke-width="1.5" stroke-linecap="round" stroke-linejoin="round"/>
</svg>
