<svg width="16" height="16" viewBox="0 0 16 16" fill="none" xmlns="http://www.w3.org/2000/svg">
<path d="M13.3333 7.00004V4.53337C13.3333 3.41327 13.3333 2.85322 13.1153 2.42539C12.9236 2.04907 12.6176 1.74311 12.2413 1.55136C11.8135 1.33337 11.2534 1.33337 10.1333 1.33337H5.86667C4.74656 1.33337 4.18651 1.33337 3.75868 1.55136C3.38236 1.74311 3.0764 2.04907 2.88465 2.42539C2.66667 2.85322 2.66667 3.41327 2.66667 4.53337V11.4667C2.66667 12.5868 2.66667 13.1469 2.88465 13.5747C3.0764 13.951 3.38236 14.257 3.75868 14.4487C4.18651 14.6667 4.74656 14.6667 5.86667 14.6667H8M9.33333 7.33337H5.33333M6.66667 10H5.33333M10.6667 4.66671H5.33333M12 14V10M10 12H14" stroke="white" stroke-width="1.5" stroke-linecap="round" stroke-linejoin="round"/>
</svg>
