<svg width="25" height="24" viewBox="0 0 25 24" fill="none" xmlns="http://www.w3.org/2000/svg">
<path d="M19.6016 4.5C19.6016 4.96466 19.6016 5.19698 19.5631 5.39018C19.4053 6.18356 18.7851 6.80376 17.9917 6.96157C17.7985 7 17.5662 7 17.1016 7H6.10156C5.63691 7 5.40458 7 5.21138 6.96157C4.418 6.80376 3.79781 6.18356 3.63999 5.39018C3.60156 5.19698 3.60156 4.96466 3.60156 4.5C3.60156 4.03534 3.60156 3.80302 3.63999 3.60982C3.79781 2.81644 4.418 2.19624 5.21138 2.03843C5.40458 2 5.63691 2 6.10156 2H17.1016C17.5662 2 17.7985 2 17.9917 2.03843C18.7851 2.19624 19.4053 2.81644 19.5631 3.60982C19.6016 3.80302 19.6016 4.03534 19.6016 4.5ZM19.6016 4.5C20.5334 4.5 20.9994 4.5 21.3669 4.65224C21.857 4.85523 22.2463 5.24458 22.4493 5.73463C22.6016 6.10218 22.6016 6.56812 22.6016 7.5V7.8C22.6016 8.9201 22.6016 9.48016 22.3836 9.90798C22.1918 10.2843 21.8859 10.5903 21.5095 10.782C21.0817 11 20.5217 11 19.4016 11H15.8016C14.6815 11 14.1214 11 13.6936 11.218C13.3173 11.4097 13.0113 11.7157 12.8195 12.092C12.6016 12.5198 12.6016 13.0799 12.6016 14.2V15M12.2016 22H13.0016C13.5616 22 13.8416 22 14.0556 21.891C14.2437 21.7951 14.3967 21.6422 14.4926 21.454C14.6016 21.2401 14.6016 20.9601 14.6016 20.4V16.6C14.6016 16.0399 14.6016 15.7599 14.4926 15.546C14.3967 15.3578 14.2437 15.2049 14.0556 15.109C13.8416 15 13.5616 15 13.0016 15H12.2016C11.6415 15 11.3615 15 11.1476 15.109C10.9594 15.2049 10.8064 15.3578 10.7106 15.546C10.6016 15.7599 10.6016 16.0399 10.6016 16.6V20.4C10.6016 20.9601 10.6016 21.2401 10.7106 21.454C10.8064 21.6422 10.9594 21.7951 11.1476 21.891C11.3615 22 11.6415 22 12.2016 22Z" stroke="black" stroke-width="2" stroke-linecap="round" stroke-linejoin="round"/>
</svg>
