<svg width="16" height="16" viewBox="0 0 16 16" fill="none" xmlns="http://www.w3.org/2000/svg">
<g clip-path="url(#clip0_28_8199)">
<path d="M8 10C9.10457 10 10 9.10461 10 8.00004C10 6.89547 9.10457 6.00004 8 6.00004C6.89543 6.00004 6 6.89547 6 8.00004C6 9.10461 6.89543 10 8 10Z" stroke="white" stroke-width="1.5" stroke-linecap="round" stroke-linejoin="round"/>
<path d="M12.4848 9.81822C12.4042 10.001 12.3801 10.2038 12.4158 10.4004C12.4514 10.597 12.5451 10.7784 12.6848 10.9213L12.7212 10.9576C12.8339 11.0702 12.9233 11.2039 12.9843 11.351C13.0453 11.4982 13.0767 11.6559 13.0767 11.8152C13.0767 11.9745 13.0453 12.1322 12.9843 12.2794C12.9233 12.4265 12.8339 12.5602 12.7212 12.6728C12.6086 12.7855 12.475 12.8749 12.3278 12.9359C12.1807 12.9969 12.0229 13.0283 11.8636 13.0283C11.7043 13.0283 11.5466 12.9969 11.3995 12.9359C11.2523 12.8749 11.1186 12.7855 11.0061 12.6728L10.9697 12.6364C10.8269 12.4967 10.6454 12.403 10.4488 12.3673C10.2522 12.3317 10.0495 12.3557 9.86667 12.4364C9.68741 12.5132 9.53454 12.6408 9.42685 12.8034C9.31917 12.966 9.26138 13.1565 9.26061 13.3516V13.4546C9.26061 13.7761 9.1329 14.0844 8.90558 14.3117C8.67827 14.539 8.36996 14.6667 8.04849 14.6667C7.72701 14.6667 7.4187 14.539 7.19139 14.3117C6.96407 14.0844 6.83636 13.7761 6.83636 13.4546V13.4C6.83167 13.1994 6.76674 13.0049 6.65001 12.8417C6.53328 12.6785 6.37014 12.5542 6.18182 12.4849C5.99902 12.4042 5.79625 12.3801 5.59964 12.4158C5.40304 12.4514 5.22162 12.5452 5.07879 12.6849L5.04242 12.7213C4.92985 12.834 4.79617 12.9234 4.64902 12.9844C4.50187 13.0454 4.34414 13.0768 4.18485 13.0768C4.02556 13.0768 3.86783 13.0454 3.72068 12.9844C3.57353 12.9234 3.43985 12.834 3.32727 12.7213C3.21457 12.6087 3.12517 12.475 3.06417 12.3278C3.00317 12.1807 2.97177 12.023 2.97177 11.8637C2.97177 11.7044 3.00317 11.5467 3.06417 11.3995C3.12517 11.2524 3.21457 11.1187 3.32727 11.0061L3.36364 10.9697C3.50336 10.8269 3.59708 10.6455 3.63273 10.4489C3.66838 10.2523 3.64431 10.0495 3.56364 9.86671C3.48681 9.68745 3.35925 9.53458 3.19665 9.42689C3.03405 9.31921 2.84351 9.26142 2.64849 9.26065H2.54546C2.22398 9.26065 1.91567 9.13294 1.68836 8.90562C1.46104 8.67831 1.33333 8.37 1.33333 8.04853C1.33333 7.72705 1.46104 7.41874 1.68836 7.19143C1.91567 6.96411 2.22398 6.8364 2.54546 6.8364H2.6C2.8006 6.83171 2.99516 6.76678 3.15836 6.65005C3.32157 6.53332 3.44589 6.37018 3.51515 6.18186C3.59583 5.99906 3.61989 5.79629 3.58425 5.59968C3.5486 5.40308 3.45487 5.22166 3.31515 5.07883L3.27879 5.04247C3.16609 4.92989 3.07669 4.79621 3.01569 4.64906C2.95469 4.50191 2.92329 4.34418 2.92329 4.18489C2.92329 4.0256 2.95469 3.86787 3.01569 3.72072C3.07669 3.57357 3.16609 3.43989 3.27879 3.32731C3.39136 3.21461 3.52505 3.12521 3.67219 3.06421C3.81934 3.00321 3.97707 2.97181 4.13636 2.97181C4.29566 2.97181 4.45339 3.00321 4.60053 3.06421C4.74768 3.12521 4.88137 3.21461 4.99394 3.32731L5.0303 3.36368C5.17314 3.5034 5.35456 3.59712 5.55116 3.63277C5.74776 3.66842 5.95054 3.64435 6.13333 3.56368H6.18182C6.36107 3.48685 6.51395 3.35929 6.62163 3.19669C6.72932 3.03409 6.7871 2.84355 6.78788 2.64853V2.5455C6.78788 2.22402 6.91559 1.91571 7.1429 1.6884C7.37022 1.46108 7.67853 1.33337 8 1.33337C8.32148 1.33337 8.62978 1.46108 8.8571 1.6884C9.08442 1.91571 9.21212 2.22402 9.21212 2.5455V2.60004C9.2129 2.79506 9.27069 2.9856 9.37837 3.1482C9.48605 3.3108 9.63893 3.43837 9.81818 3.51519C10.001 3.59587 10.2038 3.61993 10.4004 3.58429C10.597 3.54864 10.7784 3.45491 10.9212 3.31519L10.9576 3.27883C11.0701 3.16613 11.2038 3.07673 11.351 3.01573C11.4981 2.95473 11.6559 2.92333 11.8152 2.92333C11.9744 2.92333 12.1322 2.95473 12.2793 3.01573C12.4265 3.07673 12.5602 3.16613 12.6727 3.27883C12.7854 3.3914 12.8748 3.52509 12.9358 3.67223C12.9968 3.81938 13.0282 3.97711 13.0282 4.1364C13.0282 4.2957 12.9968 4.45343 12.9358 4.60057C12.8748 4.74772 12.7854 4.88141 12.6727 4.99398L12.6364 5.03034C12.4966 5.17318 12.4029 5.3546 12.3673 5.5512C12.3316 5.7478 12.3557 5.95058 12.4364 6.13337V6.18186C12.5132 6.36111 12.6408 6.51399 12.8034 6.62167C12.966 6.72936 13.1565 6.78714 13.3515 6.78792H13.4545C13.776 6.78792 14.0843 6.91563 14.3116 7.14294C14.539 7.37026 14.6667 7.67857 14.6667 8.00004C14.6667 8.32152 14.539 8.62982 14.3116 8.85714C14.0843 9.08446 13.776 9.21216 13.4545 9.21216H13.4C13.205 9.21294 13.0144 9.27073 12.8518 9.37841C12.6892 9.48609 12.5617 9.63897 12.4848 9.81822Z" stroke="white" stroke-width="1.5" stroke-linecap="round" stroke-linejoin="round"/>
</g>
<defs>
<clipPath id="clip0_28_8199">
<rect width="16" height="16" fill="white"/>
</clipPath>
</defs>
</svg>
