<svg width="16" height="17" viewBox="0 0 16 17" fill="none" xmlns="http://www.w3.org/2000/svg">
<path d="M11.3086 4.61328C12.6419 5.53995 13.5619 7.01328 13.7486 8.71328" stroke="#292D32" stroke-width="1.5" stroke-linecap="round" stroke-linejoin="round"/>
<path d="M2.32812 8.74648C2.50146 7.05315 3.40813 5.57982 4.72813 4.64648" stroke="#292D32" stroke-width="1.5" stroke-linecap="round" stroke-linejoin="round"/>
<path d="M5.46094 14.46C6.23427 14.8533 7.11427 15.0733 8.04094 15.0733C8.93427 15.0733 9.77427 14.8733 10.5276 14.5066" stroke="#292D32" stroke-width="1.5" stroke-linecap="round" stroke-linejoin="round"/>
<path d="M8.04083 5.63342C9.0644 5.63342 9.89417 4.80366 9.89417 3.78009C9.89417 2.75652 9.0644 1.92676 8.04083 1.92676C7.01727 1.92676 6.1875 2.75652 6.1875 3.78009C6.1875 4.80366 7.01727 5.63342 8.04083 5.63342Z" stroke="#292D32" stroke-width="1.5" stroke-linecap="round" stroke-linejoin="round"/>
<path d="M3.22052 13.7799C4.24409 13.7799 5.07385 12.9501 5.07385 11.9266C5.07385 10.903 4.24409 10.0732 3.22052 10.0732C2.19695 10.0732 1.36719 10.903 1.36719 11.9266C1.36719 12.9501 2.19695 13.7799 3.22052 13.7799Z" stroke="#292D32" stroke-width="1.5" stroke-linecap="round" stroke-linejoin="round"/>
<path d="M12.7791 13.7799C13.8027 13.7799 14.6324 12.9501 14.6324 11.9266C14.6324 10.903 13.8027 10.0732 12.7791 10.0732C11.7555 10.0732 10.9258 10.903 10.9258 11.9266C10.9258 12.9501 11.7555 13.7799 12.7791 13.7799Z" stroke="#292D32" stroke-width="1.5" stroke-linecap="round" stroke-linejoin="round"/>
</svg>
