<svg width="141" height="26" viewBox="0 0 141 26" fill="none" xmlns="http://www.w3.org/2000/svg">
<path d="M30.0726 9.98966C29.427 9.58562 28.5621 9.22106 27.5014 8.90699C26.4722 8.6028 25.7268 8.28758 25.2862 7.97003C24.8682 7.66991 24.665 7.30824 24.665 6.86472C24.665 6.32658 24.8531 5.92022 25.2397 5.62241C25.6322 5.31938 26.2011 5.16612 26.9279 5.16612C27.7064 5.16612 28.3095 5.35189 28.72 5.71878C29.131 6.08683 29.3307 6.58549 29.3307 7.2438V7.40112H31.9831V7.24438C31.9889 6.45707 31.7606 5.68578 31.3271 5.02854C30.8917 4.36675 30.2862 3.85008 29.5275 3.49306C28.7728 3.13895 27.9049 2.95898 26.947 2.95898C25.5015 2.95898 24.3057 3.32587 23.3943 4.05036C22.4712 4.78298 22.0039 5.72981 22.0039 6.86298C22.0039 8.15754 22.6495 9.2199 23.9231 10.021C24.5762 10.4285 25.4627 10.8024 26.5587 11.1315C27.6233 11.4532 28.3664 11.7719 28.7658 12.0795C29.1461 12.3727 29.3307 12.7808 29.3307 13.3277C29.3307 13.8257 29.1478 14.2147 28.7728 14.5177C28.392 14.8237 27.8056 14.9787 27.0306 14.9787C26.1268 14.9787 25.4272 14.7784 24.9518 14.3842C24.4781 13.9918 24.2482 13.4496 24.2482 12.7251V12.5672H21.5859V12.7251C21.5859 13.6017 21.8251 14.3813 22.2971 15.0414C22.7661 15.6991 23.4308 16.221 24.2726 16.5925C25.1085 16.9617 26.0362 17.1486 27.0301 17.1486C28.5365 17.1486 29.7504 16.8021 30.6368 16.1188C31.5366 15.4257 31.9923 14.4806 31.9923 13.3091C31.9923 12.5916 31.8356 11.9553 31.5262 11.4172C31.2173 10.8802 30.728 10.4007 30.0726 9.98966ZM44.549 6.42759C43.2678 6.42759 42.2403 6.89956 41.4931 7.83245C40.9492 6.89956 40.0163 6.42759 38.7153 6.42759C37.5891 6.42759 36.6632 6.7701 35.9567 7.44641L35.9045 6.61278H33.4756V16.9635H36.0444V9.57343C36.3973 8.91048 36.9738 8.58829 37.8063 8.58829C38.8883 8.58829 39.4288 9.11772 39.4573 10.2021V16.9635H42.0266L42.0168 9.94671C42.1387 9.54324 42.3494 9.21293 42.6431 8.96389C42.9369 8.71426 43.3253 8.58829 43.7978 8.58829C44.3928 8.58829 44.8189 8.72181 45.0651 8.98304C45.3135 9.24892 45.4395 9.68373 45.4395 10.2764V16.964H48.0083V10.2091C47.9955 8.98188 47.703 8.03621 47.1393 7.39822C46.5692 6.75384 45.6978 6.42701 44.549 6.42701M54.538 14.7192C54.1771 14.9199 53.7708 15.025 53.3578 15.0245C52.9172 15.0245 52.5642 14.9084 52.3076 14.6791C52.0528 14.4515 51.9291 14.152 51.9291 13.763C51.9291 13.2812 52.1132 12.9213 52.4923 12.6589C52.8835 12.3884 53.4873 12.2508 54.2849 12.2508H55.3426V13.9442C55.1603 14.2652 54.8898 14.5253 54.538 14.7192ZM57.9108 14.487V9.9589C57.8923 8.84662 57.5114 7.96945 56.7788 7.35062C56.0543 6.73875 55.075 6.42817 53.8675 6.42817C53.0763 6.42817 52.3483 6.56982 51.7039 6.84905C51.0537 7.13118 50.5324 7.52652 50.1533 8.02518C49.7685 8.53024 49.574 9.08173 49.574 9.66457V9.82247H52.1422V9.66457C52.1422 9.31684 52.2838 9.03761 52.5741 8.81005C52.8713 8.57784 53.2626 8.45883 53.7375 8.45883C54.2832 8.45883 54.6901 8.59932 54.949 8.87681C55.2137 9.16126 55.3426 9.53512 55.3426 10.0169V10.5179H54.1177C52.6136 10.5179 51.4357 10.8163 50.6178 11.4061C49.7835 12.0064 49.3598 12.8778 49.3598 13.9958C49.3598 14.8852 49.6994 15.6422 50.3675 16.2459C51.0311 16.845 51.8966 17.1492 52.9404 17.1492C53.9174 17.1492 54.7685 16.8259 55.4744 16.1861C55.5382 16.4903 55.6108 16.7179 55.6938 16.8787L55.7379 16.9635H58.2917V16.6482L58.2766 16.5809C58.0339 16.0671 57.9108 15.363 57.9108 14.4875M64.5415 6.42817C63.6737 6.42817 62.9596 6.76546 62.4133 7.43247L62.3727 6.61394H59.9136V16.9646H62.4824V9.97631C62.8197 9.26053 63.4513 8.91222 64.4121 8.91222C64.7174 8.91222 65.017 8.9366 65.3038 8.98362L65.4866 9.01439L65.4971 6.60872L65.399 6.56866C65.1714 6.47461 64.8823 6.42701 64.5415 6.42701M92.5836 6.42759C91.7157 6.42759 91.0016 6.76487 90.4554 7.43189L90.4147 6.61336H87.9557V16.964H90.5245V9.97631C90.8617 9.26053 91.4933 8.91222 92.4541 8.91222C92.7595 8.91222 93.059 8.9366 93.3458 8.98362L93.5286 9.01439L93.5391 6.60872L93.441 6.56866C93.2134 6.47461 92.9243 6.42701 92.5836 6.42701M72.425 14.8805C72.1783 14.9386 71.9257 14.9688 71.6721 14.9694C71.3313 14.9694 71.0979 14.9009 70.9783 14.7668C70.8541 14.6274 70.7908 14.3836 70.7908 14.0411V8.59758H72.5626V6.61278H70.7908V4.17343H68.2226V6.61278H66.5716V8.59816H68.2226V14.1253C68.2226 16.1316 69.1491 17.1481 70.9766 17.1481C71.4929 17.1443 72.0063 17.0707 72.5028 16.9292L72.6183 16.8973V14.8353L72.425 14.88V14.8805Z" fill="#F59352"/>
<path d="M14.4682 1.52717C14.2626 1.31971 14.0176 1.15536 13.7477 1.04372C13.4778 0.932078 13.1883 0.875395 12.8962 0.876986H10.9375V2.31377C10.9375 2.31377 12.4573 2.31958 12.8149 2.31029C12.9629 2.30681 13.0076 2.35789 13.0076 2.50418C13.0076 3.06497 12.9902 3.62865 13.0338 4.18653C13.111 5.16239 13.9736 5.97163 14.9524 6.01053C15.4853 6.03142 16.0188 6.01923 16.5523 6.02214C16.8373 6.02272 16.8565 6.03839 16.8565 6.33271C16.8582 7.17505 16.8571 8.0168 16.8571 8.85914V16.3322C16.8571 17.3173 16.2562 17.9187 15.2693 17.9187H10.9375V19.3549H15.3483C17.0132 19.3549 18.2613 18.126 18.2869 16.4581L18.2915 6.3124C18.2915 5.66976 18.0605 5.12117 17.61 4.66836C17.091 4.14589 14.9977 2.0508 14.4682 1.52717Z" fill="black"/>
<path d="M10.9381 7.70312V9.173H14.5292C14.7239 9.17254 14.9105 9.09506 15.0484 8.95748C15.1862 8.81989 15.2639 8.63337 15.2647 8.43864C15.2642 8.24371 15.1866 8.0569 15.0488 7.91906C14.9109 7.78122 14.7241 7.70358 14.5292 7.70312H10.9381ZM14.5292 14.0035H10.9375V15.474H14.5292C14.7239 15.4734 14.9105 15.3957 15.0482 15.258C15.1859 15.1203 15.2635 14.9338 15.2641 14.739C15.2641 14.3327 14.935 14.0047 14.5292 14.0035ZM10.9381 10.853V12.3235H14.5292C14.724 12.323 14.9107 12.2455 15.0486 12.1078C15.1864 11.97 15.2641 11.7834 15.2647 11.5885C15.2641 11.3937 15.1864 11.2071 15.0486 11.0693C14.9107 10.9316 14.724 10.8541 14.5292 10.8536L10.9381 10.853Z" fill="black"/>
<path d="M7.96297 17.8704C7.96123 18.0724 7.87183 18.1862 7.69768 18.2292C6.52502 18.5194 5.6763 17.9424 5.17241 16.7918C5.01393 16.4284 5.119 16.2983 5.46674 16.3042C5.81389 16.3105 6.65274 16.2821 7.33021 15.8415C7.45966 15.7567 7.58099 15.622 7.58099 15.622C7.58099 15.622 7.15779 15.7747 6.41124 15.7033C5.66411 15.6302 4.43573 15.4456 3.67003 14.7106C3.26831 14.3246 2.99082 13.8776 2.98966 13.3034C3.03842 13.2843 3.057 13.2721 3.07615 13.2704C3.14756 13.2657 3.21954 13.2657 3.29095 13.2622C4.09787 13.2245 4.77824 13.0747 5.33902 12.4745C5.5811 12.215 5.79299 12.0304 6.18658 12.0826C6.46465 12.1192 6.95751 12.2109 7.2141 11.8574C6.80832 11.8254 6.14072 11.4347 5.8493 11.231C5.55614 11.0278 5.3785 10.6969 5.13294 10.395C4.85429 11.0063 5.10739 11.4168 5.43307 11.8144C3.97016 12.821 3.14524 12.3038 2.29826 11.7215C1.34795 11.0679 1.13257 9.91263 1.77289 8.99656C1.82513 8.9211 1.98303 8.82647 2.02541 8.85143C2.41262 9.0848 2.7975 9.28508 2.94438 9.80058C3.02217 10.0746 3.02217 10.7178 3.02217 10.7178C3.02217 10.7178 3.31185 10.2836 3.34668 9.72221C3.38151 9.17072 3.18355 8.68076 2.90084 8.21983C2.58736 7.70897 2.40507 7.16038 2.45035 6.55664C2.48925 6.03069 2.65179 5.54827 3.03378 5.10534C3.25553 5.34161 3.46104 5.54189 3.64042 5.76307C3.69034 5.8246 3.69093 5.9529 3.67003 6.03998C3.58527 6.397 3.74956 7.57139 4.09845 7.87442C3.84128 5.65857 5.1608 5.45713 5.2026 5.3805C4.80901 5.18893 4.5321 5.29923 4.34285 5.36309C4.1774 5.41882 4.09845 5.40779 4.05143 5.23131C3.73853 4.03892 4.10251 2.63639 5.52189 2.10579C6.49426 1.74238 6.92907 1.94441 7.89389 2.12901C7.96878 2.14294 8.06108 2.32058 8.06224 2.42217C8.07269 3.25348 8.06224 4.08478 8.05992 4.91609C8.05876 5.40605 7.88809 5.67889 7.41903 5.83331C6.87682 6.01153 6.16917 5.89891 6.16917 5.89891C6.16917 5.89891 6.62023 6.57405 7.75863 6.57289C7.98445 6.57289 8.06805 6.61063 8.06573 6.8498C8.02625 10.5233 7.992 14.1969 7.96297 17.8704ZM9.24244 0.88902C9.19942 0.886046 9.15672 0.87964 9.11473 0.869863C8.22595 0.653329 7.33021 0.484978 6.41066 0.525614C4.7347 0.599921 3.14407 1.65589 2.68604 3.28947C2.64251 3.44389 2.52524 3.5954 2.40449 3.70745C1.51804 4.53236 0.976413 5.54247 1.05478 6.75285C1.09484 7.36356 0.946806 7.77457 0.596172 8.25524C-0.416255 9.64326 -0.102774 11.5236 1.26029 12.6277C1.43677 12.7705 1.50527 12.9157 1.52152 13.1409C1.6144 14.4622 2.26285 15.4612 3.35655 16.1782C3.55392 16.3071 3.64739 16.4574 3.70312 16.6832C4.05665 18.1311 4.98258 19.1203 6.39905 19.4465C7.5508 19.7112 9.24244 19.3281 9.24244 19.3281V0.88902Z" fill="#F59352"/>
<path d="M102.549 14.8469H102.544C102.375 14.8469 102.192 14.7795 102.037 14.6803H102.036C101.911 14.6026 101.8 14.5024 101.711 14.3848C101.665 14.3122 101.6 14.159 101.599 13.8449V13.8437C101.599 13.4983 101.681 12.9672 101.937 12.1951L101.94 12.1846C102.44 10.616 103.705 7.12886 104.735 4.96178C104.779 4.88051 104.815 4.81897 104.842 4.77717L104.876 4.72957L104.882 4.72261L104.901 4.71274C104.926 4.70845 104.952 4.7065 104.978 4.70693C105.875 4.73422 107.141 4.92869 108.141 5.3815C108.643 5.6079 109.076 5.89816 109.373 6.24473C109.671 6.59536 109.841 6.99012 109.843 7.49749V7.51084C109.848 9.15372 108.533 11.03 106.924 12.454C106.12 13.1698 105.25 13.7758 104.463 14.1967C103.685 14.6182 102.973 14.8486 102.553 14.8469H102.548H102.549ZM105.264 2.0795C105.031 1.86675 104.728 1.74766 104.412 1.74512C104.027 1.75557 103.756 1.99474 103.552 2.20257C103.391 2.37531 103.248 2.56332 103.123 2.76393L103.114 2.77844L103.11 2.78541L103.101 2.80573L103.083 2.8394L103.05 2.8423C102.276 2.84462 101.264 3.01471 100.63 3.26608L100.611 3.27305L100.606 3.27653C100.366 3.37232 100.12 3.50119 99.9184 3.70205C99.8057 3.81204 99.7161 3.9435 99.655 4.08867C99.5939 4.23384 99.5624 4.38978 99.5626 4.54729V4.55542C99.5643 4.75105 99.6264 4.94494 99.7344 5.11504C99.7901 5.20095 99.8609 5.28397 99.9556 5.35073C100.046 5.41459 100.163 5.46103 100.296 5.46509L100.304 5.46799H100.316C100.421 5.46799 100.524 5.43897 100.616 5.38846L100.624 5.38382C100.894 5.22359 101.629 4.9136 102.262 4.81839C102.036 5.37743 101.452 6.84267 100.866 8.34912C100.529 9.21409 100.192 10.0907 99.9236 10.814C99.6566 11.535 99.4592 12.0911 99.3855 12.371C99.3733 12.4151 99.3158 12.5724 99.2462 12.7692C99.036 13.3741 98.672 14.4283 98.668 15.2979C98.6685 15.5371 98.6964 15.7682 98.7783 15.9818C98.8555 16.1832 98.9931 16.3435 99.1544 16.4613C99.6392 16.805 100.317 16.8659 100.977 16.8717C101.521 16.8717 102.058 16.8166 102.449 16.7672C103.41 16.6471 104.323 16.4247 105.83 15.6672L106.188 15.486L106.19 15.4843C107.101 14.9972 108.587 13.9575 109.875 12.5747C111.162 11.1873 112.263 9.44862 112.268 7.55496C112.268 6.34458 111.586 5.19805 110.418 4.34759C109.266 3.50758 107.634 2.93867 105.634 2.8214C105.621 2.52824 105.473 2.26991 105.264 2.0795ZM115.469 14.0417C115.035 14.3981 114.65 14.6176 114.349 14.7464C114.094 14.8585 113.894 14.8991 113.803 14.9073L113.792 14.8985C113.759 14.862 113.705 14.7604 113.666 14.6269C113.62 14.4692 113.597 14.3058 113.597 14.1415V14.1172C113.595 13.5726 113.917 12.3106 114.592 11.088C115.523 9.4672 116.155 8.66143 116.634 8.30151L116.641 8.29571L116.719 8.24636L116.76 8.26204C117.033 8.46174 117.459 8.6655 117.735 8.76303L117.743 8.76593L117.746 8.76709L117.757 8.76999L117.758 8.77057H117.761C117.828 8.79026 117.89 8.82193 117.946 8.86404L117.947 8.86578L118.011 8.92383L118.028 8.94473V8.94531C118.078 9.05677 118.096 9.30755 118.094 9.51074V9.57459C118.096 10.2544 117.723 11.1652 117.196 11.9954C116.67 12.8313 115.998 13.5993 115.469 14.0417ZM139.603 6.72772C139.478 6.57871 139.325 6.45531 139.153 6.36432L139.15 6.36257L139.138 6.35561L139.124 6.3498C138.785 6.18203 138.396 6.12688 137.893 6.12688C136.909 6.13269 135.692 6.59362 134.806 7.27341L134.8 7.27922H134.798L134.797 7.28038C134.69 7.36165 134.588 7.44873 134.485 7.53813C133.873 7.90386 133.244 8.34389 132.608 8.82688C130.985 10.0669 129.333 11.5803 127.941 12.7547L127.926 12.7663L127.926 12.7675C127.224 13.3805 126.524 13.8821 125.89 14.2246C125.258 14.5671 124.688 14.7453 124.274 14.7447H124.27C124.09 14.7447 123.961 14.7157 123.871 14.675C123.734 14.6071 123.659 14.5276 123.58 14.3256C123.509 14.1317 123.468 13.8304 123.469 13.4385V13.4327C123.47 12.6577 123.693 11.2889 124.833 9.82248L124.834 9.82131L124.835 9.81957L124.838 9.81493L124.84 9.81319C125.182 9.34697 125.592 8.93418 126.056 8.58829C126.246 8.44374 126.452 8.31835 126.666 8.21443C126.85 8.12736 127.011 8.08498 127.094 8.08672H127.108L127.203 8.09659L127.214 8.10007L127.216 8.11168L127.208 8.18309L127.202 8.2481C127.192 8.29745 127.181 8.34563 127.181 8.39672V8.40426C127.181 8.64576 127.291 8.87913 127.49 9.02368L127.491 9.02484C127.614 9.11424 127.761 9.15255 127.903 9.15314H127.911C128.124 9.15197 128.334 9.08115 128.56 8.96969L128.563 8.96737L128.57 8.96389L128.573 8.96214L128.576 8.9604L128.578 8.95924C128.821 8.82112 129.041 8.6447 129.228 8.43677C129.441 8.19412 129.625 7.8609 129.625 7.45337V7.44815C129.625 7.00115 129.387 6.63426 129.069 6.40902C128.752 6.18261 128.355 6.07115 127.958 6.06999C127.264 6.0729 126.475 6.34052 125.689 6.7521C124.498 7.16718 123.071 7.40577 121.898 7.40519H121.895C120.742 7.40519 119.93 7.24497 119.329 7.03656C119.224 6.99382 119.121 6.94377 119.023 6.88679C118.979 6.86167 118.936 6.83354 118.896 6.80261C118.758 6.636 118.56 6.3945 118.317 6.18029C118.064 5.95969 117.75 5.742 117.355 5.73735H117.353C116.817 5.74142 116.23 5.99511 115.674 6.37883L115.671 6.38173L115.666 6.38522L115.664 6.38638C115.032 6.84847 114.156 7.81736 113.64 8.60512L113.638 8.60745L113.638 8.60803L113.636 8.61093C112.227 10.6584 111.274 12.526 111.268 14.2089V14.2118C111.268 15.1174 111.677 15.7966 112.125 16.2297C112.349 16.448 112.584 16.6088 112.792 16.7185L112.794 16.7191C113.002 16.8253 113.177 16.8932 113.359 16.899H113.363C113.634 16.8979 113.964 16.827 114.325 16.7179C114.686 16.6082 115.073 16.4567 115.426 16.2813H115.428C116.409 15.8001 117.55 14.8126 118.476 13.6707C119.397 12.5248 120.111 11.2343 120.119 10.068C120.119 9.9827 120.119 9.78184 120.107 9.56298C120.099 9.42185 120.082 9.28133 120.057 9.14211C120.423 9.17868 120.883 9.19784 121.468 9.19784H121.473C121.967 9.19029 122.433 9.13978 122.881 9.07302C121.524 10.7989 120.992 12.6438 120.987 13.7363V13.7421C120.987 14.8347 121.28 15.6085 121.777 16.0991C122.273 16.5873 122.928 16.7585 123.558 16.7597H123.575C124.661 16.7603 125.618 16.4973 126.593 15.9661C127.571 15.4349 128.575 14.6425 129.813 13.5697L129.816 13.5668L129.82 13.5633C130.876 12.62 131.876 11.6796 132.862 10.8291C132.912 11.0961 133.002 11.3574 133.122 11.5942L133.118 11.6029L133.153 11.6598L133.226 11.834L133.241 11.8183C133.481 12.2525 133.893 12.8191 134.245 13.3143C134.4 13.5337 134.535 13.7671 134.627 13.9778C134.718 14.1851 134.764 14.3772 134.764 14.4835V14.4916L134.761 14.5009C134.736 14.5522 134.699 14.5959 134.652 14.6274H134.651C134.549 14.7026 134.431 14.7534 134.307 14.7761L134.3 14.7766L134.29 14.779C134.209 14.7964 134.141 14.808 134.088 14.808L134.058 14.8062C133.835 14.7865 133.657 14.7325 133.441 14.6727C133.176 14.5938 132.903 14.542 132.628 14.5183L132.528 14.5142C132.174 14.5154 131.797 14.6559 131.497 14.8742C131.2 15.0913 130.97 15.3931 130.967 15.7449L130.972 15.828C131.02 16.2715 131.256 16.6 131.571 16.809C131.887 17.0198 132.277 17.1225 132.662 17.1492L132.765 17.1527C133.067 17.1527 133.413 17.0697 133.753 16.9629V16.9687L133.929 16.9071H133.931L133.933 16.9054C134.676 16.6662 135.565 16.2018 136.067 15.8407L136.168 15.7809L136.157 15.76C136.365 15.5928 136.552 15.3827 136.694 15.1377C136.856 14.8567 136.97 14.5386 136.971 14.2095C136.97 13.781 136.818 13.3445 136.6 12.9091C136.381 12.4737 136.089 12.0348 135.776 11.6203L135.772 11.6157H135.772L135.768 11.6099L135.767 11.6087C135.296 11.0445 135.081 10.6189 135.082 10.1807V10.1749C135.08 10.0024 135.169 9.77429 135.36 9.53338C135.647 9.17055 136.15 8.79612 136.727 8.52675C137.302 8.25565 137.954 8.08556 138.53 8.08556H138.533C138.827 8.08556 139.105 8.04202 139.343 7.92882H139.343C139.462 7.87077 139.574 7.78949 139.661 7.67687C139.754 7.55837 139.804 7.4126 139.805 7.26238V7.25832C139.805 7.05514 139.721 6.87343 139.603 6.72714M138.657 16.8717H138.504V15.6973H138.089V15.5621H139.072V15.6973H138.657V16.8717ZM139.848 16.8717L139.404 15.7107H139.397C139.405 15.8024 139.409 15.9116 139.409 16.0387V16.8717H139.269V15.5621H139.498L139.913 16.6418H139.92L140.338 15.5621H140.566V16.8717H140.414V16.0277C140.414 15.9307 140.418 15.8262 140.426 15.7124H140.419L139.971 16.8717H139.848ZM101.431 22.4035C101.431 22.0099 101.356 21.7069 101.204 21.4921C101.052 21.2785 100.834 21.1711 100.548 21.1711C100.168 21.1711 99.8946 21.3475 99.728 21.7011V23.1611C99.9051 23.5152 100.181 23.6917 100.555 23.6917C100.832 23.6917 101.046 23.5843 101.201 23.3701C101.354 23.1559 101.431 22.8337 101.431 22.4035ZM102.008 22.4685C102.008 22.9852 101.89 23.3985 101.653 23.7114C101.416 24.0249 101.097 24.1816 100.699 24.1816C100.272 24.1816 99.9422 24.0307 99.7094 23.7288L99.681 24.1184H99.151V19.3273H99.728V21.1153C99.9608 20.8257 100.282 20.6811 100.692 20.6811C101.102 20.6811 101.423 20.8361 101.658 21.1461C101.892 21.4561 102.008 21.8799 102.008 22.4186V22.4685ZM104.06 23.2731L104.847 20.7438H105.464L104.107 24.6397C103.897 25.201 103.563 25.482 103.107 25.482L102.997 25.4727L102.782 25.4321V24.9642L102.938 24.9764C103.133 24.9764 103.286 24.9369 103.395 24.8579C103.504 24.779 103.594 24.6344 103.665 24.4243L103.792 24.0818L102.588 20.7438H103.219L104.06 23.2731ZM109.543 22.4401H111.087L110.313 20.3165L109.543 22.4412V22.4401ZM111.265 22.9306H109.362L108.934 24.1184H108.317L110.051 19.577H110.576L112.313 24.1184H111.698L111.265 22.9306ZM114.076 23.7097C114.282 23.7097 114.462 23.6481 114.615 23.5228C114.769 23.3985 114.855 23.2424 114.871 23.0549H115.417C115.407 23.2482 115.34 23.4322 115.217 23.6075C115.091 23.7856 114.922 23.9293 114.726 24.0255C114.525 24.1285 114.302 24.1818 114.076 24.1811C113.616 24.1811 113.251 24.0278 112.98 23.7207C112.708 23.4142 112.572 22.9951 112.572 22.4621V22.3658C112.572 22.0366 112.632 21.7446 112.753 21.4892C112.874 21.2338 113.046 21.0346 113.273 20.893C113.498 20.7519 113.765 20.6817 114.073 20.6817C114.451 20.6817 114.765 20.7943 115.016 21.0213C115.267 21.2477 115.4 21.542 115.417 21.9037H114.871C114.861 21.6992 114.772 21.5066 114.623 21.3661C114.475 21.2258 114.277 21.15 114.073 21.1554C113.779 21.1554 113.552 21.261 113.391 21.4718C113.23 21.6831 113.149 21.9884 113.149 22.3878V22.4964C113.149 22.8853 113.229 23.1849 113.389 23.395C113.55 23.6052 113.778 23.7097 114.076 23.7097ZM117.426 23.7097C117.632 23.7097 117.812 23.6481 117.966 23.5228C118.119 23.3985 118.205 23.2424 118.221 23.0549H118.767C118.757 23.2482 118.691 23.4322 118.568 23.6075C118.441 23.7856 118.272 23.9293 118.076 24.0255C117.875 24.1285 117.652 24.1818 117.426 24.1811C116.967 24.1811 116.601 24.0278 116.33 23.7207C116.058 23.4142 115.923 22.9951 115.923 22.4621V22.3658C115.923 22.0366 115.983 21.7446 116.103 21.4892C116.224 21.2338 116.397 21.0346 116.623 20.893C116.848 20.7519 117.115 20.6817 117.423 20.6817C117.801 20.6817 118.115 20.7943 118.366 21.0213C118.617 21.2477 118.75 21.542 118.767 21.9037H118.222C118.211 21.6991 118.122 21.5065 117.973 21.3661C117.825 21.2258 117.627 21.15 117.423 21.1554C117.13 21.1554 116.902 21.261 116.741 21.4718C116.58 21.6831 116.5 21.9884 116.5 22.3878V22.4964C116.5 22.8853 116.579 23.1849 116.74 23.395C116.9 23.6052 117.129 23.7097 117.426 23.7097ZM121.571 23.7851C121.347 24.0493 121.017 24.1811 120.582 24.1811C120.223 24.1811 119.949 24.0766 119.761 23.8676C119.572 23.6586 119.477 23.3492 119.475 22.9393V20.7438H120.052V22.9242C120.052 23.4357 120.26 23.6917 120.676 23.6917C121.117 23.6917 121.41 23.5274 121.556 23.1982V20.7438H122.133V24.1189H121.584L121.571 23.7851ZM123.724 23.629H125.876V24.1189H123.122V19.577H123.724V23.629ZM127.307 23.2731L128.093 20.7438H128.71L127.353 24.6397C127.143 25.201 126.81 25.482 126.352 25.482L126.243 25.4727L126.028 25.4321V24.9642L126.184 24.9764C126.379 24.9764 126.532 24.9369 126.641 24.8579C126.75 24.779 126.84 24.6344 126.911 24.4243L127.039 24.0818L125.835 20.7438H126.464L127.307 23.2731ZM129.83 20.7432L129.848 21.1682C130.106 20.8431 130.443 20.6817 130.859 20.6817C131.572 20.6817 131.932 21.0834 131.938 21.8892V24.1189H131.361V21.8851C131.359 21.6419 131.304 21.4619 131.195 21.3452C131.085 21.2291 130.915 21.1711 130.684 21.1711C130.508 21.1676 130.335 21.2198 130.191 21.3203C130.049 21.4212 129.936 21.5567 129.861 21.7139V24.1189H129.284V20.7432H129.83ZM134.11 21.9757L134.859 20.7438H135.533L134.429 22.4128L135.567 24.1195H134.9L134.12 22.8552L133.341 24.1189H132.67L133.808 22.4128L132.704 20.7438H133.371L134.11 21.9757Z" fill="black"/>
<path d="M76.135 3.80587C75.3838 4.81249 74.8061 5.97005 74.4184 7.24835C74.0294 8.52898 73.832 9.90133 73.832 11.3271C73.832 12.8544 74.0277 14.275 74.4131 15.5475C74.7986 16.8188 75.3768 17.9769 76.1303 18.9888C76.8327 19.9316 77.5793 20.6177 78.3508 21.0293L78.7107 20.0331C77.7523 19.2425 76.9947 18.1 76.4583 16.6348C75.9097 15.1347 75.6311 13.4059 75.6311 11.496L75.6409 10.685C75.692 8.89703 76.0032 7.28899 76.5651 5.90154C77.1131 4.55009 77.8353 3.51909 78.7119 2.83291L78.3479 1.77637C77.5775 2.18854 76.8333 2.87007 76.135 3.80587Z" fill="#F39152"/>
<path d="M82.0488 8.44352C82.6658 8.44352 83.1546 8.63219 83.5001 9.00547C83.8489 9.38164 84.0515 9.94939 84.1009 10.6872V10.7766H79.8468C79.9589 10.0545 80.2004 9.48207 80.5649 9.07571C80.9394 8.65599 81.4386 8.44352 82.0488 8.44352ZM82.058 6.44944C81.16 6.44944 80.3345 6.67816 79.6042 7.12981C78.8739 7.58087 78.2992 8.22002 77.8957 9.02927C77.4934 9.83619 77.2891 10.7639 77.2891 11.7879V12.07C77.2891 13.6026 77.7593 14.8472 78.6858 15.7714C79.6129 16.695 80.8372 17.1635 82.3257 17.1635C83.1953 17.1635 83.9906 16.9917 84.6913 16.6527C85.3931 16.3125 85.9626 15.8266 86.3829 15.2089L86.4212 15.1532L85.0535 13.8702L84.9984 13.9399C84.3482 14.7625 83.4937 15.1787 82.4598 15.1787C81.7271 15.1787 81.1106 14.9395 80.6276 14.4687C80.1609 14.0119 79.8834 13.3872 79.8033 12.6111H86.5594V11.6091C86.5594 9.979 86.1646 8.69837 85.3867 7.80379C84.6059 6.90514 83.4861 6.44944 82.058 6.44944ZM94.8167 18.9509C95.5972 17.8986 96.188 16.7181 96.5623 15.4626C96.9478 14.1698 97.1417 12.827 97.1388 11.4773L97.1295 10.7476C97.0802 9.47173 96.851 8.2092 96.4486 6.99745C96.0588 5.81465 95.4722 4.70615 94.7134 3.71867C94.0162 2.81596 93.2905 2.16287 92.5538 1.77393L92.191 2.78519L92.4075 2.97734C93.3317 3.86148 94.0469 5.04283 94.5381 6.49297C95.0257 7.93615 95.273 9.55638 95.273 11.3078V11.5243C95.273 13.4534 94.988 15.1944 94.426 16.7014C93.878 18.1701 93.1268 19.2917 92.1933 20.0348L92.5533 21.0309C93.3323 20.6223 94.0934 19.9239 94.8173 18.9509" fill="#F39152"/>
</svg>
