<svg width="20" height="20" viewBox="0 0 20 20" fill="none" xmlns="http://www.w3.org/2000/svg">
<g clip-path="url(#clip0_800_850)">
<path d="M6.66797 11.6665C6.66797 11.6665 7.91797 13.3332 10.0013 13.3332C12.0846 13.3332 13.3346 11.6665 13.3346 11.6665M12.5013 7.49984H12.5096M7.5013 7.49984H7.50964M18.3346 9.99984C18.3346 14.6022 14.6037 18.3332 10.0013 18.3332C5.39893 18.3332 1.66797 14.6022 1.66797 9.99984C1.66797 5.39746 5.39893 1.6665 10.0013 1.6665C14.6037 1.6665 18.3346 5.39746 18.3346 9.99984ZM12.918 7.49984C12.918 7.72996 12.7314 7.9165 12.5013 7.9165C12.2712 7.9165 12.0846 7.72996 12.0846 7.49984C12.0846 7.26972 12.2712 7.08317 12.5013 7.08317C12.7314 7.08317 12.918 7.26972 12.918 7.49984ZM7.91797 7.49984C7.91797 7.72996 7.73142 7.9165 7.5013 7.9165C7.27118 7.9165 7.08464 7.72996 7.08464 7.49984C7.08464 7.26972 7.27118 7.08317 7.5013 7.08317C7.73142 7.08317 7.91797 7.26972 7.91797 7.49984Z" stroke="#717680" stroke-width="1.66667" stroke-linecap="round" stroke-linejoin="round"/>
</g>
<defs>
<clipPath id="clip0_800_850">
<rect width="20" height="20" fill="white"/>
</clipPath>
</defs>
</svg>
