<svg width="16" height="17" viewBox="0 0 16 17" fill="none" xmlns="http://www.w3.org/2000/svg">
<path d="M9.15523 2.83977L10.3286 5.18643C10.4886 5.5131 10.9152 5.82643 11.2752 5.88643L13.4019 6.23977C14.7619 6.46643 15.0819 7.4531 14.1019 8.42643L12.4486 10.0798C12.1686 10.3598 12.0152 10.8998 12.1019 11.2864L12.5752 13.3331C12.9486 14.9531 12.0886 15.5798 10.6552 14.7331L8.66189 13.5531C8.30189 13.3398 7.70856 13.3398 7.34189 13.5531L5.34856 14.7331C3.92189 15.5798 3.05523 14.9464 3.42856 13.3331L3.90189 11.2864C3.98856 10.8998 3.83523 10.3598 3.55523 10.0798L1.90189 8.42643C0.928559 7.4531 1.24189 6.46643 2.60189 6.23977L4.72856 5.88643C5.08189 5.82643 5.50856 5.5131 5.66856 5.18643L6.84189 2.83977C7.48189 1.56643 8.52189 1.56643 9.15523 2.83977Z" stroke="#292D32" stroke-width="1.5" stroke-linecap="round" stroke-linejoin="round"/>
</svg>
