<svg width="16" height="15" viewBox="0 0 16 15" fill="none" xmlns="http://www.w3.org/2000/svg">
<path d="M7.40332 1.14746C7.553 0.686805 8.20482 0.686806 8.35449 1.14746L9.42383 4.43848C9.62464 5.05651 10.2007 5.47558 10.8506 5.47559H14.3115C14.7959 5.47559 14.9973 6.09518 14.6055 6.37988L11.8057 8.41406C11.28 8.79595 11.0601 9.47288 11.2607 10.0908L12.3301 13.3828C12.4798 13.8435 11.9524 14.2271 11.5605 13.9424L8.76074 11.9072C8.23505 11.5253 7.52276 11.5253 6.99707 11.9072L4.19727 13.9424C3.80541 14.2271 3.27806 13.8435 3.42773 13.3828L4.49707 10.0908C4.69768 9.47288 4.47778 8.79595 3.95215 8.41406L1.15234 6.37988C0.760488 6.09518 0.961927 5.47559 1.44629 5.47559H4.90723C5.55707 5.47558 6.13317 5.05651 6.33398 4.43848L7.40332 1.14746Z" stroke="#BFBFBF"/>
</svg>
