<svg width="16" height="16" viewBox="0 0 16 16" fill="none" xmlns="http://www.w3.org/2000/svg">
<path d="M13.3355 12.8394H7.28885C6.98885 12.8394 6.74219 12.5928 6.74219 12.2928C6.74219 11.9928 6.98885 11.7461 7.28885 11.7461H13.3355C13.6355 11.7461 13.8822 11.9928 13.8822 12.2928C13.8822 12.5994 13.6355 12.8394 13.3355 12.8394Z" fill="white"/>
<path d="M13.3355 8.64607H7.28885C6.98885 8.64607 6.74219 8.3994 6.74219 8.0994C6.74219 7.7994 6.98885 7.55273 7.28885 7.55273H13.3355C13.6355 7.55273 13.8822 7.7994 13.8822 8.0994C13.8822 8.3994 13.6355 8.64607 13.3355 8.64607Z" fill="white"/>
<path d="M13.3355 4.44685H7.28885C6.98885 4.44685 6.74219 4.20018 6.74219 3.90018C6.74219 3.60018 6.98885 3.35352 7.28885 3.35352H13.3355C13.6355 3.35352 13.8822 3.60018 13.8822 3.90018C13.8822 4.20018 13.6355 4.44685 13.3355 4.44685Z" fill="white"/>
<path d="M3.27052 5.35393C3.12385 5.35393 2.98385 5.29393 2.88385 5.19393L2.27719 4.58727C2.06385 4.37393 2.06385 4.02727 2.27719 3.81393C2.49052 3.6006 2.83719 3.6006 3.05052 3.81393L3.27052 4.03393L4.69719 2.60727C4.91052 2.39393 5.25719 2.39393 5.47052 2.60727C5.68385 2.8206 5.68385 3.16727 5.47052 3.3806L3.65719 5.19393C3.55052 5.29393 3.41719 5.35393 3.27052 5.35393Z" fill="white"/>
<path d="M3.27052 9.55315C3.13052 9.55315 2.99052 9.49982 2.88385 9.39315L2.27719 8.78648C2.06385 8.57315 2.06385 8.22648 2.27719 8.01315C2.49052 7.79982 2.83719 7.79982 3.05052 8.01315L3.27052 8.23315L4.69719 6.80648C4.91052 6.59315 5.25719 6.59315 5.47052 6.80648C5.68385 7.01982 5.68385 7.36648 5.47052 7.57982L3.65719 9.39315C3.55052 9.49982 3.41052 9.55315 3.27052 9.55315Z" fill="white"/>
<path d="M3.27052 13.5532C3.13052 13.5532 2.99052 13.4998 2.88385 13.3932L2.27719 12.7865C2.06385 12.5732 2.06385 12.2265 2.27719 12.0132C2.49052 11.7998 2.83719 11.7998 3.05052 12.0132L3.27052 12.2332L4.69719 10.8065C4.91052 10.5932 5.25719 10.5932 5.47052 10.8065C5.68385 11.0198 5.68385 11.3665 5.47052 11.5798L3.65719 13.3932C3.55052 13.4998 3.41052 13.5532 3.27052 13.5532Z" fill="white"/>
</svg>
