<svg width="24" height="25" viewBox="0 0 24 25" fill="none" xmlns="http://www.w3.org/2000/svg">
<path d="M21.0036 7.23046C20.9836 7.23046 20.9536 7.23046 20.9236 7.23046C15.6336 6.70046 10.3536 6.50046 5.12358 7.03046L3.08358 7.23046C2.66358 7.27046 2.29358 6.97046 2.25358 6.55046C2.21358 6.13046 2.51358 5.77046 2.92358 5.73046L4.96358 5.53046C10.2836 4.99046 15.6736 5.20046 21.0736 5.73046C21.4836 5.77046 21.7836 6.14046 21.7436 6.55046C21.7136 6.94046 21.3836 7.23046 21.0036 7.23046Z" fill="#EB0303"/>
<path d="M8.50074 6.22C8.46074 6.22 8.42074 6.22 8.37074 6.21C7.97074 6.14 7.69074 5.75 7.76074 5.35L7.98074 4.04C8.14074 3.08 8.36074 1.75 10.6907 1.75H13.3107C15.6507 1.75 15.8707 3.13 16.0207 4.05L16.2407 5.35C16.3107 5.76 16.0307 6.15 15.6307 6.21C15.2207 6.28 14.8307 6 14.7707 5.6L14.5507 4.3C14.4107 3.43 14.3807 3.26 13.3207 3.26H10.7007C9.64074 3.26 9.62074 3.4 9.47074 4.29L9.24074 5.59C9.18074 5.96 8.86074 6.22 8.50074 6.22Z" fill="#EB0303"/>
<path d="M15.2104 23.2496H8.79039C5.30039 23.2496 5.16039 21.3196 5.05039 19.7596L4.40039 9.68959C4.37039 9.27959 4.69039 8.91959 5.10039 8.88959C5.52039 8.86959 5.87039 9.17959 5.90039 9.58959L6.55039 19.6596C6.66039 21.1796 6.70039 21.7496 8.79039 21.7496H15.2104C17.3104 21.7496 17.3504 21.1796 17.4504 19.6596L18.1004 9.58959C18.1304 9.17959 18.4904 8.86959 18.9004 8.88959C19.3104 8.91959 19.6304 9.26959 19.6004 9.68959L18.9504 19.7596C18.8404 21.3196 18.7004 23.2496 15.2104 23.2496Z" fill="#EB0303"/>
<path d="M13.6581 17.75H10.3281C9.91813 17.75 9.57812 17.41 9.57812 17C9.57812 16.59 9.91813 16.25 10.3281 16.25H13.6581C14.0681 16.25 14.4081 16.59 14.4081 17C14.4081 17.41 14.0681 17.75 13.6581 17.75Z" fill="#EB0303"/>
<path d="M14.5 13.75H9.5C9.09 13.75 8.75 13.41 8.75 13C8.75 12.59 9.09 12.25 9.5 12.25H14.5C14.91 12.25 15.25 12.59 15.25 13C15.25 13.41 14.91 13.75 14.5 13.75Z" fill="#EB0303"/>
</svg>
