<svg width="24" height="24" viewBox="0 0 24 24" fill="none" xmlns="http://www.w3.org/2000/svg">
<path d="M9 22H15C20 22 22 20 22 15V9C22 4 20 2 15 2H9C4 2 2 4 2 9V15C2 20 4 22 9 22Z" stroke="#292D32" stroke-width="1.5" stroke-linecap="round" stroke-linejoin="round"/>
<path d="M17.9016 9.04875C15.7216 8.82875 13.5216 8.71875 11.3316 8.71875C10.0316 8.71875 8.73156 8.78875 7.44156 8.91875L6.10156 9.04875" stroke="#292D32" stroke-width="1.5" stroke-linecap="round" stroke-linejoin="round"/>
<path d="M9.71094 8.38945L9.85094 7.52945C9.95094 6.90945 10.0309 6.43945 11.1409 6.43945H12.8609C13.9709 6.43945 14.0509 6.92945 14.1509 7.52945L14.2909 8.37946" stroke="#292D32" stroke-width="1.5" stroke-linecap="round" stroke-linejoin="round"/>
<path d="M16.49 9.12891L16.06 15.7289C15.99 16.7589 15.93 17.5589 14.1 17.5589H9.89C8.06 17.5589 7.99999 16.7589 7.92999 15.7289L7.5 9.12891" stroke="#292D32" stroke-width="1.5" stroke-linecap="round" stroke-linejoin="round"/>
</svg>
