<svg width="16" height="17" viewBox="0 0 16 17" fill="none" xmlns="http://www.w3.org/2000/svg">
<path d="M12.0929 14.9135C11.5063 15.0868 10.8129 15.1668 9.99958 15.1668H5.99958C5.18625 15.1668 4.49292 15.0868 3.90625 14.9135C4.05292 13.1802 5.83292 11.8135 7.99958 11.8135C10.1663 11.8135 11.9463 13.1802 12.0929 14.9135Z" stroke="#292D32" stroke-width="1.5" stroke-linecap="round" stroke-linejoin="round"/>
<path d="M9.9987 1.83301H5.9987C2.66536 1.83301 1.33203 3.16634 1.33203 6.49967V10.4997C1.33203 13.0197 2.09203 14.3997 3.90537 14.913C4.05203 13.1797 5.83203 11.813 7.9987 11.813C10.1654 11.813 11.9454 13.1797 12.092 14.913C13.9054 14.3997 14.6654 13.0197 14.6654 10.4997V6.49967C14.6654 3.16634 13.332 1.83301 9.9987 1.83301ZM7.9987 9.94633C6.6787 9.94633 5.61203 8.87302 5.61203 7.55302C5.61203 6.23302 6.6787 5.16634 7.9987 5.16634C9.3187 5.16634 10.3854 6.23302 10.3854 7.55302C10.3854 8.87302 9.3187 9.94633 7.9987 9.94633Z" stroke="#292D32" stroke-width="1.5" stroke-linecap="round" stroke-linejoin="round"/>
<path d="M10.3866 7.55367C10.3866 8.87367 9.31995 9.94698 7.99995 9.94698C6.67995 9.94698 5.61328 8.87367 5.61328 7.55367C5.61328 6.23367 6.67995 5.16699 7.99995 5.16699C9.31995 5.16699 10.3866 6.23367 10.3866 7.55367Z" stroke="#292D32" stroke-width="1.5" stroke-linecap="round" stroke-linejoin="round"/>
</svg>
