<svg width="24" height="25" viewBox="0 0 24 25" fill="none" xmlns="http://www.w3.org/2000/svg">
<path d="M12 8V13.25" stroke="#EB0303" stroke-width="1.5" stroke-linecap="round" stroke-linejoin="round"/>
<path d="M15.4173 3.5H8.58274C8.48425 3.5 8.38672 3.5194 8.29573 3.55709C8.20473 3.59478 8.12205 3.65003 8.05241 3.71967L3.21967 8.55241C3.15003 8.62205 3.09478 8.70473 3.05709 8.79573C3.0194 8.88672 3 8.98425 3 9.08274V15.9173C3 16.0158 3.0194 16.1133 3.05709 16.2043C3.09478 16.2953 3.15003 16.3779 3.21967 16.4476L8.05241 21.2803C8.12205 21.35 8.20473 21.4052 8.29573 21.4429C8.38672 21.4806 8.48425 21.5 8.58274 21.5H15.4173C15.5158 21.5 15.6133 21.4806 15.7043 21.4429C15.7953 21.4052 15.8779 21.35 15.9476 21.2803L20.7803 16.4476C20.85 16.3779 20.9052 16.2953 20.9429 16.2043C20.9806 16.1133 21 16.0158 21 15.9173V9.08274C21 8.98425 20.9806 8.88672 20.9429 8.79573C20.9052 8.70473 20.85 8.62205 20.7803 8.55241L15.9476 3.71967C15.8779 3.65003 15.7953 3.59478 15.7043 3.55709C15.6133 3.5194 15.5158 3.5 15.4173 3.5Z" stroke="#EB0303" stroke-width="1.5" stroke-miterlimit="10"/>
<path d="M12 17.75C12.6213 17.75 13.125 17.2463 13.125 16.625C13.125 16.0037 12.6213 15.5 12 15.5C11.3787 15.5 10.875 16.0037 10.875 16.625C10.875 17.2463 11.3787 17.75 12 17.75Z" fill="#EB0303"/>
</svg>
