<svg width="14" height="15" viewBox="0 0 14 15" fill="none" xmlns="http://www.w3.org/2000/svg">
<path d="M5.0573 7.32574C5.51111 8.25353 6.26318 9.00218 7.19303 9.45176C7.26106 9.484 7.33631 9.49797 7.41138 9.49229C7.48645 9.48661 7.55875 9.46148 7.62116 9.41937L8.9903 8.5064C9.05085 8.46602 9.12052 8.44139 9.19299 8.43473C9.26547 8.42807 9.33846 8.4396 9.40536 8.46827L11.9668 9.56601C12.0538 9.60297 12.1264 9.66721 12.1737 9.74905C12.2211 9.83088 12.2405 9.92588 12.2292 10.0197C12.1482 10.6532 11.8391 11.2355 11.3598 11.6575C10.8804 12.0795 10.2637 12.3124 9.625 12.3124C7.65245 12.3124 5.7607 11.5288 4.36589 10.134C2.97109 8.73921 2.1875 6.84745 2.1875 4.8749C2.18753 4.23625 2.42036 3.6195 2.84237 3.14015C3.26439 2.66079 3.84666 2.3517 4.48016 2.27074C4.57402 2.25938 4.66902 2.27883 4.75085 2.32616C4.83269 2.37349 4.89693 2.44613 4.93389 2.53314L6.03259 5.09677C6.06101 5.16308 6.07259 5.23539 6.0663 5.30726C6.06001 5.37913 6.03604 5.44833 5.99653 5.50869L5.08673 6.89884C5.04532 6.96137 5.02084 7.03358 5.01568 7.1084C5.01052 7.18323 5.02486 7.25811 5.0573 7.32574V7.32574Z" stroke="white" stroke-width="1.5" stroke-linecap="round" stroke-linejoin="round"/>
</svg>
